<svg width="768" height="630" viewBox="0 0 768 630" fill="none" xmlns="http://www.w3.org/2000/svg">
<path opacity="0.3" d="M1319.04 384.432C1167.56 467.58 1019.17 533.538 852.435 578.213C726.346 611.999 598.206 643.596 465.751 621.756C397.22 610.456 334.481 587.344 311.53 511.096C262.793 349.179 407.187 173.454 518.619 90.8488C589.375 38.3968 706.969 -26.9131 794.1 -24.9423C824.866 -24.2464 894.008 -6.45423 911.201 33.5513C929.691 76.5725 842.295 142.87 818.397 158.888C701.911 236.964 567.572 288.74 439.729 343.218C317.07 395.488 192.179 441.429 61.7053 469.478C5.52628 481.555 -52.3561 486.904 -109.468 474.453C-197.974 455.158 -225.297 330.854 -221.98 247.316" stroke="white" stroke-width="2" stroke-linecap="round"/>
</svg>
