<?xml version="1.0" encoding="utf-8"?>
<!-- Generator: Adobe Illustrator 24.0.1, SVG Export Plug-In . SVG Version: 6.00 Build 0)  -->
<svg version="1.1" id="Layer_1" xmlns="http://www.w3.org/2000/svg" xmlns:xlink="http://www.w3.org/1999/xlink" x="0px" y="0px"
	 viewBox="0 0 521.57 521.57" style="enable-background:new 0 0 521.57 521.57;" xml:space="preserve">
<style type="text/css">
	.st0{display:none;fill:#121213;stroke:#000000;stroke-miterlimit:10;}
	.st1{display:none;fill:#C6C6C6;}
	.st2{display:none;opacity:0.25;fill:#FFFFFF;}
	.st3{display:none;}
	.st4{display:inline;opacity:0.25;fill:#FFFFFF;}
	.st5{display:none;fill:#FFFFFF;fill-opacity:0.2;}
	.st6{display:none;opacity:0.25;}
	.st7{display:inline;fill:#FFFFFF;}
	.st8{display:inline;opacity:0.2;fill:#FFFFFF;enable-background:new    ;}
	.st9{opacity:0.25;}
	.st10{fill:#FFFFFF;}
</style>
<rect class="st0" width="521.57" height="521.57"/>
<circle class="st1" cx="261.05" cy="260.03" r="255.65"/>
<path class="st2" d="M482.72,131.32L336.2,368.7c-5.99-7.22-12.89-13.64-20.6-19.18c-7.48-4.88-15.6-8.5-24.19-10.79L462.37,101
	c-2.61-3.35-5.29-6.63-8.06-9.84L346.55,240.93c-69.07-30.42-143.4-16.25-177.4,34.1c-11.29,16.75-17.66,36.27-18.41,56.46
	c-0.34,11.12-4.53,21.89-11.79,30.33c-7.26,8.44-17.3,14.19-28.16,16.17c-20.22,2.93-39.29,9.85-56.68,20.55
	c-1.98,1.22-3.91,2.49-5.81,3.78c2.26,3.32,4.59,6.58,7,9.79c1.76-1.19,3.55-2.35,5.37-3.46c16.05-9.78,33.63-16.07,52.36-18.72
	c13.66-2.49,26.19-9.64,35.26-20.13c9.08-10.5,14.34-23.91,14.82-37.79c0.53-17.93,6.08-35.29,16.03-50.2
	c19.67-29.17,54.83-44.76,94.32-44.76c21.28,0,43.82,4.53,65.86,13.9l-63.48,88.23c-7.82-0.64-15.65-0.21-23.31,1.29
	c-16.65,3.25-31.81,11.27-43.84,23.21c-12.04,11.94-20.18,27.02-23.55,43.62c-3.37,16.6-1.75,33.66,4.69,49.34
	c6.43,15.67,17.27,28.96,31.34,38.42c18.94,12.71,41.72,17.31,64.12,12.94c22.4-4.37,41.77-17.19,54.54-36.09
	c9.47-14.05,14.5-30.43,14.56-47.37c0.05-15.21-4.01-30.16-11.75-43.37l56.33-91.26c47.48,45.47,62.61,108.28,37.91,153.9
	c7.68-7.32,14.9-15.11,21.62-23.33c9.84-46.41-9.37-100.53-53.07-141.03l83.85-135.84C487.21,139.45,485.02,135.35,482.72,131.32z
	 M329.84,465.22c-8.15,12.07-19.58,21.37-33.07,26.88c-13.49,5.52-28.17,6.91-42.45,4.01s-27.26-9.89-37.53-20.22
	c-10.26-10.33-17.16-23.34-19.95-37.63c-2.79-14.29-1.29-28.93,4.34-42.36c5.63-13.43,15.03-24.77,27.17-32.81
	c12.07-7.99,26.09-12.21,40.57-12.21c0.09,0,0.19,0,0.28,0c14.58,0.05,28.67,4.38,40.76,12.51c16.25,10.96,27.27,27.58,31.02,46.81
	C344.74,429.43,340.78,448.97,329.84,465.22z"/>
<path class="st2" d="M288.43,334.61c-13.05-5.45-27.29-6.9-41.18-4.19c-13.89,2.71-26.53,9.41-36.57,19.37
	c-10.04,9.96-16.83,22.55-19.63,36.4c-2.8,13.85-1.45,28.08,3.92,41.16c5.37,13.07,14.42,24.15,26.16,32.04
	c11.9,8,25.62,12.15,39.65,12.15c4.59,0,9.22-0.45,13.83-1.35c18.69-3.65,34.84-14.35,45.47-30.13c7.9-11.72,12.1-25.39,12.15-39.52
	c0.05-14.13-4.06-27.82-11.89-39.6C312.51,349.17,301.48,340.06,288.43,334.61z M311.88,434.06c-6.81,10.1-16.37,17.88-27.65,22.5
	c-11.28,4.62-23.56,5.79-35.51,3.37c-11.95-2.42-22.81-8.26-31.4-16.9c-8.59-8.64-14.37-19.52-16.7-31.47
	c-2.34-11.95-1.08-24.2,3.62-35.43c4.7-11.23,12.56-20.72,22.72-27.45c10.1-6.69,21.83-10.22,33.94-10.22c0.07,0,0.15,0,0.22,0
	c11.77,0.04,23.17,3.42,33.04,9.77c0.24,0.47,0.59,0.88,1.04,1.18c13.46,9.14,22.61,22.96,25.74,38.91
	C324.1,404.29,320.87,420.54,311.88,434.06z"/>
<g class="st3">
	<path class="st4" d="M461.62,422.13c-1.06-0.57-2.12-1.19-3.14-1.93c-3.98-2.88-8.55-2.69-11.89-2.56
		c-0.66,0.03-1.32,0.05-1.96,0.05c-2.34,0-26.36-1.99-40.95-3.24l-0.37-0.02c-5.32-0.1-21.39-4.89-27.1-7.74
		c-1.2-0.6-2.7-1.39-4.33-2.24c-3.38-1.77-7.21-3.78-10.22-5.12c-5.04-2.24-8.54-4.42-12.59-6.94c-2.07-1.29-4.25-2.64-6.79-4.11
		c-5.36-3.1-10.82-6.08-16.09-8.96c-13.34-7.29-25.94-14.18-37.77-23.09c-13.19-9.93-26.89-18.63-42.15-28.17
		c-1.17-0.73-2.34-1.48-3.5-2.23c-4.44-2.86-9.03-5.81-14.26-7.97c-0.67-0.28-1.48-0.54-2.32-0.81c-0.68-0.21-1.81-0.57-1.98-0.64
		c-3.99-3.57-8.68-5.99-13.21-8.34c-2.8-1.45-5.44-2.81-7.79-4.37c-3.41-2.27-6.81-4.63-10.23-6.99
		c-9.92-6.87-20.18-13.97-31.12-19.44c-17.82-8.91-36.24-18.12-55.04-26.38c-13.42-5.9-26.83-12.76-39.8-19.4
		c-9.98-5.11-20.3-10.39-30.62-15.23c-8.47-3.98-16.41-8.41-23.76-13.21c-0.93,3.81-1.77,7.66-2.52,11.54
		c6.77,4.22,13.95,8.16,21.55,11.73c10.15,4.77,20.38,10,30.28,15.06c13.11,6.71,26.68,13.65,40.4,19.68
		c18.55,8.15,36.84,17.3,54.54,26.14c10.24,5.12,20.16,11.99,29.77,18.63c3.47,2.4,6.93,4.8,10.39,7.1c2.85,1.9,5.9,3.48,8.85,5
		c4.1,2.12,7.97,4.11,10.91,6.75c1.83,1.63,4.17,2.37,6.05,2.96c0.51,0.16,1.01,0.31,1.41,0.47c4.3,1.77,8.28,4.33,12.48,7.04
		c1.2,0.78,2.41,1.55,3.63,2.31c15.03,9.39,28.52,17.96,41.35,27.62c12.48,9.39,26.02,16.8,39.12,23.96
		c5.22,2.85,10.62,5.8,15.86,8.83c2.43,1.4,4.51,2.7,6.48,3.93c4.22,2.62,8.2,5.1,13.95,7.66c2.68,1.19,6.34,3.11,9.57,4.8
		c1.7,0.89,3.27,1.71,4.52,2.34c6.44,3.22,24.03,8.68,31.66,8.91c5.81,0.5,29.96,2.56,38.78,3.12c-2.53,0.59-5.08,1.17-7.67,1.75
		c-3.72,0.84-7.45,1.67-11.16,2.57c-2.07,0.5-4.15,1.07-6.24,1.65c-5.07,1.39-9.86,2.71-14.59,3.02l-1.3,0.09
		c-2.74,0.2-7.33,0.52-9.24-0.33c-3.57-1.6-7.18-3.09-10.79-4.58c-3.38-1.39-6.77-2.79-10.12-4.28l-1.52-0.68
		c-7.24-3.22-14.74-6.55-22.31-9.39c-16.46-6.17-29.74-12.65-40.61-19.79c-5.22-3.43-10.44-7.24-15.49-10.92
		c-7.38-5.38-15.01-10.94-23.07-15.68c-3.71-2.18-7.53-4.11-11.23-5.97c-3.95-1.99-7.68-3.87-11.3-6.04l-5.21-3.13
		c-7.97-4.78-16.2-9.73-24.22-14.71c-13.51-8.4-26.02-15.62-38.25-22.06c-5.65-2.98-11.23-6.52-16.62-9.95
		c-5.52-3.51-11.22-7.13-17.18-10.28c-10.14-5.35-21.24-11.04-33.96-17.4c-3.01-1.51-5.82-3.25-8.79-5.09
		c-1.19-0.74-2.38-1.48-3.62-2.22c-1.88-1.13-3.76-2.25-5.63-3.36c-6.19-3.67-12.03-7.13-17.79-11.15c-3.57-2.49-7.5-4.72-12.01-6.8
		l-2.43-1.11c-3.96-1.81-7.7-3.51-11.24-5.61c-2.02-1.2-4.05-2.42-6.09-3.65c-5.86-3.54-11.93-7.21-18.16-10.33
		c-3.16-1.58-6.44-2.64-9.62-3.67c-2.22-0.72-4.31-1.42-6.27-2.24c-0.83,5.85-1.47,11.76-1.9,17.74c0.66-0.22,1.27-0.37,1.66-0.37
		c2.46,0,4.52-1.61,5.25-3.82c2.09,0.7,4.11,1.41,5.9,2.31c4.6,2.3,9.21,4.99,13.74,7.7c-0.35,0.47-0.65,0.98-0.84,1.57
		c-0.95,2.92,0.64,6.06,3.56,7.01c4.53,1.48,7.39,3.51,7.45,5.29c0.17,4.64-0.61,6.24-4.91,10.06c-2.79,2.48-5.7,4.87-8.71,6.71
		c-0.35-1.08-0.71-2.19-0.83-2.76c-0.98-4.47-2.87-7.81-4.69-11.04l-0.77-1.38c-2.81-5.05-8.72-7.47-13.47-9.41
		c-1.47-0.6-2.84-1.17-3.87-1.7c-0.09,2.78-0.15,5.58-0.15,8.38c0,1.24,0.03,2.47,0.05,3.71c1.24,0.51,2.72,1.11,4.06,1.78
		c-0.18,1.44,0.2,2.96,1.18,4.18c2.52,3.13,3.77,4.77,4.62,7.8l0.23,0.84c0.33,1.2,0.67,2.37,1.05,3.51
		c-0.87,0.13-1.73,0.23-2.05,0.1c-0.93-0.56-1.86-1.1-2.79-1.64c-2.08-1.21-4.02-2.41-5.81-3.74c0.3,4.69,0.72,9.35,1.27,13.96
		c0.52,0.3,1.04,0.61,1.56,0.92c2.09,1.27,4.26,1.66,6.3,1.66c1.85,0,3.59-0.32,5.07-0.59c0.63-0.11,1.24-0.23,1.82-0.3
		c9.17-1.08,16.93-7.02,23.31-12.69c5.86-5.21,8.97-9.74,8.63-18.78c-0.02-0.6-0.08-1.23-0.2-1.87c0.34,0.16,0.68,0.31,1.02,0.47
		l2.38,1.09c3.91,1.8,7.28,3.71,10.3,5.82c6.09,4.26,12.39,7.99,18.49,11.6c1.85,1.1,3.71,2.2,5.57,3.32
		c1.19,0.72,2.35,1.44,3.49,2.15c3.05,1.89,6.21,3.85,9.68,5.59c12.64,6.32,23.68,11.98,33.74,17.29
		c5.56,2.94,10.83,6.28,16.41,9.83c5.58,3.55,11.35,7.22,17.41,10.4c12,6.31,24.28,13.4,37.56,21.66c8.09,5.03,16.37,10,24.37,14.8
		l5.2,3.12c3.97,2.39,8.07,4.45,12.03,6.44c3.7,1.86,7.19,3.62,10.59,5.62c7.59,4.47,15,9.87,22.16,15.09
		c5.15,3.76,10.48,7.64,15.93,11.22c0.4,0.26,0.83,0.52,1.24,0.78c-4.07,2.39-8.31,6.09-10.38,9.31c-3.28,5.11-2.2,11.53-1.4,16.23
		l0.25,1.54c2.47,16.08,22.53,26.72,31.04,30.55c4.58,2.06,8.92,3.09,13.11,3.09c2.54,0,5.03-0.38,7.48-1.13
		c0.47-0.14,0.92-0.27,1.35-0.38c1.98-0.54,4.22-1.16,6.65-3.05c0.92-0.71,1.75-1.53,2.49-2.24c0.6-0.59,1.42-1.39,1.81-1.62
		c5.15-3.02,10.75-10.02,11.01-17.04c0.08-2.25-0.19-4.32-0.71-6.23c0.19,0.08,0.38,0.17,0.57,0.25l1.52,0.68
		c3.44,1.53,6.91,2.97,10.39,4.4c3.51,1.45,7.02,2.9,10.5,4.46c2.69,1.2,5.89,1.53,8.95,1.53c2,0,3.93-0.14,5.62-0.26l1.22-0.08
		c5.86-0.38,11.43-1.91,16.82-3.39c1.98-0.54,3.94-1.09,5.9-1.56c3.66-0.88,7.33-1.71,11-2.53c3.58-0.81,7.19-1.64,10.82-2.51
		C452.28,433.42,457.08,427.88,461.62,422.13z M325.34,456.24c-10.28-4.62-21.62-12.25-24.2-20.34c0.45,0.12,0.92,0.2,1.4,0.2
		c0.69,0,1.38-0.01,2.05-0.03c3.12-0.07,4.83-0.05,6.32,0.93c8.35,5.57,16.86,12.31,19.25,20.89
		C328.64,457.55,327.04,457.01,325.34,456.24z M348.03,451.46c-1.55,0.91-2.82,2.15-3.94,3.24c-0.52,0.51-1.03,1.02-1.55,1.43
		c-0.36,0.28-0.71,0.46-1.19,0.63c-2.63-12.92-13.57-21.87-24.27-29.01c-4.46-2.97-9.04-2.87-12.72-2.8
		c-0.6,0.01-1.2,0.03-1.82,0.03c-1.01,0-1.93,0.29-2.75,0.75c0.06-0.69,0.19-1.28,0.44-1.66c1.47-2.29,6.13-5.89,8.74-6.76
		c1.26-0.42,2.25-1.26,2.91-2.3c8.99,4.88,19.21,9.46,30.95,13.87c0.5,0.19,1.01,0.4,1.51,0.59c0.36,0.74,0.86,1.43,1.55,1.97
		c5.53,4.35,7.82,7.99,7.66,12.14C353.48,445.93,350.69,449.9,348.03,451.46z"/>
	<path class="st4" d="M58.64,112.89c5,3.49,10.32,6.61,15.47,9.62c3.48,2.04,7.08,4.15,10.46,6.31c1.96,1.25,3.94,2.73,6.03,4.3
		c3.87,2.89,7.87,5.88,12.41,7.92c16.25,7.28,32.14,16.5,47.51,25.41c9.81,5.69,19.95,11.57,30.16,16.94
		c8.85,4.65,17.9,9.26,26.65,13.71c14.34,7.3,29.17,14.84,43.4,22.75c12.38,6.88,25.23,13.18,37.67,19.28
		c10.62,5.21,21.6,10.6,32.15,16.27c9.41,5.07,19.25,9.46,28.76,13.72c9.9,4.42,20.13,9,29.7,14.26
		c6.47,3.56,12.98,7.55,19.27,11.42c11.45,7.04,23.29,14.31,35.99,19.67c6.93,2.93,14.01,5.68,20.84,8.34
		c5.66,2.2,11.32,4.4,16.94,6.72c3.88,1.6,7.51,3.51,11.36,5.54c1.85,0.97,3.71,1.95,5.61,2.9c2.94,1.47,5.63,3.82,8.35,6.46
		c0.14,0.64,0.41,1.27,0.8,1.85c1.16,1.74,2.14,3.47,3.03,5.19c1.71-4.68,3.27-9.42,4.71-14.22c-3.53-3.46-7.25-6.88-11.91-9.22
		c-1.83-0.91-3.62-1.86-5.4-2.8c-3.91-2.06-7.95-4.18-12.31-5.98c-5.69-2.34-11.42-4.57-17.14-6.8c-6.77-2.63-13.76-5.36-20.55-8.23
		c-11.92-5.03-23.4-12.08-34.5-18.9c-6.4-3.93-13.03-8-19.73-11.69c-9.97-5.48-20.42-10.15-30.52-14.67
		c-9.33-4.17-18.98-8.48-28.03-13.35c-10.73-5.78-21.81-11.21-32.52-16.47c-12.31-6.04-25.04-12.28-37.17-19.02
		c-14.41-8.01-29.33-15.6-43.76-22.94c-8.72-4.44-17.74-9.03-26.52-13.65c-10-5.26-20.04-11.08-29.76-16.71
		c-15.62-9.06-31.77-18.42-48.54-25.94c-3.42-1.53-6.76-4.03-10.3-6.68c-2.16-1.62-4.4-3.29-6.7-4.76
		c-3.56-2.28-7.26-4.44-10.84-6.53c-4.96-2.9-10.08-5.9-14.72-9.14c-0.74-0.52-1.47-1.04-2.21-1.56c-2.34,2.87-4.63,5.79-6.85,8.77
		C56.85,111.62,57.74,112.26,58.64,112.89z"/>
</g>
<path class="st2" d="M454.74,393.19l29.47-29.57c1.82-1.81,3.26-3.96,4.25-6.32c0.98-2.37,1.49-4.91,1.49-7.47s-0.51-5.1-1.49-7.47
	c-0.99-2.37-2.43-4.52-4.25-6.32l-17.92-17.92c-1.55-1.54-3.37-2.79-5.37-3.67l14.16-14.24c1.84-1.75,3.31-3.84,4.33-6.17
	c1.01-2.32,1.56-4.83,1.59-7.36c0.02-2.56-0.47-5.1-1.44-7.46c-0.97-2.37-2.4-4.52-4.21-6.33l-17.92-17.92
	c-3.66-3.65-8.62-5.71-13.8-5.71c-5.17,0-10.14,2.05-13.8,5.71l-56.35,56.8L239.91,178.18l56.62-56.44
	c3.65-3.66,5.71-8.62,5.71-13.8c0-5.17-2.05-10.14-5.71-13.8l-17.92-17.92c-3.66-3.63-8.6-5.66-13.75-5.66
	c-5.15,0-10.09,2.04-13.75,5.66l-13.98,14.33c-0.95-1.99-2.22-3.8-3.76-5.38l-17.92-17.92c-3.66-3.65-8.62-5.71-13.8-5.71
	s-10.14,2.05-13.8,5.71l-29.39,29.74l-27.86-27.95c-1.22-1.12-2.82-1.74-4.48-1.74c-1.66,0-3.26,0.62-4.48,1.74l-53.75,54.2
	c-0.61,0.59-1.09,1.3-1.42,2.09c-0.32,0.79-0.48,1.63-0.46,2.48c-0.01,0.85,0.16,1.69,0.48,2.47c0.32,0.78,0.8,1.5,1.4,2.09
	l27.32,27.86l-29.56,29.56c-3.65,3.66-5.71,8.62-5.71,13.8c0,5.17,2.05,10.14,5.71,13.8l17.92,17.92c1.59,1.52,3.4,2.79,5.38,3.76
	l-14.33,13.98c-1.82,1.79-3.26,3.92-4.25,6.28c-0.98,2.35-1.49,4.88-1.49,7.43c-0.02,2.56,0.47,5.1,1.44,7.46
	c0.97,2.37,2.4,4.52,4.2,6.33l17.92,17.92c1.81,1.82,3.96,3.26,6.32,4.25c2.37,0.99,4.91,1.49,7.47,1.49c2.56,0,5.1-0.51,7.47-1.49
	c2.37-0.99,4.52-2.43,6.32-4.25l56.35-56.8l133.58,133.58l-56.62,56.44c-3.65,3.66-5.71,8.62-5.71,13.8s2.05,10.14,5.71,13.8
	l17.92,17.92c1.81,1.81,3.96,3.24,6.33,4.21c2.37,0.97,4.91,1.46,7.46,1.44c2.55,0.03,5.07-0.46,7.43-1.43
	c2.35-0.97,4.49-2.4,6.28-4.22l14.24-14.15c0.89,2,2.13,3.82,3.67,5.37l17.92,17.92c1.79,1.81,3.93,3.24,6.28,4.21
	c2.36,0.97,4.88,1.46,7.43,1.43c2.56,0.02,5.1-0.47,7.46-1.44s4.52-2.4,6.33-4.21l29.57-29.56l14.03,14.03
	c3.65-2.51,7.23-5.11,10.74-7.8l-16.08-16.08l44.79-44.79l16.43,16.43c2.64-3.33,5.19-6.72,7.66-10.18L454.74,393.19z M81.07,127.83
	l44.79-44.79l23.65,23.47l-44.79,44.79L81.07,127.83z M74.62,208.46c-1.16-1.2-1.81-2.81-1.81-4.48c0-1.67,0.65-3.28,1.81-4.48
	L197.26,76.58c1.22-1.2,2.86-1.88,4.57-1.88c0.85-0.01,1.69,0.16,2.47,0.48c0.78,0.32,1.5,0.8,2.09,1.4l17.92,17.92
	c1.12,1.22,1.74,2.82,1.74,4.48c0,1.66-0.62,3.26-1.74,4.48L101.76,225.93c-0.6,0.62-1.32,1.1-2.11,1.44
	c-0.79,0.33-1.64,0.51-2.5,0.51c-0.86,0-1.71-0.17-2.5-0.51c-0.79-0.33-1.51-0.82-2.11-1.44v0.45L74.62,208.46z M110.45,289.63
	c-1.2,1.16-2.81,1.81-4.48,1.81c-1.67,0-3.28-0.65-4.48-1.81l-17.92-17.92c-1.18-1.19-1.84-2.8-1.84-4.48
	c0-1.68,0.66-3.29,1.84-4.48l26.88-26.88l122.92-123.19l26.88-26.88c1.2-1.16,2.81-1.81,4.48-1.81c1.67,0,3.28,0.65,4.48,1.81
	l17.92,17.92c1.16,1.2,1.81,2.81,1.81,4.48c0,1.67-0.65,3.28-1.81,4.48L110.45,289.63z M185.35,232.47l44.79-44.79l134.39,133.31
	l-44.8,44.79L185.35,232.47z M289.45,467.82c-1.2,1.16-2.81,1.81-4.48,1.81s-3.28-0.65-4.48-1.81l-17.92-17.92
	c-1.16-1.2-1.81-2.81-1.81-4.48c0-1.67,0.65-3.28,1.81-4.48l176.58-176.58c0.58-0.63,1.29-1.13,2.07-1.47
	c0.79-0.34,1.64-0.51,2.5-0.5c0.85-0.01,1.69,0.16,2.47,0.48c0.78,0.32,1.5,0.8,2.09,1.4l17.92,17.92c0.62,0.59,1.1,1.3,1.42,2.09
	c0.33,0.79,0.48,1.63,0.46,2.48c0.01,0.85-0.16,1.69-0.48,2.47c-0.32,0.78-0.8,1.5-1.4,2.09l-26.88,26.88l-61.19,61.28
	L289.45,467.82z M352.61,476.87c-1.22,1.12-2.82,1.74-4.48,1.74c-1.66,0-3.26-0.62-4.48-1.74l-17.92-17.92
	c-1.18-1.19-1.84-2.8-1.84-4.48c0-1.68,0.66-3.29,1.84-4.48l122.38-122.47c1.25-1.21,2.92-1.88,4.66-1.88
	c1.71,0.01,3.35,0.68,4.57,1.88l17.92,17.92c0.6,0.6,1.08,1.31,1.4,2.09c0.32,0.78,0.49,1.63,0.48,2.47
	c-0.03,0.83-0.22,1.65-0.58,2.41c-0.35,0.75-0.86,1.43-1.49,1.98l-0.36-0.18L352.61,476.87z"/>
<path class="st5" d="M499.02,166.44v121.29h-57.13v-35.7v-99.97v-21.42h39.66c-4.34-7.39-9.05-14.53-14.09-21.42h-36.28
	c-2.84,0-5.57,1.13-7.57,3.14c-2.01,2.01-3.14,4.73-3.14,7.57v2.45c-7.52-3.87-15.41-6.96-22.98-11.6
	c-0.15-0.12-0.29-0.23-0.45-0.33c-15.88-8.65-26.9-12.76-32.25-17.85c-5.34-5.09-8.59-12.03-8.59-33.36
	c0-14.55,0.05-26.76-3.79-37.6c-0.06-0.16-0.13-0.32-0.19-0.48c-15.64-5.97-32.02-10.45-48.96-13.27
	c-7.8,4.57-14.45,11.6-19.36,20.11c-8.88,15.36-13.39,35.8-13.39,59.8c0,8.53,1.85,15.41,4.02,21.42h-25.44
	c-26.75,0-49.99,17.97-49.99,42.85v99.97c0,24.87,23.23,42.85,49.99,42.85h142.82c10.47,0,20.35-2.75,28.56-7.59v11.16
	c0,2.84,1.13,5.56,3.14,7.57c2.01,2.01,4.73,3.14,7.57,3.14h78.55c0.77,0,1.54-0.09,2.28-0.25c3.06-15.82,4.69-32.15,4.69-48.87
	C516.7,227,510.43,195.43,499.02,166.44z M420.47,252.03c0,11.57-10.72,21.42-28.56,21.42H249.09c-17.84,0-28.56-9.85-28.56-21.42
	v-99.97c0-11.57,10.72-21.42,28.56-21.42l42.85,0c2.1,0.01,4.15-0.6,5.9-1.75c1.75-1.15,3.13-2.79,3.96-4.71s1.08-4.05,0.72-6.11
	c-0.36-2.06-1.33-3.98-2.77-5.5c0,0-7.81-7.93-7.81-24.77c0-21.22,4.34-38.27,10.6-49.09c6.26-10.82,13.18-15.17,21.53-15.17
	c3.47,0,4.78,0.66,5.58,1.23c0.8,0.57,1.65,1.43,2.57,4.02c1.84,5.18,2.57,16.23,2.57,30.46c0,23.89,4.86,39.03,15.17,48.87
	c10.32,9.84,22.51,13.41,36.82,21.2v-0.11c10.97,6.64,21.18,10.48,27,13.84c2.96,1.71,4.64,3.22,5.47,4.35
	c0.83,1.14,1.23,2.01,1.23,4.69V252.03z"/>
<path class="st2" d="M436.28,298.21l-1.94-2.18c-3.46-4.1-13.07-16.54-16.12-25.06c-3.07-8.69-8.25-16.49-15.07-22.7
	c-6.82-6.21-15.07-10.63-24.02-12.88c5.45-27.41,2.81-29.87,0-32.48c-1.13-1.05-2.51-1.8-4-2.18c-1.5-0.38-3.06-0.38-4.56,0
	c-9.65,2.18-42.88,25.49-50.74,44.4c-2.05,4.97-8.5,10.35-15.93,16.56c-13.94,11.74-33.09,27.76-40.55,56.49
	c-2.33,8.72-12.53,18.78-25.34,31.42c-28.51,27.81-68.63,67.2-80.97,145.2c5.17,2.17,10.42,4.17,15.76,6
	c11.08-75.26,49.46-112.87,76.69-139.46c14.66-14.42,26.28-25.73,29.74-39.11c6.12-23.57,21.59-36.49,35.21-47.93
	c9.11-7.6,16.97-14.16,20.59-22.85c3.99-9.56,19.19-22.31,29.76-29.43c-0.87,5.56-2.18,12.29-3.44,18.24l-1.98,9.02l9.19,0.89
	c7.59,0.65,14.84,3.46,20.88,8.09c6.05,4.63,10.65,10.9,13.26,18.05c3.51,9.87,11.98,21.33,16.43,26.93
	c-2.46,6.54-10.89,21.13-24.38,22.11c-3.49,0.19-6.9,1.09-10.03,2.63c-3.13,1.55-5.92,3.71-8.18,6.37
	c-10,11.66-8.82,30.13-8.71,32.2v0.68l0.15,0.68c15.25,60.13,13.07,67.76-1.74,117.37c-0.44,1.49-0.84,2.95-1.23,4.41
	c6.98-3.35,13.78-7.01,20.39-10.96c12.54-43.27,13.34-56.75-1.12-114.11c-0.2-4.36,0.31-14.4,4.81-19.61
	c0.86-0.99,1.91-1.78,3.09-2.34c1.18-0.56,2.47-0.87,3.77-0.9c25.99-1.79,40.33-31.18,40.33-40.55V298.21z"/>
<g class="st6">
	<path class="st7" d="M315.62,437.44c-44.34-22.18-95.12,18.37-97.26,20.11c-0.84,0.68-1.53,1.51-2.05,2.46
		c-0.51,0.95-0.84,1.99-0.95,3.06c-0.11,1.07-0.01,2.15,0.29,3.19c0.31,1.03,0.81,1.99,1.49,2.83c0.68,0.84,1.51,1.53,2.46,2.05
		c0.95,0.51,1.99,0.84,3.06,0.95c1.07,0.11,2.15,0.01,3.19-0.29c1.03-0.31,1.99-0.81,2.83-1.49c0.44-0.35,44.62-35.67,79.61-18.17
		c6.64,3.31,10.02,8.93,10.63,17.67c0.78,11.21-3.32,25.21-9.77,38.99c6.75-1.46,13.39-3.18,19.93-5.16
		c4.42-12.16,6.89-24.25,6.14-34.97C334.22,454.17,327.43,443.36,315.62,437.44z"/>
	<path class="st7" d="M101.8,462.89c-1.4-33.87,3.64-66.03,15.66-85.15c7.12-11.29,15.66-16.47,26.14-15.88
		c7.76,0.46,12.83,2.77,15.56,7.08c5.99,9.52,0.81,27.45-1.7,33.55c-0.84,2.02-0.83,4.29,0.01,6.31c0.84,2.02,2.45,3.62,4.47,4.46
		s4.29,0.83,6.31-0.01c2.02-0.84,3.62-2.45,4.46-4.47c1.24-3.05,11.96-30.22,0.46-48.54c-3.9-6.21-12-13.81-28.54-14.77
		c-16.54-0.96-30.74,7.19-41.03,23.53c-11.94,18.97-17.94,48.38-18.32,80.22C90.59,454,96.11,458.56,101.8,462.89z"/>
</g>
<g class="st3">
	<path class="st8" d="M474.79,372.59c-9.41-11.4-21.5-20.79-36.28-28.84c-3.36-2.01-6.72-3.35-10.75-4.69
		c1.34-3.35,2.69-6.71,4.03-10.06c6.05-17.44,9.41-34.2,10.08-50.96c0.67-16.76-2.02-32.19-8.06-45.6
		c-6.05-14.08-14.78-26.15-26.88-34.87c-11.42-8.72-25.53-14.08-40.99-15.42c-14.78-1.34-30.23,0.67-46.36,6.04
		c-15.45,5.36-30.91,13.41-45.69,24.14c-14.78,11.4-28.89,24.81-40.31,40.91c-11.42,16.09-20.83,32.86-27.55,50.29
		c-6.05,17.44-9.41,34.2-10.08,50.97c-0.67,16.76,2.02,32.19,8.06,45.6c0.67,2.01,2.02,4.02,2.69,6.04
		c-0.67,1.34-1.34,2.68-2.02,4.02c-6.05,14.08-8.06,28.84-6.05,42.92c2.02,14.75,8.06,28.16,17.47,40.24
		c6.95,8.42,15.38,15.74,25.27,22.24c6.21,0.45,12.48,0.69,18.81,0.69c4.75,0,9.46-0.14,14.15-0.4c-5.25-1.87-10.34-4.01-15.22-6.44
		c-24.19-12.07-39.64-30.18-45.02-50.96c0.67-0.67,1.34-1.34,2.69-2.01c1.34-0.67,2.69-2.01,3.36-2.68c2.69-1.34,4.7-3.35,7.39-4.69
		l0.67-0.67c0,0,0.67,0,0.67-0.67l2.02-0.67c0.67,0,1.34-0.67,2.02-0.67c0.67,0,1.34-0.67,2.02-0.67c1.34-0.67,2.69-1.34,4.03-2.01
		l2.02-0.67h0.67c0.67,0,0.67,0,1.34-0.67c5.38-2.01,11.42-3.35,16.8-4.69l2.02-0.67h1.34h1.34c1.34,0,2.69-0.67,4.03-0.67
		l4.03-0.67c0.67,0,1.34,0,2.02,0h2.02c6.05-0.67,11.42-0.67,17.47,0h1.34h0.67c0.67,0,1.34,0,2.02,0l4.03,0.67
		c1.34,0,2.02,0,3.36,0.67h0.67h2.02c0.67,0,0.67,0,1.34,0h1.34l4.03,0.67c0.67,0,0.67,0,1.34,0h1.34l2.02,0.67l2.02,0.67h1.34
		c0.67,0,0.67,0,1.34,0l2.69,0.67l1.34,0.67c2.69,0.67,5.38,1.34,8.06,2.68l4.03,1.34c0.67,0,1.34,0.67,2.02,0.67l2.02,0.67
		c6.05,1.34,12.09,2.68,18.14,4.02h2.02c0.67,0,1.34,0,2.02,0c1.34,0,3.36,0,4.7,0.67c0.67,0,1.34,0,2.02,0s1.34,0,2.69,0
		c1.34,0,3.36,0,4.7,0c3.36,0,6.05,0,9.41-0.67c1.34,0,3.36,0,4.7-0.67c1.34,0,3.36-0.67,4.7-0.67c0.67,0,1.34,0,2.02-0.67h1.34
		h1.34c0.67,0,1.34-0.67,2.02-0.67c0.67,0,1.34-0.67,2.02-0.67c0.67,0,1.34-0.67,2.02-0.67l1.34-0.67c0.67,0,0.67,0,1.34-0.67
		c0.67,0,1.34-0.67,2.02-0.67l2.02-0.67c0.67,0,1.34-0.67,2.02-0.67c0.67,0,0.67,0,1.34-0.67l1.34-0.67
		c1.34-0.67,2.69-1.34,4.03-2.01c2.69-1.34,5.38-2.68,8.06-4.69c5.37-3.35,10.75-6.71,15.45-10.73c4.7-4.02,9.41-8.05,13.44-12.74
		c0.67-1.34,2.02-2.01,2.69-3.35c0.67-1.34,2.02-2.68,2.69-3.35c0.03-0.06,0.08-0.12,0.11-0.18c-1.94,1.74-4.32,3.04-6.16,4.88
		c-4.7,3.35-9.41,6.71-14.78,9.39c-4.7,2.68-10.08,5.36-15.45,8.05c-2.69,1.34-5.38,2.01-8.06,3.35c-1.34,0.67-2.69,0.67-4.03,1.34
		l-0.67,0.67h-0.67c-0.67,0-1.34,0.67-2.02,0.67l-2.02,0.67c-0.67,0-1.34,0.67-2.02,0.67h-1.34h-1.34c-0.67,0-1.34,0.67-2.02,0.67
		c-2.69,0.67-5.38,1.34-8.06,2.01c-2.69,0.67-5.38,0.67-8.06,1.34c-0.67,0-1.34,0-2.02,0c-0.67,0-1.34,0-2.02,0h-2.02
		c-0.67,0-1.34,0-2.02,0c-1.34,0-2.69,0-4.03,0c-0.67,0-1.34,0-2.02,0s-1.34,0-2.02,0c-1.34,0-2.69,0-4.03,0c-0.67,0-1.34,0-2.02,0
		h-2.02h-1.34c-0.67,0-0.67,0-1.34,0h-2.02c-0.67,0-1.34,0-2.02,0c-0.67,0-1.34,0-2.02,0h-2.02c-0.67,0-1.34,0-2.02-0.67l-2.02-0.67
		c-0.67,0-0.67,0-1.34,0h-1.34l-2.02-1.34c-0.67,0-1.34-0.67-2.02-0.67l-2.69-0.67l-2.02-0.67c-2.69-0.67-6.05-1.34-8.73-2.01
		l-4.03-0.67c-0.67,0-0.67,0-1.34,0h-1.34l-2.02-0.67l-2.02-0.67h-0.67c-0.67,0-0.67,0-1.34,0l-5.38-0.67h-1.34
		c-0.67,0-0.67,0-1.34,0h-2.02c-1.34,0-3.36,0-4.7,0h-4.7c-0.67,0-1.34,0-2.02,0h-2.02c-6.05,0-12.09,0.67-18.14,1.34h-2.02
		c-0.67,0-1.34,0-2.02,0.67l-4.7,0.67c-1.34,0-2.69,0.67-4.7,0.67h-1.34h-1.34l-2.02,0.67c-1.34,0-2.02,0.67-3.36,0.67
		c-4.7,1.34-9.41,3.35-13.44,5.36c-0.67,0-1.34,0.67-2.02,0.67l-2.02,0.67c-1.34,0.67-2.69,1.34-4.03,2.01
		c-0.67,0.67-1.34,0.67-2.02,1.34c-0.67,0.67-1.34,0.67-2.02,1.34l-2.02,1.34l-0.67,0.67l-0.67,0.67c-2.69,1.34-4.7,3.35-7.39,5.36
		c-1.34,0.67-2.02,2.01-3.36,2.68c-0.67,0.67-1.34,1.34-2.02,2.01c-1.34-2.01-2.02-3.35-2.02-5.36c-1.34-10.06,0-20.79,3.36-30.18
		c2.02-4.69,4.03-10.06,6.72-14.75c4.7-8.05,11.42-16.09,19.48-23.47c4.03-3.35,7.39-6.71,12.09-10.06
		c6.72-4.69,13.44-9.39,21.5-12.74c17.47-8.72,36.95-14.75,57.78-17.44c25.53-4.02,51.06-2.01,73.91,4.69
		c4.7,1.34,9.41,2.68,13.44,4.69c3.36,1.34,6.72,2.68,10.08,4.69c20.16,10.73,34.94,24.81,42.33,41.58v0.67
		c-0.67,0.67-0.67,0.67-1.34,1.34c-0.35,0.17-0.65,0.39-0.93,0.63c0.24,0.73,0.47,1.46,0.7,2.22c4-5.93,7.74-12.04,11.24-18.31
		C480.73,380.91,477.97,376.67,474.79,372.59z M288.68,321.63c-1.34,0.67-2.69,2.01-3.36,2.68c-0.67,0.67-1.34,1.34-2.02,1.34
		c-0.67,0.67-1.34,1.34-2.02,1.34c-1.34,1.34-2.02,2.01-3.36,3.35c-2.02,2.01-4.03,4.69-6.05,6.71c-0.67,1.34-2.02,2.68-2.69,4.02
		c-0.67,1.34-2.02,2.68-2.69,4.02c-0.67,0.67-0.67,1.34-1.34,2.01l-0.67,0.67l-0.67,2.68c-12.09,6.71-22.84,14.08-31.58,22.8
		c-6.72,6.04-12.09,12.07-16.8,18.78c-3.36-10.73-5.38-23.47-5.38-36.21c0.67-30.85,13.44-64.38,34.94-93.21
		c21.5-28.84,49.72-50.29,79.28-60.35c25.53-8.72,49.72-7.38,68.53,3.35c0,0,0,0,0,0.67c0,1.34,0,2.01-0.67,3.35
		c0,1.34-0.67,2.68-0.67,4.02c-0.67,2.68-1.34,6.04-2.02,8.72v1.34c0,0.67,0,0.67,0,1.34l-0.67,2.01c0,0.67-0.67,1.34-0.67,2.01
		c0,0.67-0.67,1.34-0.67,2.01c-0.67,1.34-1.34,2.68-1.34,4.02l-0.67,2.01c0,0.67-0.67,1.34-0.67,2.01
		c-2.69,5.36-5.38,10.06-8.73,15.42l-1.34,2.01l-0.67,0.67l-0.67,0.67c-0.67,1.34-2.02,2.68-2.69,3.35l-2.69,3.35
		c-0.67,0.67-0.67,1.34-1.34,1.34l-2.69,1.34c-4.03,4.69-8.06,8.72-12.09,12.07l-1.34,1.34c-0.67,0.67-1.34,0.67-1.34,1.34
		l-3.36,2.68c-0.67,0.67-2.02,1.34-2.69,2.01l-0.67,0.67l-2.02,1.34l-0.67,0.67l-0.67,0.67l-3.36,2.68l-0.67,0.67l-2.02,0.67
		l-2.02,1.34l-2.02,1.34l-0.67,0.67l-0.67,0.67l-4.03,2.01c-2.69,1.34-4.7,2.68-7.39,4.02l-4.03,2.01
		c-0.67,0.67-1.34,1.34-2.02,1.34l-2.02,1.34c-5.38,3.35-10.75,6.71-15.45,10.06l-2.02,1.34
		C290.02,320.96,289.35,320.96,288.68,321.63z M414.32,335.04c-8.06-2.68-16.8-4.69-25.53-6.04c-18.81-2.68-37.63-2.68-57.11,0
		c-13.44,2.01-26.88,5.36-39.64,9.39c0,0,0-0.67,0.67-0.67c0.67-0.67,0.67-1.34,1.34-1.34c0.67-0.67,0.67-1.34,1.34-1.34
		c0.67-0.67,2.02-2.01,2.69-2.68c0.67-0.67,1.34-0.67,1.34-1.34l1.34-1.34l0.67-0.67l0.67-0.67l1.34-1.34
		c0.67-0.67,1.34-0.67,1.34-1.34c0.67-0.67,1.34-0.67,1.34-1.34l2.02-1.34c0.67-0.67,1.34-0.67,2.02-1.34l2.02-1.34l0.67-0.67
		l0.67-0.67l2.02-1.34c0.67-0.67,1.34-0.67,2.02-1.34l4.03-2.01c2.69-1.34,5.38-3.35,8.06-4.69l3.36-2.68l0.67-0.67l0.67-0.67
		l2.02-1.34l2.02-1.34l0.67-0.67l0.67-0.67l3.36-2.68l0.67-0.67l0.67-0.67l2.02-1.34c1.34-1.34,2.02-2.01,3.36-3.35l3.36-3.35
		c0.67-0.67,1.34-1.34,1.34-1.34l1.34-1.34c4.03-4.02,8.06-8.72,12.09-14.08l1.34-2.01c0.67-0.67,0.67-1.34,1.34-2.01l2.69-4.02
		c0.67-1.34,1.34-2.68,2.69-4.02l0.67-0.67l0.67-0.67l1.34-2.01c2.69-5.36,5.38-10.73,7.39-16.76c0-0.67,0.67-1.34,0.67-2.01
		l0.67-2.01c0.67-1.34,0.67-2.68,1.34-4.02c0-0.67,0.67-1.34,0.67-2.01c0-0.67,0.67-1.34,0.67-2.01l0.67-2.01c0-0.67,0-0.67,0-1.34
		v-1.34c0.67-2.68,1.34-6.04,1.34-8.72c1.34-2.68,1.34-4.02,2.02-6.04c0-0.67,0-2.01,0-2.68c1.34,0.67,3.36,2.01,4.7,3.35
		c19.48,14.08,29.56,38.89,28.89,69.07C427.09,297.49,422.39,316.26,414.32,335.04z"/>
	<path class="st8" d="M468.19,403.93c0.18-0.17,0.39-0.31,0.56-0.49c1-0.5,1.63-1.36,2.43-2.05c-0.14-0.43-0.28-0.88-0.42-1.3
		C470.12,401.37,468.88,402.65,468.19,403.93z"/>
</g>
<g class="st3">
	<path class="st8" d="M306.61,483.57c3.82,8.53,13.83,12.34,22.36,8.52c8.53-3.82,12.34-13.83,8.52-22.36
		c-3.82-8.53-13.83-12.34-22.36-8.52C306.6,465.03,302.79,475.05,306.61,483.57z"/>
	<path class="st8" d="M352.92,386.62c2.82,1.8,6.11,2.72,9.45,2.64c3.34-0.07,6.59-1.14,9.32-3.05c2.74-1.92,4.84-4.61,6.05-7.72
		c1.61-4.17,1.51-8.81-0.29-12.9c-1.8-4.09-5.14-7.31-9.31-8.94c-3.11-1.22-6.52-1.48-9.78-0.76c-3.26,0.72-6.24,2.39-8.56,4.8
		c-2.31,2.41-3.86,5.46-4.44,8.75c-0.58,3.29-0.18,6.68,1.17,9.74C347.88,382.23,350.1,384.83,352.92,386.62z"/>
	<path class="st8" d="M417.29,370.7c2.8-7.31,2.58-15.44-0.61-22.59c-3.19-7.15-9.09-12.75-16.4-15.56l-144.15-55.32
		c-3.62-1.39-7.48-2.05-11.35-1.95c-3.88,0.1-7.69,0.96-11.24,2.54c-3.54,1.58-6.74,3.83-9.41,6.65c-2.67,2.81-4.76,6.12-6.15,9.74
		l-55.32,144.15c-2.8,7.31-2.59,15.43,0.6,22.59c3.18,7.15,9.07,12.75,16.38,15.56L281,515.42c6.71-0.53,13.35-1.32,19.91-2.36
		l-117.96-45.27c-4.99-1.93-9.01-5.77-11.18-10.66c-2.17-4.89-2.31-10.44-0.4-15.44l55.32-144.15c1.47-3.81,4.06-7.09,7.43-9.4
		c3.37-2.31,7.36-3.56,11.44-3.56c2.48,0,4.93,0.46,7.24,1.36L397,341.26c4.97,1.94,8.98,5.77,11.13,10.66
		c1.09,2.42,1.68,5.03,1.75,7.68c0.07,2.65-0.4,5.29-1.36,7.76l-49.63,129.32c4.09-1.7,8.12-3.5,12.1-5.4L417.29,370.7z"/>
	<path class="st8" d="M274.76,331.97c-0.06-2.22-0.55-4.41-1.45-6.44c-0.9-2.03-2.19-3.86-3.81-5.39c-1.61-1.53-3.51-2.72-5.58-3.52
		c-3.12-1.2-6.53-1.45-9.8-0.72c-3.27,0.73-6.24,2.42-8.55,4.85c-2.31,2.43-3.84,5.48-4.41,8.78c-0.57,3.3-0.15,6.69,1.21,9.75
		c1.36,3.06,3.6,5.65,6.43,7.43c2.83,1.79,6.13,2.69,9.47,2.61c3.35-0.09,6.59-1.17,9.33-3.1s4.83-4.63,6.03-7.76
		C274.44,336.4,274.82,334.19,274.76,331.97z"/>
	<path class="st8" d="M280.93,418.84c2.83,1.78,6.13,2.69,9.47,2.6c3.35-0.09,6.59-1.17,9.32-3.1c2.73-1.93,4.83-4.63,6.02-7.76
		c0.8-2.07,1.18-4.28,1.12-6.51c-0.06-2.22-0.55-4.41-1.46-6.44c-0.9-2.03-2.2-3.86-3.81-5.39c-1.61-1.53-3.51-2.72-5.59-3.51
		c-3.12-1.2-6.54-1.44-9.8-0.71c-3.26,0.74-6.24,2.43-8.54,4.86c-2.3,2.43-3.83,5.49-4.4,8.78c-0.57,3.3-0.14,6.69,1.22,9.75
		C275.86,414.47,278.1,417.06,280.93,418.84z"/>
	<path class="st8" d="M433.23,329.84c2.5,2.08,5.56,3.38,8.79,3.72c3.23,0.34,6.5-0.28,9.38-1.79c2.88-1.51,5.25-3.84,6.8-6.7
		c1.55-2.86,2.23-6.11,1.93-9.35c-0.19-2.15-0.81-4.24-1.81-6.16c-1-1.91-2.37-3.61-4.04-4.99c-1.66-1.38-3.58-2.42-5.64-3.07
		c-2.06-0.64-4.23-0.87-6.38-0.67c-3.24,0.29-6.32,1.54-8.85,3.59c-2.53,2.04-4.4,4.79-5.36,7.9c-0.97,3.11-0.99,6.43-0.07,9.55
		C428.91,324.98,430.74,327.75,433.23,329.84z"/>
	<path class="st8" d="M486.41,237.9c-0.34-3.77-1.42-7.44-3.18-10.79c-1.76-3.35-4.16-6.33-7.07-8.76
		c-2.91-2.43-6.26-4.26-9.88-5.39s-7.42-1.53-11.19-1.19l-149.52,13.66c-7.63,0.69-14.67,4.37-19.59,10.24
		c-4.91,5.87-7.3,13.46-6.63,21.09l1.09,11.74c0.05,0.61,0.22,1.21,0.5,1.76c0.28,0.55,0.67,1.03,1.14,1.42
		c0.47,0.39,1.02,0.69,1.6,0.87c0.59,0.18,1.21,0.24,1.82,0.18c1.23-0.11,2.37-0.71,3.16-1.66c0.79-0.95,1.18-2.17,1.07-3.41
		l-1.06-11.74c-0.24-2.56,0.04-5.14,0.8-7.6c0.77-2.45,2.01-4.73,3.66-6.7c1.65-1.97,3.67-3.6,5.96-4.78
		c2.28-1.19,4.78-1.91,7.34-2.12l149.49-13.55c2.55-0.23,5.12,0.04,7.57,0.8c2.45,0.76,4.72,2,6.68,3.64
		c1.97,1.64,3.59,3.65,4.78,5.92c1.19,2.27,1.91,4.75,2.14,7.3l12.31,136.33c2.83-5.62,5.46-11.36,7.87-17.2L486.41,237.9z"/>
	<path class="st8" d="M468.28,409.97l-48.79,4.42c-1.19,0.13-2.28,0.71-3.05,1.62c-0.77,0.91-1.17,2.08-1.11,3.27
		c0.06,1.19,0.57,2.31,1.44,3.14c0.86,0.83,2.01,1.29,3.2,1.3l0.42-0.03l40.31-3.73C463.3,416.68,465.83,413.36,468.28,409.97z"/>
	<path class="st8" d="M374.27,280.75c2.5,2.08,5.56,3.38,8.79,3.72c3.23,0.34,6.5-0.28,9.38-1.79c2.88-1.51,5.25-3.84,6.8-6.7
		c1.55-2.86,2.23-6.11,1.93-9.35c-0.4-4.34-2.5-8.35-5.85-11.14c-3.35-2.79-7.67-4.14-12.02-3.74c-3.24,0.29-6.32,1.54-8.85,3.59
		c-2.53,2.04-4.4,4.79-5.36,7.9c-0.97,3.11-0.99,6.43-0.07,9.55C369.94,275.89,371.77,278.66,374.27,280.75z"/>
	<path class="st8" d="M229.51,424.37c-1.62-1.53-3.52-2.73-5.6-3.53c-3.12-1.19-6.53-1.44-9.79-0.7c-3.26,0.74-6.23,2.43-8.53,4.86
		c-2.3,2.43-3.83,5.48-4.4,8.78c-0.57,3.3-0.14,6.68,1.22,9.74c1.36,3.06,3.59,5.64,6.42,7.43c2.83,1.79,6.12,2.7,9.46,2.61
		c3.34-0.08,6.59-1.16,9.32-3.08c2.73-1.93,4.84-4.62,6.04-7.74c0.8-2.08,1.19-4.29,1.13-6.52c-0.06-2.23-0.55-4.42-1.45-6.45
		C232.42,427.74,231.13,425.9,229.51,424.37z"/>
</g>
<path class="st2" d="M496.77,227.67c-59.61-27.11-96.67,1.48-114.32,22.6c0.06-22-4.56-42.75-16.4-63.24
	c-1.96-3.39-6.29-4.55-9.68-2.59c-3.39,1.96-4.55,6.29-2.59,9.68c10.97,18.98,17.33,40.32,13.09,75.57
	c-23.71-4.55-46.83-2.28-65.98,6.62c-24.35,11.32-41.31,32.55-49.04,61.39c-8.56,31.94-4.25,50.2-1.11,63.53
	c1.92,8.15,3.31,14.03,1.5,20.79c-2.08,7.78-5.76,12.75-9.66,18.01c-5.66,7.65-12.08,16.32-11.12,32.34
	c0.78,12.97,8.77,30.33,42.4,39.34c10.37,2.78,22.08,4.37,34.46,4.37c52.67,0,117.35-28.83,141.18-117.76
	c15.6-58.24-10.33-106.34-66.24-124.4c3.67-7.2,34.31-62.19,101.06-36.12c-20.87,39.84-63.69,23.27-65.57,22.52
	c-3.63-1.48-7.76,0.27-9.23,3.9c-1.47,3.63,0.27,7.76,3.9,9.23c7.13,2.9,16.96,5.22,27.64,5.22c21.35,0,46.08-9.29,59.33-41.87
	l2.56-6.3L496.77,227.67z M435.82,394.66c-23.93,89.29-97.73,119.58-158.28,103.36c-14.06-3.77-31.01-11.42-31.91-26.5
	c-0.66-10.87,3.13-15.98,8.36-23.05c4.3-5.81,9.18-12.39,11.96-22.78c2.73-10.2,0.73-18.71-1.4-27.71c-2.96-12.52-6.63-28.11,1-56.6
	c8.05-30.04,32.58-60.11,76.64-60.11c7.02,0,14.54,0.77,22.56,2.42c-1.59,8.82-3.74,18.4-6.56,28.93c-1.01,3.78,1.23,7.67,5.01,8.68
	c0.61,0.16,1.23,0.24,1.84,0.24c3.13,0,5.99-2.09,6.84-5.25c2.68-9.99,4.94-19.62,6.71-28.98
	C427.61,302.96,449.5,343.59,435.82,394.66z"/>
<g class="st9">
	<path class="st10" d="M412.59,55.48C352.2,73.95,267.11,100.37,221,114.68l-2.07,0.64l-6.5,2.02l-0.08-12.63v-1
		c-0.16-22.85-0.16-22.85,40.38-34.72l123.43-36.13c-4.98-2.54-10.06-4.91-15.23-7.13L249.64,58.32
		c-48.6,14.23-48.6,14.23-48.35,45.43v1l0.11,16.1c-37.3,12.23-37.15,17.56-35.8,61.75c0.7,23.07,1.75,57.68,2.62,91.49
		c0.86,33.48,1.55,66.65,1.55,87.96c0,20.71,0.76,26.11,0.41,26.11c-0.36,0-1.94-0.76-3.98-1.73c-1.83-0.87-3.93-1.88-6.64-2.91
		c-7.79-2.97-18.58-5.05-30.19-6.13c-11.81-1.11-24.57-1.2-35.91-0.15c-11.33,1.05-21.3,3.2-30.37,6.71
		c-7.31,2.82-14.18,6.65-20.47,11.29c1.95,3.15,3.96,6.27,6.05,9.33c5.63-4.23,11.78-7.71,18.36-10.25
		c8.08-3.12,17.08-5.06,27.41-6.01c10.69-0.98,22.74-0.9,33.92,0.15c10.63,1,20.39,2.85,27.28,5.48c2,0.77,4.02,1.73,5.77,2.57
		c3.31,1.59,5.89,2.82,8.76,2.82c8.58,0,10.72-7.71,10.72-37.26c0-20.17-0.71-53.78-1.6-88.22c-0.88-34.1-1.93-68.56-2.62-91.53
		c-1.05-34.4-1.22-40.5,24.79-49.68l0,0.02c0.18,29.01,0.41,68.49,0.54,109.71c0.09,28.71,0.14,58.28-0.32,85.67
		c-0.45,27.24-1.4,52.28-3.3,72.06c-1.87,19.45-4.65,33.69-8.42,44.91c-3.68,10.93-8.28,19.01-13.91,26.34
		c-5.82,7.57-12.64,14.31-20.27,20.04c-0.83,0.63-1.71,1.19-2.56,1.8c3.86,1.78,7.77,3.47,11.74,5.06
		c7.39-5.89,14.09-12.61,19.85-20.12c6.34-8.26,11.54-17.34,15.65-29.61c4.02-11.99,6.98-27.02,8.93-47.39
		c1.92-20.04,2.89-45.38,3.35-72.93c0.45-27.41,0.41-57.06,0.32-85.85c-0.14-43-0.38-84.07-0.57-113.35
		c2.99-0.94,6.21-1.95,9.69-3.03l2.07-0.64c48.59-15.09,139.91-43.44,198.99-61.48C419.77,60.96,416.21,58.18,412.59,55.48z"/>
	<path class="st10" d="M301.22,448.94c7.67,6.63,17.54,11.62,28.73,14.59c10.75,2.84,22.77,3.83,35.26,2.57
		c11.78-1.18,23.97-4.35,35.44-8.65c12.81-4.8,24.78-11.02,34.34-17.46c9.25-6.22,16.31-12.68,21.84-19.87
		c5.58-7.26,9.54-15.18,12.54-24.27c2.94-8.92,4.97-18.95,6.38-35.3c1.36-15.8,2.17-38.01,2.71-71.69
		c0.71-44.12,0.96-106.23,1.04-159.59c-3.48-5.79-7.18-11.44-11.1-16.92c-0.06,57.49-0.27,129.22-1.02,176.32
		c-0.53,33.03-1.33,54.98-2.71,70.9c-1.33,15.38-3.19,24.68-5.86,32.77c-2.64,7.95-6.03,14.8-10.77,20.96
		c-4.79,6.24-11.02,11.9-19.23,17.43c-8.88,5.99-20.07,11.79-32.03,16.27c-10.63,3.98-21.87,6.92-32.66,8
		c-11.15,1.12-21.83,0.25-31.35-2.27c-9.58-2.52-17.92-6.73-24.3-12.24c-5.9-5.06-10.36-11.59-12.94-18.93
		c-2.6-7.42-3.27-15.55-1.97-23.75c1.35-8.39,4.78-16.89,10.23-24.9c5.27-7.74,12.44-15.01,21.46-21.29
		c8.84-6.16,19.43-11.37,30.23-15.45c12.27-4.64,24.79-7.82,35.32-9.29c19.5-2.72,32.39,0.49,45.27,3.73l2.69-10.8
		c-13.91-3.48-27.83-6.97-49.49-3.94c-11.29,1.58-24.66,4.97-37.71,9.9c-11.63,4.39-23.07,10.02-32.66,16.71
		c-10.14,7.07-18.26,15.33-24.28,24.17c-6.38,9.36-10.41,19.4-12,29.43c-1.59,10.03-0.76,20.01,2.44,29.15
		C288.29,434.44,293.86,442.61,301.22,448.94z"/>
</g>
</svg>
