<svg width="814" height="74" viewBox="0 0 814 74" fill="none" xmlns="http://www.w3.org/2000/svg">
    <path d="M930 2.98784C893.334 2.98784 854.041 -0.972131 818 6.96516C793.351 12.3935 765.506 24.6309 744.42 38.7837C739.662 41.9769 734.5 51.5 735.5 59.5C736.058 63.9653 737.618 67.3287 741.5 69.5C764.845 82.557 777.822 39.5667 759.728 26.2552C719.96 -3.0026 669.841 13.0363 629.358 33.4143C590.691 52.8787 549.773 71 506 71C470.571 71 439.425 51.3577 405.457 43.2582C365.286 33.6797 325.496 29.316 284.272 29.8348C275.653 29.9432 219.337 40.0301 234.494 55.2896C240.934 61.7736 252.024 63.215 257.111 53.997C263.842 41.8001 253.399 32.0925 243.778 27.2495C211.696 11.1004 166.245 15.3178 132.173 21.2835C103.941 26.2266 77.0732 31.6245 48.2222 31.6245C34.617 31.6245 13.6723 30.5098 1.99994 22.6756" stroke="#EFB104" stroke-width="3" stroke-linecap="round"/>
</svg>
