<svg width="16" height="16" viewBox="0 0 16 16" fill="none" xmlns="http://www.w3.org/2000/svg">
    <path d="M13.5194 8.29715L7.44972 13.7042C5.91382 15.0797 3.84407 14.948 2.52172 13.7627C1.18295 12.5774 1.03511 10.7482 2.58743 9.36539L10.8829 1.97554C11.7864 1.1707 13.1333 1.03168 14.0122 1.81457C14.891 2.60477 14.7267 3.79739 13.8233 4.59491L5.68385 11.8604C5.32246 12.1896 4.89537 12.0945 4.63254 11.875C4.39436 11.6482 4.2958 11.2677 4.65719 10.9385L10.3326 5.88265C10.6201 5.61925 10.6365 5.23878 10.3572 4.99001C10.078 4.75588 9.65089 4.76319 9.36342 5.01928L3.66337 10.0971C2.77633 10.8873 2.80919 12.0945 3.59767 12.7969C4.45185 13.5579 5.74134 13.5359 6.62838 12.7457L14.8089 5.45096C16.4022 4.03884 16.3447 2.17309 14.9485 0.92925C13.5769 -0.28532 11.4496 -0.373121 9.85622 1.04632L1.51148 8.48739C-0.566491 10.3458 -0.426864 13.0091 1.47041 14.6993C3.35948 16.3748 6.35734 16.5065 8.43532 14.6554L14.546 9.21906C14.8253 8.97029 14.8253 8.51665 14.5378 8.28252C14.2668 8.01912 13.8068 8.0557 13.5194 8.29715Z" fill="currentColor"/>
</svg>
