<?xml version="1.0" encoding="utf-8"?>
<!-- Generator: Adobe Illustrator 24.0.1, SVG Export Plug-In . SVG Version: 6.00 Build 0)  -->
<svg version="1.1" id="Layer_1" xmlns="http://www.w3.org/2000/svg" xmlns:xlink="http://www.w3.org/1999/xlink" x="0px" y="0px"
	 viewBox="0 0 692.36 529.25" style="enable-background:new 0 0 692.36 529.25;" xml:space="preserve">
<style type="text/css">
	.st0{fill-rule:evenodd;clip-rule:evenodd;fill:url(#SVGID_1_);}
	.st1{fill-rule:evenodd;clip-rule:evenodd;fill:url(#SVGID_2_);}
	.st2{fill-rule:evenodd;clip-rule:evenodd;fill:url(#SVGID_3_);}
</style>
<linearGradient id="SVGID_1_" gradientUnits="userSpaceOnUse" x1="387.9197" y1="449.2201" x2="73.3666" y2="67.6801" gradientTransform="matrix(1 0 0 -1 0 565.2214)">
	<stop  offset="0" style="stop-color:#FFFFFF"/>
	<stop  offset="1" style="stop-color:#FFFFFF;stop-opacity:0"/>
</linearGradient>
<path class="st0" d="M291.23,199.49l-42.84,74.55l27.64-0.07c-3.38,24.8-10.95,48.89-22.45,71.21
	c-14.04,27.27-33.6,51.32-57.45,70.61c-24.95,19.67-53.73,33.91-84.5,41.81c-30.77,7.9-62.85,9.29-94.19,4.07
	c31.88,7.65,65,8.57,97.25,2.68c32.25-5.89,62.92-18.44,90.04-36.86c27.8-19.27,51.27-44.13,68.91-72.99
	c15.17-24.82,25.74-52.12,31.24-80.61l29.5-0.07L291.23,199.49z"/>
<linearGradient id="SVGID_2_" gradientUnits="userSpaceOnUse" x1="600.2493" y1="321.373" x2="485.7485" y2="108.3734" gradientTransform="matrix(1 0 0 -1 0 565.2214)">
	<stop  offset="0" style="stop-color:#FFFFFF"/>
	<stop  offset="1" style="stop-color:#FFFFFF;stop-opacity:0"/>
</linearGradient>
<path class="st1" d="M570.94,322.27l-22.15,38.55l14.29-0.03c-1.75,12.82-5.66,25.28-11.6,36.82c-7.26,14.1-17.37,26.53-29.7,36.51
	c-12.9,10.17-27.78,17.53-43.69,21.62c-15.91,4.08-32.5,4.8-48.7,2.11c16.48,3.96,33.61,4.43,50.28,1.39
	c16.67-3.04,32.53-9.54,46.55-19.06c14.37-9.96,26.51-22.81,35.63-37.74c7.84-12.83,13.31-26.95,16.15-41.68l15.25-0.04
	L570.94,322.27z"/>
<linearGradient id="SVGID_3_" gradientUnits="userSpaceOnUse" x1="446.6046" y1="334.9984" x2="19.6046" y2="117.4984" gradientTransform="matrix(1 0 0 -1 0 565.2214)">
	<stop  offset="0" style="stop-color:#FFFFFF"/>
	<stop  offset="1" style="stop-color:#FFFFFF;stop-opacity:0"/>
</linearGradient>
<path class="st2" d="M530.46,13.55l-80.11,139.43l51.7-0.12c-6.32,46.38-20.49,91.43-41.98,133.18
	c-26.25,51-62.84,95.98-107.44,132.05c-46.66,36.79-100.48,63.42-158.03,78.2c-57.55,14.78-117.55,17.37-176.15,7.61
	c59.62,14.31,121.56,16.02,181.88,5.01c60.31-11.01,117.67-34.49,168.38-68.94c51.99-36.03,95.88-82.52,128.87-136.49
	c28.37-46.41,48.13-97.48,58.42-150.74l55.18-0.13L530.46,13.55z"/>
</svg>
