<svg width="136" height="136" viewBox="0 0 136 136" fill="none" xmlns="http://www.w3.org/2000/svg">
	<g clip-path="url(#clip0_2748_10309)">
		<g opacity="0.2">
			<path d="M128.173 106.987C126.919 105.903 125.808 104.455 124.32 103.711C123.023 103.062 121.806 102.348 120.457 101.793C117.666 100.644 114.838 99.6187 112.052 98.4422C107.765 96.632 103.929 93.8115 99.858 91.5728C95.6312 89.248 91.0615 87.6166 86.8266 85.3363C81.7095 82.5809 76.374 80.2481 71.2913 77.4243C66.1632 74.5754 60.8553 72.0198 55.6629 69.289C49.8458 66.2297 44.2892 62.5102 38.2939 59.8226C36.8936 59.1949 35.6424 58.0159 34.3472 57.1884C32.4692 55.9885 30.4375 54.9439 28.6134 53.6699C27.1697 52.6616 25.739 51.646 24.3037 50.6262C23.239 49.8696 21.783 48.5257 20.5339 48.1688C18.8176 47.6784 17.0932 46.3351 15.2097 46.3351C14.6356 46.3351 14.0616 46.3351 13.4876 46.3351C13.046 46.3351 14.2663 46 13.4876 46C11.8407 46 10.2171 46.1092 8.58224 46.1675C6.77767 46.232 5.19349 47.0059 3.93746 48.2619C2.97998 49.2194 1.81505 50.3474 1.37772 51.6594C0.885201 53.1369 0.502758 54.8254 0.502758 56.3879C0.502758 57.9297 0.000121211 59.4973 0.000121211 61.0792C0.000121211 64.2611 1.14938 67.3319 2.93219 69.9592C4.35807 72.0605 5.84559 74.7187 8.00514 76.1584C9.05567 76.8588 10.1237 77.5491 11.2258 78.169C12.8687 79.0932 14.238 80.4878 15.9915 81.2593C17.1581 81.7726 18.4723 82.0343 19.6031 82.5997C21.4184 83.5073 23.1795 84.6386 24.9274 85.6714C25.9416 86.2707 27.0098 86.7306 28.0828 87.2258C28.9475 87.6249 29.7874 88.0861 30.5681 88.6314C32.2872 89.832 34.0638 90.8292 35.8552 91.9078C36.8294 92.4945 37.7052 93.0842 38.7034 93.5833C41.2279 94.8456 43.7423 96.1264 46.243 97.4462C48.8237 98.8082 51.1788 100.586 53.7734 101.951C56.6418 103.461 59.4598 105.105 62.2159 106.82C64.3934 108.174 66.5893 109.482 68.7874 110.803C70.4217 111.786 72.1755 112.52 73.8138 113.484C76.7815 115.231 79.4708 117.483 82.3494 119.376C85.1803 121.238 88.4643 122.719 91.6389 123.909C93.4075 124.572 95.1538 125.358 96.8794 126.125C98.4223 126.81 99.9952 127.41 101.534 128.098C102.327 128.453 103.633 128.31 104.466 128.256C106.108 128.15 107.725 127.57 109.315 127.186C112.597 126.394 115.923 125.804 119.089 124.617C120.166 124.213 121.413 123.684 122.384 123.062C123.665 122.242 124.47 121.039 125.576 120.056C126.188 119.513 126.856 118.177 127.168 117.412C127.583 116.398 127.78 115.34 128.173 114.322C129.315 111.366 128.484 108.459 126.833 105.982" stroke="white" stroke-width="2.47571" stroke-linecap="round"/>
			<path d="M91.8157 124.747C93.0371 125.71 94.0535 126.859 93.9938 128.471C93.9553 129.511 93.0165 130.735 92.1508 131.244C91.7826 131.461 91.4224 131.913 91.0618 132.194C90.6158 132.541 90.2091 132.588 89.6748 132.752C88.3831 133.15 87.1509 132.906 85.9609 132.371C83.7172 131.361 80.1806 129.23 79.7617 126.507C79.6194 125.582 79.2973 124.245 79.8361 123.407C80.3171 122.659 81.5939 121.676 82.4331 121.396" stroke="white" stroke-width="2.47571" stroke-linecap="round"/>
			<path d="M22.4514 86.2117C23.4493 86.5376 24.9163 87.2158 24.9646 88.5201C25.0203 90.0237 24.6045 90.7112 23.4567 91.7315C22.1922 92.8555 20.6727 94.0504 18.9422 94.254C18.2715 94.3329 17.419 94.6346 16.792 94.254C15.9915 93.7679 15.1699 93.3518 14.4464 92.746C13.4269 91.8925 12.728 90.8143 12.0635 89.693C11.4664 88.6853 11.193 85.9341 11.6539 84.8806C12.1091 83.8403 13.2144 84.2089 13.9903 83.6054C14.4697 83.2326 15.3207 82.8608 15.9171 82.8608" stroke="white" stroke-width="2.47571" stroke-linecap="round"/>
			<path d="M17.425 89.5624C18.0238 90.3064 18.4226 90.8196 18.6816 91.7405C18.8442 92.3187 19.0942 93.3876 19.5659 93.8069C20.0689 94.254 19.3285 92.4816 19.1843 91.8243C18.9786 90.8876 18.552 90.2171 18.0952 89.3949C17.4999 88.3233 15.6075 87.9116 14.6139 87.3471C13.9548 86.9725 13.6518 86.8817 12.9012 86.8817" stroke="white" stroke-width="2.47571" stroke-linecap="round"/>
			<path d="M89.135 132.454C89.0666 129.445 86.4841 127.386 84.1458 125.827C83.3502 125.297 82.514 125.417 81.5954 125.417" stroke="white" stroke-width="2.47571" stroke-linecap="round"/>
			<path d="M2.41564 51.9445C2.41564 56.3627 3.56589 60.3098 5.50178 64.2891C8.75833 70.9831 15.2284 75.9116 21.8805 79.034C27.1529 81.5088 32.2682 84.4195 37.5936 86.7594C41.7105 88.5684 45.7752 90.5981 49.797 92.609C52.9795 94.2002 55.9207 96.4494 58.8739 98.4182C60.3198 99.3821 62.1253 99.9897 63.4123 101.141C63.7161 101.413 64.3427 101.529 64.7234 101.686C66.076 102.245 67.258 103.091 68.4954 103.864C71.6716 105.849 74.8017 107.823 77.7942 110.077C81.5958 112.94 85.8165 114.929 89.9169 117.298C91.6111 118.277 92.5654 119.024 94.3508 119.818C95.3066 120.243 96.7287 121.027 97.5414 121.433C98.8542 122.089 102.627 123.261 104.108 123.289C104.108 123.289 112.574 124.015 113.335 124.015C114.135 124.015 115.021 123.851 115.695 124.338C116.66 125.034 117.955 125.649 119.185 125.649C120.467 125.649 120.286 123.716 121.141 123.289" stroke="white" stroke-width="2.47571" stroke-linecap="round"/>
		</g>
	</g>
	<defs>
		<clipPath id="clip0_2748_10309">
			<rect width="136" height="136" rx="68" fill="white"/>
		</clipPath>
	</defs>
</svg>
