<svg width="136" height="136" viewBox="0 0 136 136" fill="none" xmlns="http://www.w3.org/2000/svg">
	<g clip-path="url(#clip0_2748_10390)">
		<circle cx="68" cy="68" r="68" />
		<path d="M102.218 85.2421C108.516 84.8092 111.99 77.6875 111.99 75.4175V74.689L111.52 74.161C110.681 73.1685 108.353 70.1541 107.614 68.09C106.869 65.9831 105.614 64.0933 103.962 62.5891C102.309 61.0848 100.31 60.013 98.1428 59.469C99.4626 52.8278 98.8238 52.2313 98.1428 51.5978C97.8688 51.343 97.5353 51.1612 97.1728 51.069C96.8103 50.9767 96.4304 50.977 96.068 51.0698C93.7293 51.5978 85.6786 57.2465 83.7728 61.8288C83.2765 63.0325 81.7139 64.3365 79.9137 65.841C76.535 68.6865 71.8946 72.5667 70.0891 79.53C69.5242 81.6417 67.0536 84.0806 63.9494 87.1426C55.2915 95.5893 42.2044 108.423 43.5031 138.588C43.5401 139.105 43.777 139.587 44.1634 139.931C44.5499 140.276 45.0554 140.456 45.5727 140.434C46.0901 140.412 46.5785 140.19 46.9343 139.813C47.29 139.437 47.4852 138.937 47.4783 138.419C46.2535 110.023 58.5646 97.9649 66.7315 89.9881C70.2844 86.4932 73.0982 83.7533 73.9376 80.5119C75.4211 74.7998 79.1693 71.6693 82.4688 68.8977C84.6755 67.0552 86.5813 65.4662 87.4577 63.3598C88.4238 61.0422 92.1086 57.9539 94.669 56.2276C94.4579 57.5738 94.1411 59.2051 93.8349 60.6463L93.3545 62.8319L95.5823 63.0483C97.4215 63.2064 99.1773 63.8866 100.643 65.0089C102.108 66.1313 103.223 67.649 103.855 69.3834C104.705 71.7748 106.758 74.5517 107.835 75.9084C107.239 77.4922 105.196 81.0293 101.928 81.2668C101.083 81.3129 100.256 81.5299 99.4978 81.9046C98.7392 82.2794 98.0645 82.8041 97.5145 83.4471C95.0914 86.2715 95.3765 90.7483 95.4029 91.2498V91.4135L95.4398 91.5771C99.1352 106.148 98.6073 107.995 95.0175 120.016C90.9314 133.742 97.2981 141.133 97.5673 141.45L98.1639 142.115H99.0561C99.5883 142.09 100.12 142.179 100.615 142.375C101.11 142.572 101.558 142.872 101.928 143.255C102.762 144.2 103.24 145.406 103.279 146.666H90.5302C90.2605 146.652 89.9909 146.693 89.7376 146.786C89.4844 146.88 89.2528 147.024 89.0571 147.21C88.8613 147.396 88.7054 147.62 88.5989 147.868C88.4924 148.116 88.4374 148.383 88.4374 148.653C88.4374 148.923 88.4924 149.19 88.5989 149.438C88.7054 149.686 88.8613 149.91 89.0571 150.096C89.2528 150.282 89.4844 150.426 89.7376 150.52C89.9909 150.614 90.2605 150.655 90.5302 150.641H103.586C104.526 150.653 105.435 150.302 106.124 149.661C106.812 149.02 107.227 148.138 107.281 147.199C107.377 144.735 106.499 142.332 104.837 140.51C103.591 139.205 101.922 138.386 100.128 138.198C98.9294 136.392 96.0205 130.701 98.8607 121.151C102.646 108.402 103.179 105.815 99.3887 90.7799C99.3411 89.7241 99.4626 87.2904 100.555 86.0287C100.763 85.7898 101.018 85.5965 101.304 85.4611C101.591 85.3258 101.902 85.2512 102.218 85.2421Z" fill="white" fill-opacity="0.2"/>
		<path d="M87.5683 115.793C87.3254 112.282 85.6783 109.664 82.817 108.228C72.0738 102.853 59.768 112.678 59.2507 113.1C59.0479 113.265 58.8795 113.467 58.755 113.697C58.6305 113.926 58.5525 114.178 58.5252 114.437C58.498 114.697 58.5222 114.959 58.5964 115.21C58.6706 115.46 58.7934 115.693 58.9577 115.896C59.122 116.099 59.3246 116.267 59.554 116.391C59.7834 116.516 60.0351 116.594 60.2947 116.621C60.5542 116.648 60.8166 116.624 61.0669 116.55C61.3171 116.476 61.5502 116.353 61.753 116.189C61.8586 116.104 72.5648 107.547 81.0432 111.786C82.6534 112.588 83.4716 113.95 83.6195 116.067C84.1104 123.163 76.5664 134.877 71.7465 138.192C71.3796 138.436 71.104 138.795 70.9632 139.212C70.8225 139.629 70.8246 140.082 70.9691 140.498C71.1136 140.914 71.3924 141.27 71.7616 141.51C72.1308 141.75 72.5693 141.861 73.0083 141.825C74.2119 141.735 77.9918 141.883 79.5228 143.709C79.8182 144.092 80.0348 144.529 80.1598 144.995C80.2849 145.462 80.316 145.949 80.2513 146.428C77.0838 146.359 68.6371 146.254 47.6734 146.254C42.4998 146.254 38.9205 141.74 36.8299 137.95C29.9247 125.443 28.9111 103.139 34.8027 93.7627C36.529 91.0281 38.5985 89.7716 41.1378 89.9142C43.0171 90.025 44.2472 90.5846 44.9071 91.6299C46.3589 93.9369 45.1024 98.2817 44.4953 99.7599C44.293 100.25 44.2936 100.8 44.4971 101.29C44.7005 101.779 45.0902 102.168 45.5802 102.37C46.0702 102.573 46.6206 102.572 47.1102 102.369C47.5997 102.165 47.9884 101.776 48.1908 101.286C48.4917 100.546 51.089 93.9633 48.3016 89.5235C47.3566 88.0189 45.3928 86.1765 41.3859 85.9442C37.379 85.7119 33.9369 87.6863 31.4451 91.6457C24.7986 102.204 25.7436 126.093 33.3562 139.871C37.0939 146.65 42.0458 150.229 47.6787 150.229C76.7459 150.229 81.777 150.445 81.8245 150.445H81.8984C82.3405 150.445 82.7699 150.297 83.1188 150.026C83.4677 149.754 83.7163 149.375 83.8253 148.946C84.6436 145.752 84.216 143.139 82.5531 141.144C81.2263 139.678 79.4682 138.672 77.5325 138.272C82.6798 132.686 88.0698 122.967 87.5683 115.793Z" fill="white" fill-opacity="0.2"/>
	</g>
	<defs>
		<clipPath id="clip0_2748_10390">
			<rect width="136" height="136" rx="68" fill="white"/>
		</clipPath>
	</defs>
</svg>
