<svg width="136" height="136" viewBox="0 0 136 136" fill="none" xmlns="http://www.w3.org/2000/svg">
	<g clip-path="url(#clip0_2748_10301)">
		<path fill-rule="evenodd" clip-rule="evenodd" d="M83.2129 90.4808C83.5639 90.7175 83.907 90.9637 84.2418 91.2188C86.1479 92.7707 87.8344 94.5773 89.2528 96.5894C90.8001 98.941 91.8928 101.592 92.4423 104.407C93.5508 110.086 92.358 115.973 89.1256 120.775C86.7105 124.354 83.2869 127.137 79.2878 128.773C75.2887 130.409 70.8937 130.824 66.6584 129.966C62.4232 129.107 58.5379 127.014 55.494 123.95C52.45 120.887 50.384 116.991 49.5572 112.755C48.7304 108.519 49.18 104.133 50.849 100.152C52.5181 96.1708 55.3317 92.7735 58.934 90.3894C62.5364 88.0053 66.7658 86.7414 71.0874 86.7577C75.4089 86.774 79.6286 88.0696 83.2129 90.4808ZM94.7054 108.666C94.7197 104.365 93.5603 100.149 91.3623 96.4665L108.023 69.475C120.334 80.7047 125.691 95.7317 122.694 108.413C123.6 107.188 124.466 105.932 125.291 104.646C126.515 92.207 120.737 78.3638 109.012 67.8732L128.325 36.5859C127.994 35.9528 127.654 35.3256 127.305 34.7044L90.2383 94.7563C88.8762 92.867 87.248 91.1964 85.4116 89.7924C84.89 89.3629 84.3539 88.9503 83.8041 88.5554C81.4144 86.9947 78.756 85.8892 75.9633 85.2949L119.953 24.1245C119.527 23.6206 119.094 23.123 118.654 22.6318L93.3686 57.7759C73.7989 49.0229 52.803 52.9418 43.2119 67.144C40.06 71.817 38.2792 77.2769 38.0704 82.9073C37.967 86.2882 36.7061 89.5315 34.498 92.0964C32.29 94.6613 29.2681 96.3927 25.9365 97.0018C20.2829 97.8221 14.8573 99.7896 9.99399 102.783C9.8876 102.849 9.78153 102.915 9.67578 102.981C9.99456 103.511 10.3204 104.037 10.6531 104.558C10.7815 104.478 10.9105 104.398 11.04 104.319C15.708 101.476 20.9083 99.6152 26.3221 98.8503C30.0728 98.1672 33.4769 96.2237 35.9693 93.3424C38.4617 90.4611 39.8925 86.8152 40.0242 83.01C40.1819 77.7274 41.8208 72.5951 44.7544 68.1966C53.8283 54.7427 73.613 51.1167 92.2582 59.3192L73.7284 85.0738C71.3183 84.7952 68.8667 84.8863 66.4597 85.3558C61.8592 86.2531 57.6284 88.4925 54.3022 91.791C50.976 95.0894 48.7039 99.2986 47.773 103.887C46.8421 108.475 47.2942 113.235 49.0723 117.566C50.8504 121.898 53.8746 125.605 57.7624 128.22C62.9799 131.721 69.3753 133.012 75.5447 131.809C81.7141 130.605 87.1532 127.006 90.6681 121.802C93.285 117.918 94.69 113.347 94.7054 108.666ZM54.6073 115.587C55.9162 118.772 58.1414 121.498 61.0015 123.419C64.8367 125.997 69.5399 126.947 74.0765 126.061C78.6132 125.175 82.6116 122.526 85.1923 118.696C87.1169 115.839 88.1501 112.477 88.1614 109.035C88.1726 105.592 87.1613 102.223 85.2555 99.3546C83.3496 96.4859 80.6347 94.2461 77.4541 92.9183C74.2736 91.5905 70.7702 91.2344 67.3869 91.8951C64.0037 92.5557 60.8926 94.2034 58.4471 96.6299C56.0016 99.0563 54.3315 102.152 53.648 105.527C52.9645 108.901 53.2984 112.402 54.6073 115.587ZM70.7883 92.3684C74.0527 92.38 77.2403 93.3581 79.948 95.179V95.3074C83.5421 97.7471 86.0277 101.504 86.8652 105.763C87.7026 110.021 86.8244 114.438 84.4211 118.054C82.5983 120.758 80.0134 122.862 76.9933 124.099C73.9731 125.337 70.6534 125.652 67.454 125.005C64.2545 124.358 61.3191 122.778 59.0188 120.465C56.7186 118.151 55.1568 115.209 54.5312 112.009C53.9055 108.81 54.244 105.497 55.5038 102.489C56.7636 99.482 58.8882 96.9152 61.6088 95.1137C64.3295 93.3121 67.524 92.3568 70.7883 92.3684Z" fill="white" fill-opacity="0.2"/>
	</g>
	<defs>
		<clipPath id="clip0_2748_10301">
			<rect width="136" height="136" rx="68" fill="white"/>
		</clipPath>
	</defs>
</svg>
