<svg width="136" height="136" viewBox="0 0 136 136" fill="none" xmlns="http://www.w3.org/2000/svg">
	<path fill-rule="evenodd" clip-rule="evenodd" d="M112.381 119.522L109.52 116.662L101.542 124.64C101.053 125.128 100.472 125.513 99.8329 125.775C99.1938 126.036 98.5092 126.168 97.8187 126.164C97.1315 126.171 96.4499 126.039 95.8144 125.778C95.179 125.516 94.6026 125.129 94.1196 124.64L89.2842 119.805C88.868 119.386 88.532 118.894 88.293 118.354L84.4488 122.174C83.9658 122.663 83.3895 123.05 82.754 123.312C82.1185 123.573 81.4369 123.705 80.7497 123.697C80.0592 123.702 79.3746 123.57 78.7355 123.309C78.0964 123.047 77.5155 122.662 77.0264 122.174L72.191 117.339C71.2048 116.351 70.6509 115.012 70.6509 113.616C70.6509 112.22 71.2048 110.88 72.191 109.892L87.4709 94.6608L51.423 58.6128L36.2156 73.9411C35.7279 74.4323 35.1479 74.8222 34.5089 75.0882C33.8699 75.3543 33.1845 75.4913 32.4923 75.4913C31.8001 75.4913 31.1148 75.3543 30.4758 75.0882C29.8368 74.8222 29.2567 74.4323 28.7691 73.9411L23.9336 69.1057C23.4462 68.6166 23.0606 68.0357 22.7992 67.3966C22.5377 66.7575 22.4056 66.0729 22.4105 65.3824C22.4093 64.6939 22.5455 64.0121 22.8112 63.3769C23.0769 62.7417 23.4668 62.1659 23.9578 61.6833L27.8261 57.9117C27.2937 57.6491 26.8045 57.3067 26.3755 56.8963L21.5401 52.0608C20.5539 51.0727 20 49.7337 20 48.3376C20 46.9415 20.5539 45.6025 21.5401 44.6143L29.5185 36.6359L22.1445 29.1168C21.9819 28.9556 21.8533 28.7634 21.7661 28.5516C21.6789 28.3399 21.6349 28.1128 21.6368 27.8838C21.6321 27.6544 21.6748 27.4265 21.7621 27.2144C21.8495 27.0022 21.9797 26.8103 22.1445 26.6508L36.6508 12.0237C36.9807 11.7212 37.412 11.5535 37.8596 11.5535C38.3072 11.5535 38.7385 11.7212 39.0685 12.0237L46.5875 19.5669L54.5176 11.5401C55.5057 10.5539 56.8448 10 58.2409 10C59.637 10 60.976 10.5539 61.9641 11.5401L66.7996 16.3755C67.2153 16.8001 67.5584 17.2902 67.815 17.8261L71.5866 13.9578C72.5737 12.979 73.9076 12.4297 75.2978 12.4297C76.688 12.4297 78.0218 12.979 79.009 13.9578L83.8444 18.7932C84.8306 19.7814 85.3845 21.1204 85.3845 22.5165C85.3845 23.9126 84.8306 25.2516 83.8444 26.2398L68.5645 41.4713L104.612 77.5193L119.82 62.191C120.808 61.2048 122.147 60.6509 123.543 60.6509C124.939 60.6509 126.278 61.2048 127.266 62.191L132.102 67.0264C132.589 67.5155 132.975 68.0964 133.236 68.7355C133.498 69.3746 133.63 70.0592 133.625 70.7497C133.616 71.4339 133.47 72.1095 133.196 72.7365C132.922 73.3635 132.525 73.9292 132.029 74.4004L128.209 78.2446C128.749 78.4837 129.241 78.8196 129.66 79.2359L134.168 83.744C133.153 88.0251 131.734 92.1496 129.952 96.0748L126.541 99.4962L127.655 100.664C127.074 101.724 126.465 102.766 125.83 103.79L123.954 101.914L111.866 114.002L115.003 117.14C114.15 117.956 113.275 118.751 112.381 119.522ZM37.7871 15.7953L25.6986 27.8838L32.0813 34.2182L44.1698 22.1297L37.7871 15.7953ZM23.4696 48.4343C23.4696 48.8853 23.6446 49.3186 23.9578 49.6431L28.7932 54.4785V54.3577C28.9554 54.5236 29.149 54.6555 29.3629 54.7455C29.5767 54.8355 29.8063 54.8819 30.0384 54.8819C30.2704 54.8819 30.5 54.8355 30.7138 54.7455C30.9277 54.6555 31.1213 54.5236 31.2835 54.3577L64.3577 21.3076C64.6601 20.9777 64.8279 20.5464 64.8279 20.0988C64.8279 19.6512 64.6601 19.2199 64.3577 18.8899L59.5223 14.0545C59.361 13.8919 59.1688 13.7632 58.9571 13.676C58.7453 13.5889 58.5182 13.5449 58.2892 13.5468C57.8276 13.5483 57.385 13.7306 57.0562 14.0545L23.9578 47.2254C23.6446 47.5499 23.4696 47.9833 23.4696 48.4343ZM32.4198 72.0357C32.8708 72.0357 33.3041 71.8607 33.6286 71.5476L81.3058 23.7979C81.619 23.4734 81.794 23.04 81.794 22.589C81.794 22.1381 81.619 21.7047 81.3058 21.3802L76.4704 16.5448C76.1459 16.2316 75.7125 16.0566 75.2615 16.0566C74.8105 16.0566 74.3772 16.2316 74.0527 16.5448L66.7996 23.7979L33.6286 57.0413L26.3755 64.2944C26.0566 64.6159 25.8777 65.0504 25.8777 65.5033C25.8777 65.9561 26.0566 66.3906 26.3755 66.7121L31.2109 71.5476C31.5354 71.8607 31.9688 72.0357 32.4198 72.0357ZM65.9292 44.0341L53.8407 56.1226L90.1062 92.098L102.195 80.0095L65.9292 44.0341ZM80.7255 120.124C81.1765 120.124 81.6099 119.949 81.9344 119.636L105.87 95.7971L122.383 79.26L129.636 72.0069C129.798 71.8456 129.927 71.6535 130.014 71.4417C130.101 71.23 130.145 71.0029 130.143 70.7739C130.15 70.5443 130.108 70.316 130.02 70.1036C129.933 69.8912 129.802 69.6995 129.636 69.5409L124.8 64.7054C124.639 64.5428 124.447 64.4142 124.235 64.327C124.023 64.2398 123.796 64.1958 123.567 64.1977C123.336 64.1946 123.106 64.2404 122.894 64.332C122.681 64.4237 122.491 64.5592 122.334 64.7296L74.6813 112.383C74.3681 112.707 74.1931 113.14 74.1931 113.591C74.1931 114.042 74.3681 114.476 74.6813 114.8L79.5167 119.636C79.8412 119.949 80.2746 120.124 80.7255 120.124ZM98.9792 122.078L131.933 88.9792L132.029 89.0276C132.198 88.8787 132.335 88.6967 132.43 88.4929C132.526 88.2892 132.579 88.0679 132.585 87.8429C132.587 87.6139 132.543 87.3868 132.456 87.175C132.369 86.9633 132.24 86.7711 132.078 86.6098L127.242 81.7744C126.913 81.4505 126.471 81.2682 126.009 81.2667C125.54 81.267 125.09 81.449 124.752 81.7744L91.7261 114.824C91.4072 115.146 91.2282 115.58 91.2282 116.033C91.2282 116.486 91.4072 116.921 91.7261 117.242L96.5615 122.078C96.8915 122.38 97.3228 122.548 97.7704 122.548C98.2179 122.548 98.6493 122.38 98.9792 122.078Z" fill="white" fill-opacity="0.2"/>
</svg>
