<svg width="44" height="625" viewBox="0 0 44 625" fill="none" xmlns="http://www.w3.org/2000/svg">
    <path d="M41.435 622.6C41.435 598.024 43.6998 571.688 39.1603 547.531C36.0557 531.01 29.0568 512.347 20.9624 498.213C19.1362 495.024 13.6897 491.564 9.11424 492.235C6.56045 492.609 4.6368 493.654 3.39498 496.256C-4.07263 511.903 20.5146 520.601 28.1278 508.474C44.8611 481.819 35.6881 448.226 24.0333 421.092C12.9011 395.175 2.53709 367.75 2.5371 338.41C2.5371 314.664 13.771 293.788 18.4034 271.02C23.8816 244.095 26.3773 217.426 26.0806 189.795C26.0186 184.018 20.2496 146.272 11.5223 156.431C7.81393 160.748 6.98957 168.181 12.2616 171.59C19.2373 176.102 24.7893 169.102 27.5592 162.654C36.7953 141.151 34.3832 110.687 30.9713 87.8494C28.1442 68.9265 25.057 50.9183 25.057 31.5807C25.057 22.4617 25.6945 8.42337 30.1751 0.59985" stroke="#EFB104" stroke-width="3" stroke-linecap="round"/>
</svg>
