<?xml version="1.0" standalone="no"?>
<!DOCTYPE svg PUBLIC "-//W3C//DTD SVG 20010904//EN"
 "http://www.w3.org/TR/2001/REC-SVG-20010904/DTD/svg10.dtd">
<svg version="1.0" xmlns="http://www.w3.org/2000/svg"
 width="928.000000pt" height="928.000000pt" viewBox="0 0 928.000000 928.000000"
 preserveAspectRatio="xMidYMid meet">
<metadata>
Created by potrace 1.14, written by Peter Selinger 2001-2017
</metadata>
<g transform="translate(0.000000,928.000000) scale(0.100000,-0.100000)"
fill="#000000" stroke="none">
<path d="M1238 8554 c-2 -1 -28 -5 -58 -8 -65 -7 -108 -15 -132 -22 -10 -3
-28 -7 -41 -10 -84 -15 -271 -92 -372 -154 -74 -44 -179 -127 -241 -187 -71
-70 -174 -195 -174 -212 0 -6 -4 -11 -10 -11 -5 0 -10 -7 -10 -15 0 -8 -4 -15
-9 -15 -5 0 -11 -8 -14 -17 -3 -10 -15 -34 -26 -53 -49 -86 -110 -255 -128
-355 -2 -11 -6 -33 -10 -50 -4 -16 -9 -1489 -10 -3272 l-3 -3243 250 0 250 0
0 2472 c0 1359 2 2473 4 2475 2 2 282 5 622 6 l619 2 1 230 c0 127 -1 235 -4
241 -2 9 -167 12 -620 12 l-617 0 -1 493 c-1 453 0 500 17 569 11 41 22 82 25
90 3 8 5 16 4 18 -2 7 86 162 113 197 102 131 245 234 392 285 104 36 158 44
280 45 127 0 215 -14 299 -47 92 -36 150 -67 221 -121 l70 -53 173 175 172
175 -27 24 c-16 13 -40 34 -55 48 -15 13 -32 24 -36 24 -5 0 -17 9 -27 20 -10
11 -22 20 -26 20 -5 0 -25 12 -46 26 -78 53 -276 138 -368 159 -11 2 -79 16
-110 21 -58 12 -111 16 -217 18 -65 2 -119 2 -120 0z"/>
<path d="M3106 8551 c-2 -3 -4 -1719 -3 -3813 l0 -3808 243 0 c177 0 245 3
250 12 10 16 11 239 1 245 -4 2 -4 9 0 15 11 19 9 7339 -2 7346 -12 8 -485 11
-489 3z"/>
<path d="M6668 8555 c-2 -2 -30 -6 -63 -9 -33 -2 -60 -5 -60 -6 0 -1 -16 -4
-35 -6 -52 -5 -92 -11 -120 -18 -14 -3 -36 -8 -50 -10 -107 -20 -333 -92 -455
-144 -164 -71 -460 -243 -473 -274 -2 -4 -8 -8 -13 -8 -5 0 -17 -6 -26 -14
-242 -196 -398 -362 -549 -586 -95 -142 -228 -400 -224 -434 1 -5 -2 -12 -7
-15 -9 -5 -72 -191 -74 -216 -1 -5 -5 -20 -10 -33 -5 -13 -11 -35 -14 -50 -5
-26 -9 -51 -20 -102 -2 -14 -7 -38 -9 -55 -2 -16 -7 -48 -10 -70 -17 -113 -30
-416 -18 -438 2 -4 5 -36 8 -70 6 -101 16 -171 39 -277 5 -26 7 -34 25 -110
13 -54 66 -212 87 -260 8 -19 21 -48 28 -65 88 -202 200 -385 356 -579 33 -40
236 -244 279 -280 77 -63 259 -196 269 -196 6 0 11 -4 11 -10 0 -5 4 -10 9
-10 9 0 59 -29 141 -79 14 -9 27 -16 30 -16 3 0 41 -18 85 -39 107 -52 276
-115 378 -142 4 -1 8 -2 10 -4 2 -2 9 -3 102 -25 39 -9 79 -18 90 -21 11 -3
36 -7 55 -10 165 -22 182 -24 290 -30 130 -6 105 -6 240 0 137 6 291 25 408
51 12 3 30 7 40 9 9 2 37 9 62 16 25 7 52 13 60 15 41 8 237 81 328 122 103
46 305 155 322 174 3 3 21 15 41 27 20 12 53 35 75 52 21 16 44 33 49 37 120
89 325 288 404 393 14 19 28 37 31 40 65 61 242 364 310 530 12 30 29 71 38
90 8 19 21 57 29 85 35 123 52 185 57 211 3 16 10 52 16 79 6 28 13 70 16 95
2 25 7 56 10 70 10 43 12 480 2 480 -5 0 -7 4 -3 9 15 26 -64 412 -105 506
-11 27 -23 58 -25 70 -11 50 -134 306 -176 366 -10 15 -23 38 -29 53 -5 14
-14 26 -20 26 -5 0 -10 5 -10 10 0 22 -122 184 -230 303 -46 52 -155 159 -200
197 -14 12 -35 30 -47 41 -67 57 -285 209 -300 209 -4 0 -14 6 -22 14 -15 14
-177 96 -253 130 -88 38 -107 45 -193 74 -104 35 -235 71 -284 78 -18 2 -36 6
-40 8 -7 5 -56 13 -131 22 -25 3 -58 7 -75 10 -36 6 -451 14 -457 9z m352
-489 c36 -3 85 -8 110 -12 50 -6 271 -53 282 -61 5 -2 16 -6 25 -8 61 -12 365
-143 383 -164 5 -6 29 -21 75 -45 21 -12 73 -45 90 -59 6 -4 28 -21 50 -38
153 -115 363 -336 425 -447 8 -15 18 -29 21 -32 13 -10 50 -77 113 -205 55
-112 124 -301 140 -385 3 -14 7 -36 10 -50 3 -13 8 -40 11 -60 3 -20 7 -45 9
-55 4 -21 19 -223 18 -240 0 -5 -3 -55 -6 -110 -5 -92 -11 -146 -19 -185 -2
-8 -8 -37 -12 -65 -11 -59 -12 -64 -15 -67 -1 -2 -4 -12 -5 -23 -5 -42 -76
-237 -120 -331 -141 -297 -357 -555 -615 -734 -19 -13 -37 -27 -40 -30 -9 -10
-161 -100 -173 -103 -7 -1 -14 -5 -17 -8 -5 -5 -101 -52 -110 -54 -3 0 -10 -4
-16 -7 -46 -29 -399 -136 -411 -124 -3 2 -16 1 -30 -5 -13 -5 -48 -12 -76 -15
-29 -3 -70 -7 -92 -10 -51 -6 -310 -5 -350 1 -16 3 -52 7 -80 10 -27 3 -67 10
-89 16 -21 6 -40 8 -43 5 -3 -3 -21 1 -39 9 -19 8 -34 12 -34 10 0 -2 -15 1
-32 6 -18 6 -42 12 -53 14 -11 3 -29 9 -40 13 -11 5 -45 17 -75 27 -70 23
-261 112 -320 150 -25 16 -47 30 -50 30 -11 1 -116 76 -151 108 -10 9 -23 17
-28 17 -15 0 -255 242 -308 310 -75 97 -154 223 -211 337 -48 97 -132 326
-132 362 0 10 -3 21 -7 25 -4 3 -8 14 -8 24 -1 9 -5 35 -10 57 -20 108 -29
215 -29 340 1 99 9 217 19 265 2 13 7 42 10 65 3 22 15 74 26 115 12 41 22 82
24 90 7 27 35 104 50 137 8 17 15 34 15 38 0 11 77 162 118 230 101 170 306
401 457 516 95 72 225 154 311 196 43 21 81 41 82 46 2 4 7 7 12 7 5 0 21 5
37 12 15 6 32 10 37 9 4 -1 13 2 20 8 13 10 149 58 186 65 14 2 26 5 28 5 1 1
4 1 7 2 2 0 19 5 37 10 44 13 53 15 118 24 30 4 66 10 80 12 14 2 61 6 105 9
44 4 81 7 82 8 4 3 154 -2 223 -8z"/>
</g>
</svg>
