<svg viewBox="0 0 48 48" xmlns="http://www.w3.org/2000/svg">
    <path d="M15.0588 3.76471C11.0417 3.76471 7.39752 4.5096 4.67647 5.77939C1.95543 7.04922 0 8.92984 0 11.2941V36.7059C0 39.0702 1.95543 40.9361 4.67647 42.2059C7.39752 43.4757 11.0417 44.2353 15.0588 44.2353C19.076 44.2353 22.7201 43.4757 25.4412 42.2059C28.1622 40.9361 30.1176 39.0702 30.1176 36.7059V11.2941C30.1176 8.92984 28.1622 7.04922 25.4412 5.77939C22.7201 4.5096 19.076 3.76471 15.0588 3.76471ZM15.0588 5.64706C18.8386 5.64706 22.2585 6.37063 24.6471 7.48527C27.0356 8.59995 28.2353 10.0198 28.2353 11.2941C28.2353 12.5684 27.0356 13.9736 24.6471 15.0882C22.2585 16.2029 18.8386 16.9412 15.0588 16.9412C11.2791 16.9412 7.85914 16.2029 5.47059 15.0882C3.08203 13.9736 1.88235 12.5684 1.88235 11.2941C1.88235 10.0198 3.08203 8.59995 5.47059 7.48527C7.85914 6.37063 11.2791 5.64706 15.0588 5.64706ZM1.88235 15.0147C2.64531 15.6971 3.60057 16.2921 4.67647 16.7941C7.39752 18.064 11.0417 18.8235 15.0588 18.8235C19.076 18.8235 22.7201 18.064 25.4412 16.7941C26.5171 16.2921 27.4723 15.6971 28.2353 15.0147V19.7647C28.2353 21.039 27.0356 22.4442 24.6471 23.5588C22.2585 24.6735 18.8386 25.4118 15.0588 25.4118C12.8133 25.4118 10.6947 25.1512 8.84398 24.7059C8.48561 24.6197 8.13727 24.5265 7.8 24.427C6.94729 24.1754 6.16532 23.883 5.47059 23.5588C3.08203 22.4442 1.88235 21.039 1.88235 19.7647V15.0147ZM1.88235 23.4706C2.64522 24.1574 3.59533 24.7601 4.67647 25.2647C5.51028 25.6538 6.43077 25.995 7.4221 26.2811C7.80886 26.3928 8.2064 26.496 8.61378 26.5904C10.5699 27.0438 12.7529 27.2941 15.0588 27.2941C19.076 27.2941 22.7201 26.5345 25.4412 25.2647C26.5223 24.7601 27.4724 24.1574 28.2353 23.4706V28.2353C28.2353 29.5096 27.0356 30.9148 24.6471 32.0294C22.2585 33.1441 18.8386 33.8824 15.0588 33.8824C11.2791 33.8824 7.85914 33.1441 5.47059 32.0294C3.08203 30.9148 1.88235 29.5096 1.88235 28.2353V23.4706ZM1.88235 31.9412C2.64522 32.628 3.59533 33.2307 4.67647 33.7353C7.39752 35.0051 11.0417 35.7647 15.0588 35.7647C19.076 35.7647 22.7201 35.0051 25.4412 33.7353C26.5223 33.2307 27.4724 32.628 28.2353 31.9412V36.7059C28.2353 37.9802 27.0356 39.3854 24.6471 40.5C22.2585 41.6146 18.8386 42.3529 15.0588 42.3529C11.2791 42.3529 7.85914 41.6146 5.47059 40.5C3.08203 39.3854 1.88235 37.9802 1.88235 36.7059V31.9412Z" fill="currentColor"/>
    <rect x="10.1617" y="22.8676" width="10.7353" height="10.7353" rx="1.25" fill="inherit" stroke="currentColor" stroke-width="1.5"/>
    <rect x="13.2058" y="25.9117" width="4.64706" height="4.64706" rx="0.5" fill="inherit" stroke="currentColor"/>
    <rect x="23.3382" y="22.8676" width="10.7353" height="10.7353" rx="1.25" fill="inherit" stroke="currentColor" stroke-width="1.5"/>
    <rect x="26.3823" y="25.9117" width="4.64706" height="4.64706" rx="0.5" fill="inherit" stroke="currentColor"/>
    <rect x="21.647" y="26.3529" width="1.41177" height="4.2353" fill="currentColor"/>
    <rect x="34.8235" y="26.3529" width="1.41176" height="4.2353" fill="currentColor"/>
    <rect x="36.5146" y="22.8676" width="10.7353" height="10.7353" rx="1.25" fill="inherit" stroke="currentColor" stroke-width="1.5"/>
    <rect x="39.5588" y="25.9117" width="4.64706" height="4.64706" rx="0.5" fill="inherit" stroke="currentColor"/>
    <line x1="19.294" y1="28.2059" x2="25.8823" y2="28.2059" stroke="inherit"/>
    <line x1="31.9999" y1="28.2059" x2="38.5881" y2="28.2059" stroke="inherit"/>
</svg>
