<svg viewBox="0 0 14 14" fill="none" xmlns="http://www.w3.org/2000/svg">
    <path d="M3.98145 0.114746C3.94922 0.118738 3.91757 0.129234 3.8877 0.146484C3.7682 0.215484 3.7269 0.368293 3.7959 0.487793L4.46826 1.65234C3.60558 2.33724 2.99358 3.35288 2.81152 4.5H11.2051C11.0466 3.32625 10.4321 2.30182 9.5498 1.62158L10.2041 0.487793C10.2731 0.368293 10.2318 0.215484 10.1123 0.146484C9.9928 0.0774844 9.84 0.118293 9.771 0.237793L9.1333 1.34229C8.52814 0.980712 7.82964 0.765333 7.08105 0.750977C6.27739 0.735613 5.52349 0.961287 4.87744 1.36084L4.229 0.237793C4.17725 0.148168 4.07812 0.10277 3.98145 0.114746ZM5.125 2.5C5.332 2.5 5.5 2.668 5.5 2.875C5.5 3.082 5.332 3.25 5.125 3.25C4.918 3.25 4.75 3.082 4.75 2.875C4.75 2.668 4.918 2.5 5.125 2.5ZM8.875 2.5C9.082 2.5 9.25 2.668 9.25 2.875C9.25 3.082 9.082 3.25 8.875 3.25C8.668 3.25 8.5 3.082 8.5 2.875C8.5 2.668 8.668 2.5 8.875 2.5ZM2.75977 5.01367C2.75677 5.08017 2.75 5.14589 2.75 5.21289V10.4766C2.75 11.0416 3.19775 11.5 3.75 11.5H4.5V13.125C4.5 13.4702 4.77975 13.75 5.125 13.75C5.47025 13.75 5.75 13.4702 5.75 13.125V11.5H8.25V13.125C8.25 13.4702 8.52975 13.75 8.875 13.75C9.22025 13.75 9.5 13.4702 9.5 13.125V11.5H10.25C10.8022 11.5 11.25 11.0416 11.25 10.4766V5.23682L2.75977 5.01367ZM1.375 5.25C1.02975 5.25 0.75 5.52975 0.75 5.875V7.875C0.75 8.22025 1.02975 8.5 1.375 8.5C1.72025 8.5 2 8.22025 2 7.875V5.875C2 5.52975 1.72025 5.25 1.375 5.25ZM12.625 5.25C12.2797 5.25 12 5.52975 12 5.875V7.875C12 8.22025 12.2797 8.5 12.625 8.5C12.9703 8.5 13.25 8.22025 13.25 7.875V5.875C13.25 5.52975 12.9703 5.25 12.625 5.25Z" fill="currentColor"/>
</svg>
