<svg viewBox="0 0 48 30" fill="none" xmlns="http://www.w3.org/2000/svg">
    <path d="M13.642 11.1158C13.642 11.7 13.7052 12.1737 13.8157 12.521C13.942 12.8684 14.0999 13.2473 14.321 13.6579C14.3999 13.7842 14.4315 13.9105 14.4315 14.021C14.4315 14.1789 14.3368 14.3368 14.1315 14.4947L13.1368 15.1579C12.9947 15.2526 12.8526 15.3 12.7263 15.3C12.5684 15.3 12.4105 15.221 12.2526 15.0789C12.0315 14.8421 11.842 14.5894 11.6842 14.3368C11.5263 14.0684 11.3684 13.7684 11.1947 13.4052C9.9631 14.8579 8.41573 15.5842 6.55257 15.5842C5.22626 15.5842 4.16836 15.2052 3.39468 14.4473C2.62099 13.6894 2.22626 12.6789 2.22626 11.4158C2.22626 10.0737 2.69994 8.98418 3.6631 8.16313C4.62626 7.34208 5.9052 6.93155 7.53152 6.93155C8.06836 6.93155 8.62099 6.97892 9.2052 7.05787C9.78942 7.13682 10.3894 7.26313 11.021 7.40524V6.2526C11.021 5.0526 10.7684 4.21576 10.2789 3.72629C9.77363 3.23682 8.92099 2.99997 7.7052 2.99997C7.15257 2.99997 6.58415 3.06313 5.99994 3.20524C5.41573 3.34734 4.84731 3.52103 4.29468 3.74208C4.04205 3.8526 3.85257 3.91576 3.74205 3.94734C3.63152 3.97892 3.55257 3.99471 3.48942 3.99471C3.26836 3.99471 3.15784 3.83682 3.15784 3.50524V2.73155C3.15784 2.47892 3.18942 2.28945 3.26836 2.17892C3.34731 2.06839 3.48942 1.95787 3.71047 1.84734C4.2631 1.56313 4.92626 1.32629 5.69994 1.13682C6.47363 0.931553 7.29468 0.836816 8.1631 0.836816C10.042 0.836816 11.4157 1.26313 12.2999 2.11576C13.1684 2.96839 13.6105 4.26313 13.6105 5.99997V11.1158H13.642ZM7.23152 13.5158C7.75257 13.5158 8.28942 13.421 8.85784 13.2316C9.42626 13.0421 9.93152 12.6947 10.3578 12.221C10.6105 11.921 10.7999 11.5894 10.8947 11.2105C10.9894 10.8316 11.0526 10.3737 11.0526 9.83681V9.17366C10.5947 9.06313 10.1052 8.96839 9.59994 8.90524C9.09468 8.84208 8.60521 8.8105 8.11573 8.8105C7.05784 8.8105 6.28415 9.01576 5.7631 9.44208C5.24205 9.86839 4.98942 10.4684 4.98942 11.2579C4.98942 12 5.17889 12.5526 5.57363 12.9316C5.95257 13.3263 6.5052 13.5158 7.23152 13.5158ZM19.9105 15.221C19.6263 15.221 19.4368 15.1737 19.3105 15.0631C19.1842 14.9684 19.0736 14.7473 18.9789 14.4473L15.2684 2.24208C15.1736 1.92629 15.1263 1.72103 15.1263 1.6105C15.1263 1.35787 15.2526 1.21576 15.5052 1.21576H17.0526C17.3526 1.21576 17.5578 1.26313 17.6684 1.37366C17.7947 1.46839 17.8894 1.68945 17.9842 1.98945L20.6368 12.4421L23.0999 1.98945C23.1789 1.67366 23.2736 1.46839 23.3999 1.37366C23.5263 1.27892 23.7473 1.21576 24.0315 1.21576H25.2947C25.5947 1.21576 25.7999 1.26313 25.9263 1.37366C26.0526 1.46839 26.1631 1.68945 26.2263 1.98945L28.721 12.5684L31.4526 1.98945C31.5473 1.67366 31.6578 1.46839 31.7684 1.37366C31.8947 1.27892 32.0999 1.21576 32.3842 1.21576H33.8526C34.1052 1.21576 34.2473 1.34208 34.2473 1.6105C34.2473 1.68945 34.2315 1.76839 34.2157 1.86313C34.1999 1.95787 34.1684 2.08418 34.1052 2.25787L30.2999 14.4631C30.2052 14.7789 30.0947 14.9842 29.9684 15.0789C29.842 15.1737 29.6368 15.2368 29.3684 15.2368H28.0105C27.7105 15.2368 27.5052 15.1894 27.3789 15.0789C27.2526 14.9684 27.142 14.7631 27.0789 14.4473L24.6315 4.26313L22.1999 14.4316C22.121 14.7473 22.0263 14.9526 21.8999 15.0631C21.7736 15.1737 21.5526 15.221 21.2684 15.221H19.9105ZM40.1999 15.6473C39.3789 15.6473 38.5578 15.5526 37.7684 15.3631C36.9789 15.1737 36.3631 14.9684 35.9526 14.7316C35.6999 14.5894 35.5263 14.4316 35.4631 14.2894C35.3999 14.1473 35.3684 13.9894 35.3684 13.8473V13.0421C35.3684 12.7105 35.4947 12.5526 35.7315 12.5526C35.8263 12.5526 35.921 12.5684 36.0157 12.6C36.1105 12.6316 36.2526 12.6947 36.4105 12.7579C36.9473 12.9947 37.5315 13.1842 38.1473 13.3105C38.7789 13.4368 39.3947 13.5 40.0263 13.5C41.021 13.5 41.7947 13.3263 42.3315 12.9789C42.8684 12.6316 43.1526 12.1263 43.1526 11.4789C43.1526 11.0368 43.0105 10.6737 42.7263 10.3737C42.442 10.0737 41.9052 9.80524 41.1315 9.5526L38.842 8.84208C37.6894 8.47892 36.8368 7.94208 36.3157 7.23155C35.7947 6.53682 35.5263 5.76313 35.5263 4.94208C35.5263 4.27892 35.6684 3.69471 35.9526 3.18945C36.2368 2.68418 36.6157 2.24208 37.0894 1.89471C37.5631 1.53155 38.0999 1.26313 38.7315 1.07366C39.3631 0.884184 40.0263 0.805237 40.721 0.805237C41.0684 0.805237 41.4315 0.821026 41.7789 0.868395C42.142 0.915763 42.4736 0.978921 42.8052 1.04208C43.121 1.12103 43.421 1.19997 43.7052 1.29471C43.9894 1.38945 44.2105 1.48418 44.3684 1.57892C44.5894 1.70524 44.7473 1.83155 44.842 1.97366C44.9368 2.09997 44.9842 2.27366 44.9842 2.49471V3.23682C44.9842 3.56839 44.8578 3.74208 44.621 3.74208C44.4947 3.74208 44.2894 3.67892 44.021 3.5526C43.121 3.14208 42.1105 2.93682 40.9894 2.93682C40.0894 2.93682 39.3789 3.07892 38.8894 3.37892C38.3999 3.67892 38.1473 4.13682 38.1473 4.78418C38.1473 5.22629 38.3052 5.60524 38.621 5.90524C38.9368 6.20524 39.521 6.50524 40.3578 6.77366L42.5999 7.48418C43.7368 7.84734 44.5578 8.3526 45.0473 8.99997C45.5368 9.64734 45.7736 10.3894 45.7736 11.2105C45.7736 11.8894 45.6315 12.5052 45.3631 13.0421C45.0789 13.5789 44.6999 14.0526 44.2105 14.4316C43.721 14.8263 43.1368 15.1105 42.4578 15.3158C41.7473 15.5368 41.0052 15.6473 40.1999 15.6473Z" fill="currentColor"/>
    <path fill-rule="evenodd" clip-rule="evenodd" d="M43.1843 23.3211C37.9895 27.1579 30.4422 29.1948 23.9527 29.1948C14.858 29.1948 6.66322 25.8316 0.473746 20.2421C-0.0157275 19.8 0.426378 19.2 1.01059 19.5474C7.70533 23.4316 15.9632 25.7842 24.5053 25.7842C30.2685 25.7842 36.6001 24.5842 42.4264 22.1211C43.2948 21.7263 44.0369 22.6895 43.1843 23.3211Z" fill="currentColor"/>
    <path fill-rule="evenodd" clip-rule="evenodd" d="M45.3475 20.8579C44.6844 20.0052 40.958 20.4473 39.2686 20.6526C38.7633 20.7157 38.6844 20.2736 39.1423 19.9421C42.1107 17.8579 46.9896 18.4579 47.5581 19.1526C48.1265 19.8631 47.4002 24.7421 44.6212 27.0789C44.1949 27.442 43.7844 27.2526 43.9738 26.7789C44.6054 25.2157 46.0107 21.6947 45.3475 20.8579Z" fill="currentColor"/>
</svg>
