<svg viewBox="0 0 48 38" fill="none" xmlns="http://www.w3.org/2000/svg">
    <path d="M21.853 35.4339C27.9219 34.3618 32.9344 33.4747 32.992 33.4624L33.0967 33.4402L27.3671 26.6251C24.2158 22.8767 21.6375 19.7953 21.6375 19.7776C21.6375 19.7439 27.5538 3.45172 27.587 3.39375C27.5982 3.37438 31.6244 10.3255 37.3469 20.2438C42.7044 29.5295 47.1214 37.1856 47.1624 37.2574L47.2371 37.3878L29.0279 37.3855L10.8187 37.3831L21.853 35.4339ZM0 33.3556C0 33.346 2.69977 28.6594 5.99948 22.9409L11.9989 12.5438L18.9906 6.67633C22.8361 3.44924 25.9927 0.804943 26.0053 0.80012C26.018 0.795299 25.9674 0.922617 25.8929 1.08305C25.8184 1.24349 22.402 8.5713 18.3009 17.3671L10.8444 33.3594L5.42218 33.3662C2.43998 33.3699 0 33.3652 0 33.3556Z" fill="currentColor"/>
</svg>
