<svg width="48" height="48" viewBox="0 0 48 48" xmlns="http://www.w3.org/2000/svg">
    <path d="M48 24C48 37.2548 37.2547 48 24 48C10.7452 48 0 37.2548 0 24C0 10.7452 10.7452 0 24 0C37.2547 0 48 10.7452 48 24Z" fill="currentColor"/>
    <path d="M8.55081 20.9829C8.55081 20.9829 7.5805 16.1634 17.3712 15.0704C17.7724 8.63229 40.5269 8.48904 34.8499 16.6829C39.0537 18.1341 38.3712 21.0546 38.3712 21.0546C38.3712 21.0546 38.5388 22.703 37.0778 24.208C35.6166 25.7129 34.0562 26.6485 29.1736 26.6445C27.2147 26.6431 24.4311 26.7399 21.1735 25.2588C16.7663 26.1669 11.9875 25.2616 10.5389 24.1602C8.11975 22.3208 8.55081 20.9829 8.55081 20.9829Z" fill="inherit"/>
    <path d="M8.55103 20.983V28.4363C8.55103 28.4363 9.05409 35.173 21.3415 32.5215C26.2276 36.1045 37.5091 33.8114 38.3714 29.583V21.0546C38.4432 23.133 28.7427 28.7946 21.4133 23.9214C10.4911 26.3581 8.55084 20.983 8.55084 20.983" fill="#404147"/>
</svg>
