<svg width="48" height="49" viewBox="0 0 48 49" fill="none" xmlns="http://www.w3.org/2000/svg">
    <path fill-rule="evenodd" clip-rule="evenodd" d="M11.1939 12.8059L10.7663 12.3861L11.1856 12.0902L40.7087 41.6975L40.9159 41.6455L40.7666 41.8451L40.3584 41.4443L11.1939 12.8059ZM37.5199 12.4951C38.443 12.8934 39.2916 13.4659 40.0152 14.1916L47.9998 22.199V39.8695L40.9159 41.6455L41.1092 41.387L44.7547 36.5124L44.9074 36.3083L44.8319 36.0648L37.5199 12.4951ZM36.3485 12.0939C36.7492 12.1973 37.1408 12.3315 37.5199 12.4951L36.3256 8.64503L36.289 8.52737L36.2021 8.44013L29.4944 1.71339C28.6344 0.850872 27.2779 0.73374 26.2827 1.43606L11.5396 11.8404H10.9365L11.1856 12.0902L11.2559 12.0406L11.5396 11.8404H13.274L12.322 12.5122L40.6509 40.33L43.8013 36.1176L36.3485 12.0939ZM36.3485 12.0939C35.7012 11.9269 35.0302 11.8404 34.3503 11.8404L13.274 11.8404L26.8593 2.25309C27.4564 1.8317 28.2703 1.90198 28.7863 2.41949L35.407 9.059L36.3485 12.0939Z" fill="currentColor"/>
    <path d="M10.9367 13.0587L11.2833 12.6984L10.8594 12.2906L10.5252 12.7747L10.9367 13.0587ZM35.2405 45.3531L35.0916 45.8305L35.3198 45.9016L35.5184 45.7688L35.2405 45.3531ZM7.89874 36.8226L7.54469 37.1756L7.63191 37.2631L7.74982 37.2999L7.89874 36.8226ZM0.945616 27.5315L1.35709 27.8156L0.945616 27.5315ZM39.8134 40.8358L39.4668 41.1961L39.8134 40.8358ZM10.5901 13.4191L39.4668 41.1961L40.16 40.4754L11.2833 12.6984L10.5901 13.4191ZM39.398 41.9721L34.9627 44.9375L35.5184 45.7688L39.9538 42.8034L39.398 41.9721ZM35.3895 44.8758L8.04766 36.3452L7.74982 37.2999L35.0916 45.8305L35.3895 44.8758ZM8.2528 36.4695L1.52935 29.7269L0.821232 30.433L7.54469 37.1756L8.2528 36.4695ZM1.35709 27.8156L11.3482 13.3428L10.5252 12.7747L0.534142 27.2474L1.35709 27.8156ZM1.52935 29.7269C1.01857 29.2146 0.946134 28.4109 1.35709 27.8156L0.534142 27.2474C-0.150787 28.2396 -0.0300537 29.5793 0.821232 30.433L1.52935 29.7269ZM39.4668 41.1961C39.6968 41.4174 39.6634 41.7947 39.398 41.9721L39.9538 42.8034C40.75 42.2712 40.8502 41.1393 40.16 40.4754L39.4668 41.1961Z" fill="currentColor"/>
    <path fill-rule="evenodd" clip-rule="evenodd" d="M10.8868 13.1097C10.8764 12.6584 11.422 12.4255 11.7407 12.7451L40.1557 41.2411L38.4958 47.9H21.4322L14.4447 42.6839C12.9185 41.5446 11.8952 39.8776 11.5553 38.0329L11.3561 29.5142L11.1332 19.6106L10.9917 12.9946L10.8876 13.1452L10.8868 13.1097ZM9.91962 14.5461L9.88709 13.1327C9.85592 11.7789 11.4927 11.0802 12.4489 12.039L41.0633 40.735L41.2627 40.935L41.1944 41.209L39.3716 48.5209L39.2771 48.9H38.8864H21.2661H21.1001L20.967 48.8007L13.8465 43.4853C11.9712 42.0854 10.7659 39.9827 10.4912 37.6825L11.5554 38.0353L11.5553 38.0329C11.4837 37.6442 11.4424 37.2476 11.4332 36.8464L10.8876 13.1452L9.91962 14.5461ZM9.91962 14.5461L0.946648 27.5316C0.39816 28.3253 0.494547 29.3975 1.17581 30.0807L7.89874 36.8228L10.4912 37.6825C10.4591 37.4139 10.4398 37.1426 10.4335 36.8694L9.91962 14.5461Z" fill="currentColor"/>
</svg>
