<svg width="48" height="48" viewBox="0 0 48 48" fill="none" xmlns="http://www.w3.org/2000/svg">
    <g clip-path="url(#clip0_2720_10600)">
        <path fill-rule="evenodd" clip-rule="evenodd" d="M17.4749 10.317C11.2027 9.17472 6.24292 10.3695 4.26592 13.794C2.79067 16.3485 3.21217 19.7362 5.28817 23.3565C5.37341 23.5041 5.51365 23.612 5.67823 23.6566C5.84281 23.7011 6.01833 23.6787 6.16642 23.5942C6.31408 23.509 6.42198 23.3687 6.46653 23.2042C6.51109 23.0396 6.48866 22.8641 6.40417 22.716C4.53442 19.4535 4.17067 16.5307 5.37967 14.436C7.02967 11.592 11.4457 10.5255 17.2447 11.5815C17.4124 11.6115 17.5852 11.5739 17.7253 11.4769C17.8654 11.38 17.9614 11.2315 17.9924 11.064C18.0224 10.8962 17.9848 10.7235 17.8879 10.5834C17.7909 10.4433 17.6424 10.3472 17.4749 10.3162V10.317ZM8.54992 27.75C11.0864 30.537 14.3812 33.1515 18.1394 35.3212C27.2459 40.575 36.9322 41.985 41.6999 38.73C41.8405 38.6335 41.9371 38.4853 41.9688 38.3178C42.0004 38.1503 41.9644 37.977 41.8687 37.836C41.7722 37.6954 41.624 37.5987 41.4565 37.5671C41.289 37.5355 41.1157 37.5715 40.9747 37.6672C36.7019 40.5802 27.5002 39.2467 18.7747 34.2135C15.1297 32.109 11.9384 29.577 9.49342 26.8905C9.37833 26.7646 9.21809 26.6895 9.04774 26.6815C8.8774 26.6735 8.71081 26.7332 8.58442 26.8477C8.45857 26.9628 8.38342 27.123 8.37541 27.2934C8.3674 27.4637 8.42718 27.6303 8.54167 27.7567L8.54992 27.75ZM40.1834 26.9752C44.2904 22.1227 45.7244 17.2432 43.7519 13.8277C42.3007 11.3137 39.2324 9.98622 35.1539 9.93372C34.9835 9.93191 34.8193 9.99763 34.6972 10.1165C34.575 10.2354 34.5049 10.3978 34.5022 10.5682C34.5004 10.7386 34.5661 10.9029 34.685 11.025C34.8039 11.1471 34.9663 11.2172 35.1367 11.22C38.8117 11.268 41.4479 12.411 42.6367 14.4712C44.2754 17.3092 42.9967 21.6607 39.2002 26.1457C39.0903 26.2761 39.0365 26.4447 39.0505 26.6146C39.0646 26.7845 39.1454 26.9419 39.2752 27.0525C39.4055 27.1623 39.5741 27.2161 39.744 27.2021C39.9139 27.188 40.0714 27.1073 40.1819 26.9775L40.1834 26.9752ZM29.6279 10.53C25.9154 11.325 21.9614 12.8812 18.1657 15.0727C8.77267 20.4952 2.64517 28.5 3.49492 34.29C3.52013 34.4585 3.61104 34.6103 3.74778 34.712C3.88452 34.8137 4.05597 34.8572 4.22467 34.833C4.39323 34.8078 4.54496 34.7168 4.6467 34.5801C4.74845 34.4434 4.79194 34.2719 4.76767 34.1032C4.01242 28.9552 9.82042 21.3757 18.8077 16.1782C22.4827 14.052 26.3174 12.546 29.8964 11.7787C30.063 11.7426 30.2084 11.642 30.301 11.4989C30.3936 11.3559 30.4259 11.182 30.3907 11.0152C30.3545 10.8487 30.2539 10.7032 30.1109 10.6106C29.9678 10.518 29.7939 10.4858 29.6272 10.521L29.6279 10.53Z" fill="currentColor"/>
        <path fill-rule="evenodd" clip-rule="evenodd" d="M14.4113 38.3115C16.5585 44.3078 20.0715 48 24.0225 48C26.904 48 29.5695 46.035 31.6478 42.5775C31.7352 42.4312 31.7612 42.2562 31.72 42.0908C31.6789 41.9254 31.5739 41.783 31.428 41.6948C31.2817 41.6073 31.1067 41.5813 30.9413 41.6225C30.7759 41.6637 30.6335 41.7687 30.5453 41.9145C28.6703 45.0218 26.3828 46.7123 24.0225 46.7123C20.7413 46.7123 17.6078 43.4123 15.6225 37.8773C15.5646 37.7169 15.4455 37.586 15.2913 37.5132C15.1372 37.4404 14.9604 37.4316 14.7998 37.4888C14.6394 37.5467 14.5085 37.6658 14.4357 37.82C14.3629 37.9741 14.3542 38.1509 14.4113 38.3115ZM34.026 37.1385C35.1375 33.5858 35.7345 29.4885 35.7345 25.2173C35.7345 14.5613 32.0048 5.37525 26.6925 3.01725C26.5365 2.94849 26.3597 2.94429 26.2006 3.00557C26.0415 3.06684 25.9131 3.18861 25.8435 3.34425C25.7748 3.50026 25.7706 3.67714 25.8318 3.83623C25.8931 3.99532 26.0149 4.12368 26.1705 4.19325C30.909 6.29625 34.4475 15.015 34.4475 25.218C34.4475 29.361 33.87 33.33 32.7975 36.7553C32.747 36.9181 32.7629 37.0943 32.8419 37.2454C32.9209 37.3964 33.0565 37.5101 33.219 37.5615C33.3818 37.6121 33.5581 37.5961 33.7091 37.5171C33.8602 37.4381 33.9739 37.3025 34.0253 37.14L34.026 37.1385ZM46.14 36.5085C46.14 34.8083 44.7615 33.4298 43.0613 33.4298C41.361 33.4298 39.975 34.8 39.975 36.5085C39.975 38.217 41.3535 39.5873 43.0538 39.5873C44.754 39.5873 46.1325 38.2088 46.1325 36.5085H46.14ZM44.8538 36.5085C44.8536 36.9836 44.6647 37.4393 44.3288 37.7752C43.9928 38.1112 43.5372 38.3001 43.062 38.3003C42.5869 38.3001 42.1313 38.1112 41.7953 37.7752C41.4593 37.4393 41.2705 36.9836 41.2703 36.5085C41.2705 36.0334 41.4593 35.5777 41.7953 35.2418C42.1313 34.9058 42.5869 34.717 43.062 34.7168C43.5372 34.717 43.9928 34.9058 44.3288 35.2418C44.6647 35.5777 44.8536 36.0334 44.8538 36.5085Z" fill="currentColor"/>
        <path fill-rule="evenodd" clip-rule="evenodd" d="M4.93802 39.5872C6.63827 39.5872 8.01678 38.2088 8.01678 36.5085C8.01678 34.8083 6.63827 33.4298 4.93802 33.4298C4.12149 33.4299 3.33844 33.7543 2.76113 34.3318C2.18382 34.9092 1.85955 35.6923 1.85965 36.5089C1.85975 37.3254 2.18421 38.1085 2.76166 38.6858C3.33911 39.2631 4.12224 39.5873 4.93877 39.5872H4.93802ZM4.93802 38.301C4.46288 38.3008 4.00726 38.112 3.67129 37.776C3.33531 37.44 3.14647 36.9844 3.14627 36.5093C3.14647 36.0341 3.33531 35.5785 3.67129 35.2425C4.00726 34.9065 4.46288 34.7177 4.93802 34.7175C5.41317 34.7177 5.86879 34.9065 6.20476 35.2425C6.54074 35.5785 6.72958 36.0341 6.72977 36.5093C6.72958 36.9844 6.54074 37.44 6.20476 37.776C5.86879 38.112 5.41317 38.3008 4.93802 38.301ZM24.0225 6.15C25.7228 6.15 27.1013 4.7715 27.1013 3.07125C27.1013 1.371 25.722 0 24.0225 0C22.323 0 20.9438 1.3785 20.9438 3.07875C20.9438 4.779 22.3223 6.15 24.0225 6.15ZM24.0225 4.86375C23.5474 4.86355 23.0918 4.67471 22.7558 4.33874C22.4198 4.00276 22.231 3.54714 22.2308 3.072C22.231 2.59686 22.4198 2.14124 22.7558 1.80526C23.0918 1.46929 23.5474 1.28045 24.0225 1.28025C24.4977 1.28045 24.9533 1.46929 25.2893 1.80526C25.6252 2.14124 25.8141 2.59686 25.8143 3.072C25.8141 3.54714 25.6252 4.00276 25.2893 4.33874C24.9533 4.67471 24.4977 4.86355 24.0225 4.86375ZM24.492 27.3938C24.2053 27.4576 23.9088 27.4641 23.6196 27.4129C23.3304 27.3617 23.0541 27.2538 22.8068 27.0955C22.5594 26.9371 22.3458 26.7314 22.1783 26.4901C22.0107 26.2489 21.8925 25.9769 21.8305 25.6898C21.7685 25.4027 21.7639 25.1061 21.8169 24.8173C21.87 24.5284 21.9796 24.2528 22.1396 24.0065C22.2996 23.7601 22.5066 23.5478 22.749 23.3818C22.9913 23.2159 23.264 23.0994 23.5515 23.0392C23.8382 22.9754 24.1347 22.9689 24.4239 23.0201C24.7132 23.0713 24.9894 23.1792 25.2368 23.3375C25.4841 23.4959 25.6977 23.7016 25.8653 23.9429C26.0328 24.1841 26.151 24.4561 26.213 24.7432C26.275 25.0303 26.2796 25.3269 26.2266 25.6157C26.1736 25.9046 26.0639 26.1802 25.9039 26.4265C25.744 26.6729 25.5369 26.8852 25.2946 27.0512C25.0523 27.2171 24.7795 27.3336 24.492 27.3938Z" fill="currentColor"/>
    </g>
    <defs>
        <clipPath id="clip0_2720_10600">
            <rect width="48" height="48" fill="white"/>
        </clipPath>
    </defs>
</svg>
