<svg viewBox="0 0 48 28" fill="none" xmlns="http://www.w3.org/2000/svg">
    <path d="M48 27.1925C46.254 27.6365 45.174 27.212 44.205 25.757L37.314 16.223L36.318 14.903L28.2705 25.7885C27.351 27.098 26.3865 27.668 24.6705 27.2045L34.9755 13.3715L25.3815 0.876513C27.0315 0.555513 28.1715 0.719012 29.184 2.19651L36.3315 11.849L43.5315 2.24901C44.454 0.939513 45.4455 0.441513 47.1015 0.924513L43.3815 5.85651L38.3415 12.419C37.7415 13.169 37.824 13.682 38.376 14.4065L48 27.1925ZM0.012 13.1405L0.855 8.99451C3.15 0.789513 12.555 -2.61999 19.041 2.45001C22.8315 5.43201 23.7735 9.65001 23.586 14.375H2.22C1.899 22.88 8.0205 28.013 15.825 25.394C18.5625 24.4745 20.175 22.331 20.982 19.649C21.3915 18.305 22.0695 18.095 23.3325 18.479C22.6875 21.833 21.2325 24.635 18.1575 26.3885C13.563 29.0135 7.005 28.1645 3.555 24.5165C1.5 22.4 0.651 19.718 0.27 16.85C0.21 16.376 0.09 15.9245 0 15.47C0.008 14.694 0.012 13.918 0.012 13.142V13.1405ZM2.259 12.5705H21.567C21.441 6.42051 17.6115 2.05251 12.378 2.01501C6.633 1.97001 2.508 6.23451 2.259 12.5705Z" fill="currentColor"/>
</svg>
