<svg viewBox="0 0 46 40" fill="none" xmlns="http://www.w3.org/2000/svg">
    <mask id="mask0_2510_9725" style="mask-type:alpha" maskUnits="userSpaceOnUse" x="0" y="0" width="46" height="40">
        <path d="M6.62025 16.0119C6.4778 16.0119 6.33535 15.9644 6.19291 15.8932L2.20439 13.5903C1.82453 13.4003 1.65834 12.9492 1.80079 12.5456C1.96698 12.1183 2.4418 11.8809 2.89288 12.0471L3.03533 12.1183L7.02385 14.4212C7.42745 14.6349 7.59364 15.1572 7.37997 15.5608C7.23752 15.8457 6.95263 16.0119 6.62025 16.0119ZM13.5289 9.12691C13.2203 9.12691 12.9591 8.96072 12.793 8.69957L10.4901 4.71105C10.2764 4.35493 10.3476 3.88011 10.6563 3.59521C11.0124 3.28658 11.5347 3.33406 11.8433 3.69018C11.8671 3.73766 11.9145 3.7614 11.9383 3.80888L14.2412 7.7974C14.4786 8.17726 14.3836 8.67583 14.0275 8.96072C13.8613 9.07943 13.6951 9.12691 13.5289 9.12691ZM22.0758 5.70818V1.17361C22.0758 0.698788 22.4081 0.318928 22.883 0.271446C23.3578 0.247704 23.7377 0.603823 23.7614 1.07865V5.7794C23.7614 6.25423 23.3815 6.63409 22.9067 6.63409H22.8592C22.4319 6.56286 22.0758 6.15926 22.0758 5.70818ZM32.332 9.12691C32.1658 9.12691 31.9996 9.07943 31.8571 8.98446C31.501 8.72331 31.4061 8.201 31.6435 7.82115L33.9464 3.83262C34.1838 3.42902 34.7061 3.28658 35.1097 3.52399C35.1572 3.54773 35.2046 3.57147 35.2284 3.61896C35.537 3.90385 35.6082 4.37867 35.3946 4.73479L33.0917 8.72331C32.9255 8.96072 32.6406 9.12691 32.332 9.12691ZM39.2169 16.0119C38.9083 16.0119 38.6234 15.8457 38.4572 15.5608C38.2673 15.1334 38.4097 14.6349 38.8133 14.4212L42.7543 12.142C43.1105 11.9284 43.5615 11.9996 43.8464 12.3082C44.1551 12.6643 44.1076 13.1867 43.7515 13.4953C43.704 13.519 43.6802 13.5665 43.6328 13.5903L39.5968 15.9169C39.5255 15.9644 39.3831 16.0119 39.2169 16.0119Z" fill="black"/>
        <path d="M12.2232 35.2897C6.31166 29.3781 6.31166 19.7867 12.2232 13.8751C18.1348 7.96358 27.7262 7.96358 33.6378 13.8751C34.066 14.3035 34.4703 14.7553 34.8486 15.2284C35.1097 15.5608 35.3471 15.8931 35.5846 16.2493L34.1838 17.1752C33.9702 16.8665 33.7565 16.5579 33.5191 16.273C33.1867 15.8457 32.8306 15.4421 32.4507 15.0622C27.2039 9.81539 18.6808 9.81539 13.4103 15.0622C8.16347 20.309 8.16347 28.8321 13.4103 34.1026L12.2232 35.2897Z" fill="url(#paint0_linear_2510_9725)"/>
        <path d="M33.7327 39.7293H10.4188C5.00586 39.6818 0.661216 35.2897 0.708699 29.8767L2.39432 29.9005C2.37058 34.3638 5.9555 38.02 10.4188 38.0674H33.709C39.1694 38.0674 43.5853 33.6516 43.609 28.1911C43.609 25.7695 42.7069 23.4191 41.0925 21.5911L42.3507 20.4752C46.6004 25.2472 46.1968 32.5595 41.4486 36.8092C39.3119 38.6847 36.5816 39.7293 33.7327 39.7293Z" fill="black"/>
        <path d="M2.39418 29.8767L0.708557 29.853C0.732298 25.1047 4.17477 21.0687 8.85178 20.2853L9.13668 21.9472C5.26687 22.6119 2.41792 25.9594 2.39418 29.8767Z" fill="url(#paint1_linear_2510_9725)"/>
        <path d="M23.8326 28.0725L22.147 28.0488C22.1945 21.6624 27.4175 16.5106 33.8039 16.558C37.0564 16.5818 40.1665 17.9825 42.3507 20.4041L41.0924 21.5199C37.46 17.4602 31.1924 17.1041 27.1326 20.7365C25.0671 22.6358 23.8563 25.2948 23.8326 28.0725Z" fill="url(#paint2_linear_2510_9725)"/>
    </mask>
    <g mask="url(#mask0_2510_9725)">
        <path d="M-0.999939 0.0132446H47.0001V39.9868H-0.999939V0.0132446Z" fill="currentColor"/>
    </g>
    <defs>
        <linearGradient id="paint0_linear_2510_9725" x1="24.4594" y1="26.7246" x2="14.2597" y2="12.1582" gradientUnits="userSpaceOnUse">
            <stop offset="0.2" stop-opacity="0"/>
            <stop offset="0.287" stop-opacity="0.03"/>
            <stop offset="0.501" stop-opacity="0.2"/>
            <stop offset="0.793" stop-opacity="0.742"/>
            <stop offset="1"/>
        </linearGradient>
        <linearGradient id="paint1_linear_2510_9725" x1="-0.299494" y1="28.1479" x2="9.96287" y2="22.2228" gradientUnits="userSpaceOnUse">
            <stop offset="0.08"/>
            <stop offset="0.753" stop-opacity="0.07"/>
            <stop offset="0.875" stop-opacity="0"/>
        </linearGradient>
        <linearGradient id="paint2_linear_2510_9725" x1="23.1581" y1="29.266" x2="38.7682" y2="16.1675" gradientUnits="userSpaceOnUse">
            <stop offset="0.138" stop-opacity="0"/>
            <stop offset="0.32" stop-opacity="0.07"/>
            <stop offset="0.847" stop-opacity="0.764"/>
            <stop offset="0.947"/>
        </linearGradient>
    </defs>
</svg>
