<svg viewBox="0 0 13 16" fill="none" xmlns="http://www.w3.org/2000/svg">
    <path d="M10.8379 15.3599C10.0011 16.2015 9.07781 16.0703 8.19776 15.6735C7.26213 15.2687 6.40678 15.2431 5.41866 15.6735C4.18814 16.2239 3.53505 16.0639 2.79396 15.3599C-1.39013 10.896 -0.772551 4.09599 3.98279 3.83999C5.13612 3.90399 5.9436 4.50078 6.62294 4.55038C7.63267 4.33758 8.59918 3.72799 9.67994 3.80799C10.9784 3.91679 11.9495 4.44798 12.598 5.40318C9.92697 7.06718 10.56 10.7152 13.0133 11.7392C12.5223 13.0752 11.8924 14.3952 10.8364 15.3712L10.8379 15.3599ZM6.5303 3.79199C6.40524 1.80799 7.9569 0.175998 9.7417 0.0159988C9.98719 2.30399 7.73458 4.01599 6.5303 3.79199Z" fill="currentColor"/>
</svg>
