<svg viewBox="0 0 41 41" fill="none" xmlns="http://www.w3.org/2000/svg">
    <path d="M37.6881 0.600006H3.11549C1.72699 0.600006 0.599976 1.72702 0.599976 3.11552V37.6845C0.599976 39.073 1.72699 40.2 3.11549 40.2H37.6845C39.073 40.2 40.2 39.073 40.2 37.6882V3.11552C40.2 1.72702 39.073 0.600006 37.6881 0.600006ZM22.2857 30.9445C22.2857 34.7123 20.0759 36.4286 16.8495 36.4286C13.9326 36.4286 11.8296 34.4729 10.9714 32.6571L13.9362 30.8635C14.5071 31.8763 15.3763 32.6571 16.6285 32.6571C17.8255 32.6571 18.5143 32.1894 18.5143 30.37V18.5143H22.2857V30.9445ZM30.4657 36.4286C27.1252 36.4286 25.2284 34.7454 24.1714 32.6571L27 30.7714C27.7697 32.031 28.6095 33.2354 30.3847 33.2354C31.8763 33.2354 32.6571 32.4914 32.6571 31.4602C32.6571 30.23 31.8468 29.7917 30.2079 29.0736L29.3092 28.6868C26.7127 27.5819 24.9854 26.1971 24.9854 23.2654C24.9854 20.5694 27.0442 18.5143 30.2558 18.5143C32.5429 18.5143 34.1856 19.3098 35.3715 21.3944L32.5724 23.1954C31.9537 22.0868 31.2907 21.6522 30.2558 21.6522C29.2024 21.6522 28.5358 22.3225 28.5358 23.1954C28.5358 24.2746 29.2024 24.7092 30.7456 25.3795L31.6443 25.7662C34.7049 27.0737 36.4285 28.4106 36.4285 31.416C36.4285 34.6534 33.8836 36.4286 30.4657 36.4286Z" fill="currentColor" />
</svg>
