<svg viewBox="0 0 47 48" fill="none" xmlns="http://www.w3.org/2000/svg">
    <path d="M35.4423 34.9423C35.7477 32.3988 35.6562 32.0258 37.5507 32.4378L38.0317 32.48C39.4884 32.5463 41.3941 32.2457 42.5136 31.7256C44.9236 30.6074 46.3527 28.7403 43.9763 29.2309C38.5557 30.3491 38.183 28.5137 38.183 28.5137C43.9069 20.0209 46.2997 9.24008 44.2343 6.60116C38.6011 -0.596848 28.85 2.80693 28.6869 2.8953L28.6349 2.90489C27.5639 2.68267 26.3652 2.54989 25.0187 2.52812C22.5657 2.48781 20.7044 3.1712 19.2924 4.24213C19.2924 4.24213 1.89711 -2.92452 2.70637 13.2549C2.87848 16.6967 7.63987 39.2987 13.3187 32.4718C15.3943 29.9755 17.4002 27.8648 17.4002 27.8648C18.3962 28.5265 19.5887 28.864 20.8394 28.7428L20.9361 28.6603C20.9058 28.9703 20.9192 29.2735 20.9748 29.6323C19.5121 31.2669 19.9419 31.5539 17.017 32.1559C14.0579 32.7658 15.7964 33.8516 16.9311 34.1354C18.3072 34.4795 21.4905 34.967 23.6419 31.9558L23.5562 32.2994C24.1301 32.7585 24.0913 35.5993 24.1727 37.629C24.2542 39.6587 24.3901 41.5528 24.8038 42.6696C25.2176 43.7861 25.7058 46.6625 29.5497 45.8387C32.7623 45.1503 35.2185 44.1594 35.4423 34.9422" fill="black"/>
    <path d="M35.4423 34.9423C35.7477 32.3988 35.6562 32.0258 37.5507 32.4378L38.0317 32.48C39.4884 32.5463 41.3941 32.2457 42.5136 31.7256C44.9236 30.6074 46.3527 28.7403 43.9763 29.2309C38.5557 30.3491 38.183 28.5137 38.183 28.5137C43.9069 20.0209 46.2997 9.24008 44.2343 6.60116C38.6011 -0.596848 28.85 2.80693 28.6869 2.8953L28.6349 2.90489C27.5639 2.68267 26.3652 2.54989 25.0187 2.52812C22.5657 2.48781 20.7044 3.1712 19.2924 4.24213C19.2924 4.24213 1.89711 -2.92452 2.70637 13.2549C2.87848 16.6967 7.63987 39.2987 13.3187 32.4718C15.3943 29.9755 17.4002 27.8648 17.4002 27.8648C18.3962 28.5265 19.5887 28.864 20.8394 28.7428L20.9361 28.6603C20.9058 28.9703 20.9192 29.2735 20.9748 29.6323C19.5121 31.2669 19.9419 31.5539 17.017 32.1559C14.0579 32.7658 15.7964 33.8516 16.9311 34.1354C18.3072 34.4795 21.4905 34.967 23.6419 31.9558L23.5562 32.2994C24.1301 32.7585 24.0913 35.5993 24.1727 37.629C24.2542 39.6587 24.3901 41.5528 24.8038 42.6696C25.2176 43.7861 25.7058 46.6625 29.5497 45.8387C32.7623 45.1503 35.2185 44.1594 35.4423 34.9422" stroke="black" stroke-width="3.37541"/>
    <path d="M43.9769 29.2308C38.5558 30.3491 38.1831 28.5136 38.1831 28.5136C43.907 20.0203 46.2998 9.23926 44.2348 6.60067C38.6016 -0.596909 28.8501 2.80708 28.6874 2.89546L28.635 2.90483C27.564 2.6825 26.3653 2.55005 25.0182 2.52806C22.5652 2.48786 20.7045 3.17114 19.2925 4.24186C19.2925 4.24186 1.89688 -2.92447 2.70593 13.2549C2.87804 16.6969 7.63932 39.2988 13.3184 32.472C15.3941 29.9756 17.3996 27.8649 17.3996 27.8649C18.3958 28.5266 19.5883 28.8642 20.8384 28.7429L20.9355 28.6605C20.9053 28.9705 20.9191 29.2736 20.9744 29.6325C19.5114 31.2671 19.9413 31.5541 17.0167 32.1561C14.0574 32.766 15.7959 33.8518 16.9309 34.1356C18.307 34.4797 21.4904 34.9671 23.6415 31.956L23.5557 32.2995C24.1289 32.7587 24.5315 35.286 24.464 37.577C24.3965 39.8682 24.3515 41.4411 24.8032 42.6697C25.2548 43.8983 25.705 46.6627 29.5497 45.8389C32.7623 45.1504 34.427 43.3664 34.6586 40.3904C34.823 38.2748 35.1949 38.5875 35.2184 36.696L35.5167 35.8005C35.8607 32.9326 35.5713 32.0074 37.5506 32.4377L38.0316 32.48C39.4883 32.5462 41.3949 32.2457 42.5139 31.7255C44.9235 30.6073 46.3526 28.7403 43.9767 29.2308H43.9769Z" fill="#121213"/>
    <path d="M23.8742 30.8749C23.7249 36.2114 23.9117 41.585 24.4338 42.891C24.9563 44.197 26.0745 46.7372 29.9194 45.9135C33.1317 45.2248 34.3005 43.8921 34.8077 40.9504C35.1812 38.7862 35.9014 32.7755 35.9937 31.544" stroke="white" stroke-width="1.12514" stroke-linecap="round" stroke-linejoin="round"/>
    <path d="M19.2657 4.12297C19.2657 4.12297 1.85815 -2.99173 2.66741 13.1876C2.83952 16.6296 7.60113 39.2323 13.2801 32.4052C15.3554 29.9085 17.2322 27.9504 17.2322 27.9504" stroke="white" stroke-width="1.12514" stroke-linecap="round" stroke-linejoin="round"/>
    <path d="M28.6682 2.8245C28.0657 3.01343 38.3514 -0.935568 44.1968 6.53371C46.2616 9.17241 43.8689 19.9534 38.1451 28.447" stroke="white" stroke-width="1.12514" stroke-linecap="round" stroke-linejoin="round"/>
    <path d="M38.1451 28.4468C38.1451 28.4468 38.5181 30.2828 43.9393 29.1638C46.3146 28.6732 44.8852 30.5404 42.4761 31.6592C40.499 32.5768 36.0665 32.812 35.994 31.544C35.8077 28.2726 38.327 29.2665 38.1452 28.4468C37.9808 27.7085 36.8542 26.984 36.1089 25.1772C35.4583 23.6001 27.1858 11.5063 38.4031 13.3025C38.814 13.2174 35.4775 2.63278 24.9797 2.46067C14.4843 2.28856 14.8286 15.3677 14.8286 15.3677" stroke="white" stroke-width="1.12514" stroke-linecap="round" stroke-linejoin="bevel"/>
    <path d="M20.9361 29.5654C19.4729 31.1999 19.9032 31.4869 16.9784 32.0891C14.019 32.6991 15.7577 33.7847 16.8925 34.0684C18.2685 34.4127 21.452 34.9002 23.603 31.8882C24.2581 30.9712 23.5992 29.508 22.6994 29.135C22.2646 28.9549 21.6833 28.7292 20.9361 29.5654V29.5654Z" stroke="white" stroke-width="1.12514" stroke-linecap="round" stroke-linejoin="round"/>
    <path d="M20.8403 29.5371C20.6929 28.5761 21.1561 27.4326 21.6525 26.0947C22.3985 24.0873 24.1197 22.0796 22.7428 15.712C21.7165 10.9669 14.8327 14.7245 14.8284 15.3679C14.8242 16.0111 15.1398 18.6291 14.7134 21.6777C14.1571 25.6559 17.2448 29.0205 20.8003 28.6763" stroke="white" stroke-width="1.12514" stroke-linecap="round" stroke-linejoin="round"/>
    <path d="M19.2024 15.2711C19.1714 15.4908 19.6047 16.0772 20.1698 16.1556C20.7339 16.2343 21.2167 15.776 21.2473 15.5565C21.2779 15.3367 20.8451 15.0947 20.2798 15.016C19.7154 14.9372 19.2324 15.0519 19.2025 15.2711H19.2024Z" fill="white" stroke="white" stroke-width="0.375043"/>
    <path d="M36.3839 14.8233C36.4145 15.0431 35.9817 15.6295 35.4165 15.7078C34.852 15.7865 34.3692 15.3282 34.3383 15.1087C34.3084 14.889 34.7413 14.6469 35.306 14.5682C35.8706 14.4895 36.3533 14.6041 36.3839 14.8234V14.8233Z" fill="white" stroke="white" stroke-width="0.187521"/>
    <path d="M38.4031 13.3027C38.4961 15.0264 38.0318 16.2005 37.9733 18.0354C37.8866 20.7026 39.2449 23.7553 37.1983 26.8119" stroke="white" stroke-width="1.12514" stroke-linecap="round" stroke-linejoin="round"/>
</svg>
