<svg viewBox="0 0 46 42" fill="none" xmlns="http://www.w3.org/2000/svg">
    <path d="M32.1724 0.825029C31.4239 0.799861 30.6404 0.930358 29.8549 1.18503C28.2838 1.69437 26.6375 2.68696 24.948 4.06128C24.2859 4.59988 23.6178 5.21555 22.9474 5.86878C22.2918 5.23213 21.6374 4.63111 20.9899 4.1044C19.3017 2.73119 17.6599 1.74009 16.0924 1.2319C14.5249 0.723714 12.9652 0.707967 11.6843 1.44753C10.4033 2.18709 9.63729 3.54469 9.29365 5.15628C8.95 6.76787 8.98598 8.68706 9.33115 10.8357C9.45104 11.582 9.6239 12.3649 9.81865 13.1625C9.08671 13.3844 8.37591 13.6176 7.71677 13.875C5.72756 14.652 4.08161 15.5815 2.88302 16.6875C1.68444 17.7936 0.910522 19.136 0.910522 20.61C0.910522 22.0841 1.68444 23.4246 2.88302 24.5307C4.08161 25.6367 5.72756 26.5681 7.71677 27.345C8.42158 27.6203 9.18465 27.8682 9.9724 28.1025C9.68905 29.1613 9.45948 30.1886 9.30302 31.1625C8.95758 33.3129 8.9211 35.2323 9.26552 36.8475C9.60995 38.4628 10.3764 39.8281 11.6636 40.5713C12.9509 41.3145 14.5176 41.2963 16.0886 40.7869C17.6597 40.2776 19.3041 39.2869 20.9937 37.9125C21.6497 37.3789 22.3133 36.7701 22.9774 36.1238C23.6447 36.7737 24.3116 37.3859 24.9705 37.9219C26.6587 39.2951 28.3024 40.2862 29.8699 40.7944C31.4374 41.3026 32.9952 41.3183 34.2762 40.5788C35.5571 39.8392 36.3231 38.4816 36.6668 36.87C37.0104 35.2584 36.9726 33.3392 36.6274 31.1907C36.4705 30.2141 36.2408 29.1852 35.9562 28.1232C36.7699 27.8831 37.5571 27.6286 38.283 27.345C40.2722 26.5681 41.9182 25.6367 43.1168 24.5307C44.3154 23.4246 45.0893 22.0841 45.0893 20.61C45.0893 19.136 44.3154 17.7936 43.1168 16.6875C41.9182 15.5815 40.2722 14.652 38.283 13.875C37.6144 13.6139 36.8927 13.3776 36.1493 13.1532C36.3456 12.3506 36.5199 11.5621 36.6405 10.8113C36.986 8.66096 37.0225 6.73965 36.678 5.1244C36.3336 3.50916 35.5653 2.14575 34.278 1.40253C33.6344 1.03092 32.9209 0.850197 32.1724 0.825029ZM32.0843 2.77878C32.554 2.79162 32.9547 2.90339 33.2974 3.10128C33.9829 3.49705 34.4896 4.26732 34.7599 5.53503C35.0302 6.80274 35.0209 8.51555 34.7018 10.5019C34.5925 11.182 34.4339 11.9028 34.2537 12.6413C32.2905 12.1688 30.1394 11.818 27.8468 11.6119C26.695 10.0162 25.5112 8.56455 24.318 7.27503C24.9489 6.65923 25.5756 6.08329 26.1874 5.58565C27.7481 4.31613 29.2256 3.45228 30.4587 3.05253C31.0752 2.85265 31.6146 2.76594 32.0843 2.77878ZM13.8668 2.7844C14.3392 2.77122 14.8797 2.8577 15.498 3.05815C16.7346 3.45906 18.2147 4.32252 19.7768 5.59315C20.3761 6.08068 20.9891 6.64407 21.6068 7.24503C20.405 8.54478 19.2129 10.0116 18.0536 11.6213C15.7692 11.8312 13.6257 12.1853 11.6711 12.66C11.4921 11.9251 11.3356 11.2072 11.2268 10.53C10.9074 8.54195 10.8994 6.82702 11.1705 5.55566C11.4416 4.28429 11.9524 3.51008 12.6443 3.11065C12.9902 2.91094 13.3944 2.79759 13.8668 2.7844ZM22.9774 8.65691C23.7593 9.50785 24.5417 10.4394 25.3174 11.4413C24.5551 11.4095 23.7835 11.3907 22.9999 11.3907C22.2007 11.3907 21.4144 11.4101 20.6374 11.4432C21.4134 10.4403 22.1952 9.50858 22.9774 8.65691ZM22.9999 13.3294C24.3054 13.3294 25.5778 13.3831 26.8155 13.4738C27.6672 14.697 28.4994 15.9946 29.2924 17.3682C29.9892 18.575 30.6197 19.78 31.1937 20.97C30.6137 22.1758 29.9726 23.3971 29.2662 24.6207C28.6443 25.6977 27.995 26.7206 27.3349 27.7069C25.9368 27.8238 24.4882 27.8888 22.9999 27.8888C21.4758 27.8888 19.9946 27.8199 18.5655 27.6975C17.9165 26.7254 17.278 25.7161 16.6662 24.6563C15.9614 23.4355 15.3233 22.2183 14.7443 21.015C15.3258 19.8049 15.9667 18.5791 16.6755 17.3513C17.4644 15.985 18.2942 14.6948 19.1411 13.4775C20.3922 13.3848 21.6794 13.3294 22.9999 13.3294ZM29.2887 13.7138C30.8705 13.9112 32.3557 14.1855 33.738 14.5144C33.3277 15.8595 32.8223 17.2645 32.2099 18.7144C31.8123 17.9479 31.4005 17.1788 30.9555 16.4082C30.4166 15.4747 29.8562 14.5834 29.2887 13.7138ZM16.6099 13.7288C16.054 14.5825 15.5069 15.4556 14.9787 16.3707C14.528 17.1512 14.1076 17.9307 13.7055 18.7069C13.0984 17.2657 12.596 15.8687 12.1886 14.5313C13.5612 14.2017 15.0384 13.9285 16.6099 13.7288ZM35.6374 15.0244C36.3179 15.2303 36.9752 15.4452 37.578 15.6807C39.4118 16.3969 40.8623 17.245 41.8024 18.1125C42.7425 18.9801 43.1505 19.8074 43.1505 20.61C43.1505 21.4126 42.7425 22.24 41.8024 23.1075C40.8623 23.9751 39.4118 24.8232 37.578 25.5394C36.9081 25.8011 36.172 26.0383 35.4068 26.2632C34.8609 24.5747 34.1641 22.8133 33.3349 21.015C34.2883 18.9505 35.0585 16.9376 35.6374 15.0244ZM10.3305 15.0338C10.9027 16.9278 11.6631 18.9209 12.603 20.9644C11.7684 22.7731 11.0681 24.5446 10.5199 26.2425C9.78162 26.0236 9.0705 25.7928 8.42177 25.5394C6.58803 24.8232 5.13751 23.9751 4.1974 23.1075C3.25728 22.24 2.84927 21.4126 2.84927 20.61C2.84927 19.8074 3.25728 18.9801 4.1974 18.1125C5.13751 17.245 6.58803 16.3969 8.42177 15.6807C9.01536 15.4488 9.66158 15.237 10.3305 15.0338ZM22.9999 16.2C20.3603 16.2 18.1999 18.3604 18.1999 21C18.1999 23.6396 20.3603 25.8 22.9999 25.8C25.6395 25.8 27.7999 23.6396 27.7999 21C27.7999 18.3604 25.6395 16.2 22.9999 16.2ZM22.9999 18.12C24.6019 18.12 25.8799 19.3981 25.8799 21C25.8799 22.602 24.6019 23.88 22.9999 23.88C21.3979 23.88 20.1199 22.602 20.1199 21C20.1199 19.3981 21.3979 18.12 22.9999 18.12ZM32.2343 23.2688C32.7378 24.4603 33.1754 25.6263 33.543 26.7507C32.3885 27.0184 31.1592 27.2439 29.8662 27.4219C30.2384 26.828 30.606 26.223 30.9649 25.6013C31.4148 24.822 31.8327 24.0437 32.2343 23.2688ZM13.728 23.2707C14.1317 24.0504 14.5522 24.8321 15.0049 25.6163C15.3593 26.2302 15.7212 26.8295 16.0886 27.4163C14.7994 27.2375 13.5739 27.0112 12.423 26.7432C12.789 25.6222 13.2269 24.4587 13.728 23.2707ZM11.8699 28.6069C13.6073 29.0185 15.4905 29.3347 17.4874 29.5407C18.8207 31.4691 20.2089 33.201 21.6068 34.7157C20.9818 35.325 20.3624 35.8969 19.7562 36.39C18.1955 37.6596 16.7161 38.5215 15.483 38.9213C14.25 39.321 13.3298 39.2683 12.6443 38.8725C11.9588 38.4768 11.454 37.7065 11.1836 36.4388C10.9133 35.1711 10.9208 33.4601 11.2399 31.4738C11.3847 30.5727 11.601 29.6078 11.8699 28.6069ZM34.098 28.6144C34.369 29.6208 34.5862 30.5903 34.7318 31.4963C35.0512 33.4844 35.0591 35.1974 34.788 36.4688C34.5169 37.7402 34.008 38.5162 33.3162 38.9157C32.6243 39.3151 31.6971 39.3691 30.4605 38.9682C29.2239 38.5673 27.7438 37.7019 26.1818 36.4313C25.5712 35.9346 24.9475 35.36 24.318 34.7457C25.725 33.2252 27.1236 31.484 28.4655 29.5444C30.4675 29.3398 32.3559 29.0255 34.098 28.6144ZM19.9924 29.7375C20.9781 29.7913 21.9768 29.8275 22.9999 29.8275C23.9892 29.8275 24.9555 29.7934 25.9099 29.7432C24.9343 31.0595 23.9398 32.2562 22.9493 33.3338C21.9594 32.2539 20.9668 31.055 19.9924 29.7375Z" fill="currentColor"/>
</svg>
