<svg viewBox="0 0 42 42" fill="none" xmlns="http://www.w3.org/2000/svg">
    <path d="M40.2001 0.840027H1.80009C1.26921 0.840027 0.840088 1.27011 0.840088 1.80003V40.2C0.840088 40.7299 1.26921 41.16 1.80009 41.16H40.2001C40.731 41.16 41.1601 40.7299 41.1601 40.2V1.80003C41.1601 1.27011 40.731 0.840027 40.2001 0.840027ZM24.8401 22.3872H20.0401V37.32H16.2001V22.3872H11.4001V19.08H24.8401V22.3872ZM25.9162 36.4675V32.4759C25.9162 32.4759 28.0964 34.1194 30.7124 34.1194C33.3284 34.1194 33.2276 32.4087 33.2276 32.1744C33.2276 29.6919 25.8154 29.6919 25.8154 24.192C25.8154 16.7127 36.6154 19.6637 36.6154 19.6637L36.481 23.2195C36.481 23.2195 34.6695 22.0119 32.6238 22.0119C30.578 22.0119 29.8398 22.9843 29.8398 24.024C29.8398 26.7072 37.3191 26.4394 37.3191 31.8394C37.3201 40.1568 25.9162 36.4675 25.9162 36.4675Z" fill="currentColor"/>
</svg>
