<svg width="14" height="14" viewBox="0 0 14 14" fill="none" xmlns="http://www.w3.org/2000/svg">
<path d="M3.98145 0.114683C3.94922 0.118675 3.91757 0.129171 3.8877 0.146421C3.7682 0.215421 3.7269 0.36823 3.7959 0.48773L4.46826 1.65228C3.60558 2.33718 2.99358 3.35282 2.81152 4.49994H11.2051C11.0466 3.32619 10.4321 2.30176 9.5498 1.62152L10.2041 0.48773C10.2731 0.36823 10.2318 0.215421 10.1123 0.146421C9.9928 0.0774215 9.84 0.11823 9.771 0.23773L9.1333 1.34222C8.52814 0.980649 7.82964 0.76527 7.08105 0.750914C6.27739 0.73555 5.52349 0.961224 4.87744 1.36078L4.229 0.23773C4.17725 0.148105 4.07812 0.102707 3.98145 0.114683ZM5.125 2.49994C5.332 2.49994 5.5 2.66794 5.5 2.87494C5.5 3.08194 5.332 3.24994 5.125 3.24994C4.918 3.24994 4.75 3.08194 4.75 2.87494C4.75 2.66794 4.918 2.49994 5.125 2.49994ZM8.875 2.49994C9.082 2.49994 9.25 2.66794 9.25 2.87494C9.25 3.08194 9.082 3.24994 8.875 3.24994C8.668 3.24994 8.5 3.08194 8.5 2.87494C8.5 2.66794 8.668 2.49994 8.875 2.49994ZM2.75977 5.01361C2.75677 5.08011 2.75 5.14583 2.75 5.21283V10.4765C2.75 11.0415 3.19775 11.4999 3.75 11.4999H4.5V13.1249C4.5 13.4702 4.77975 13.7499 5.125 13.7499C5.47025 13.7499 5.75 13.4702 5.75 13.1249V11.4999H8.25V13.1249C8.25 13.4702 8.52975 13.7499 8.875 13.7499C9.22025 13.7499 9.5 13.4702 9.5 13.1249V11.4999H10.25C10.8022 11.4999 11.25 11.0415 11.25 10.4765V5.23675L2.75977 5.01361ZM1.375 5.24994C1.02975 5.24994 0.75 5.52969 0.75 5.87494V7.87494C0.75 8.22019 1.02975 8.49994 1.375 8.49994C1.72025 8.49994 2 8.22019 2 7.87494V5.87494C2 5.52969 1.72025 5.24994 1.375 5.24994ZM12.625 5.24994C12.2797 5.24994 12 5.52969 12 5.87494V7.87494C12 8.22019 12.2797 8.49994 12.625 8.49994C12.9703 8.49994 13.25 8.22019 13.25 7.87494V5.87494C13.25 5.52969 12.9703 5.24994 12.625 5.24994Z" fill="white"/>
</svg>
