<svg width="13" height="16" viewBox="0 0 13 16" fill="none" xmlns="http://www.w3.org/2000/svg">
<path d="M10.8379 15.3601C10.0011 16.2017 9.07781 16.0705 8.19776 15.6737C7.26213 15.2689 6.40678 15.2433 5.41866 15.6737C4.18814 16.2241 3.53505 16.0641 2.79396 15.3601C-1.39013 10.8961 -0.772551 4.0961 3.98279 3.8401C5.13612 3.9041 5.9436 4.5009 6.62294 4.5505C7.63267 4.3377 8.59918 3.7281 9.67994 3.8081C10.9784 3.9169 11.9495 4.4481 12.598 5.4033C9.92697 7.06729 10.56 10.7153 13.0133 11.7393C12.5223 13.0753 11.8924 14.3953 10.8364 15.3713L10.8379 15.3601ZM6.5303 3.7921C6.40524 1.80811 7.9569 0.176113 9.7417 0.0161133C9.98719 2.30411 7.73458 4.0161 6.5303 3.7921Z" fill="white"/>
</svg>
