<svg width="16" height="15" viewBox="0 0 16 15" fill="none" xmlns="http://www.w3.org/2000/svg">
<path d="M13.0688 4.5376C12.9 4.48135 12.7312 4.42822 12.5625 4.37822C12.5906 4.2626 12.6156 4.14697 12.6406 4.03135C13.025 2.16885 12.7719 0.671973 11.9187 0.178223C11.0969 -0.293653 9.75625 0.196972 8.4 1.37822C8.26562 1.49385 8.13437 1.61572 8.00937 1.7376C7.925 1.65635 7.8375 1.5751 7.75 1.49697C6.32812 0.234473 4.90313 -0.296777 4.05 0.200098C3.23125 0.675098 2.9875 2.08447 3.33125 3.84697C3.36562 4.02197 3.40313 4.19385 3.44688 4.36885C3.24688 4.4251 3.05 4.4876 2.86562 4.55322C1.19687 5.13135 0 6.04385 0 6.9876C0 7.9626 1.275 8.94072 3.00938 9.53447C3.15 9.58135 3.29063 9.62822 3.43438 9.66885C3.3875 9.85635 3.34687 10.0407 3.30938 10.2313C2.98125 11.9657 3.2375 13.3407 4.05625 13.8126C4.9 14.3001 6.31875 13.8001 7.7 12.5907C7.80937 12.4938 7.91875 12.3938 8.02812 12.2876C8.16562 12.422 8.30937 12.5501 8.45312 12.6751C9.79062 13.8251 11.1125 14.2907 11.9281 13.8188C12.7719 13.3313 13.0469 11.8532 12.6906 10.0532C12.6625 9.91572 12.6313 9.7751 12.5969 9.63135C12.6969 9.60322 12.7937 9.57197 12.8906 9.54072C14.6938 8.94385 16 7.97822 16 6.9876C16 6.04072 14.7688 5.12197 13.0688 4.5376ZM8.84062 1.88447C10.0031 0.871973 11.0875 0.475097 11.5813 0.759472C12.1094 1.0626 12.3125 2.2876 11.9812 3.89697C11.9594 4.00322 11.9375 4.10635 11.9094 4.20947C11.2156 4.05322 10.5125 3.94072 9.80625 3.87822C9.4 3.29697 8.95625 2.74072 8.475 2.21885C8.59688 2.10322 8.71562 1.99385 8.84062 1.88447ZM4.77812 7.79385C4.92188 8.06885 5.06875 8.34072 5.225 8.60947C5.38438 8.88135 5.54688 9.15322 5.71875 9.41885C5.23125 9.36572 4.74688 9.2876 4.26875 9.18447C4.40625 8.73447 4.57812 8.26885 4.77812 7.79385ZM4.77812 6.2126C4.58125 5.74697 4.41562 5.29072 4.27812 4.8501C4.72812 4.7501 5.20625 4.66885 5.70312 4.60635C5.5375 4.86572 5.375 5.13135 5.22188 5.4001C5.06875 5.66572 4.91875 5.9376 4.77812 6.2126ZM5.13438 7.00322C5.34063 6.57197 5.56562 6.1501 5.80312 5.73447C6.04063 5.31885 6.29688 4.91572 6.56563 4.51885C7.03438 4.48447 7.5125 4.46572 8 4.46572C8.4875 4.46572 8.96875 4.48447 9.43437 4.51885C9.7 4.9126 9.95312 5.31572 10.1938 5.72822C10.4344 6.14072 10.6594 6.5626 10.8719 6.99072C10.6625 7.42197 10.4375 7.84697 10.1969 8.26572C9.95937 8.68135 9.70625 9.08447 9.44063 9.48447C8.975 9.51885 8.49063 9.53447 8 9.53447C7.50938 9.53447 7.03437 9.51885 6.575 9.49072C6.30312 9.09385 6.04688 8.6876 5.80625 8.27197C5.56563 7.85635 5.34375 7.43447 5.13438 7.00322ZM10.7781 8.60322C10.9375 8.32822 11.0875 8.0501 11.2344 7.76885C11.4344 8.22197 11.6094 8.68135 11.7625 9.15322C11.2781 9.2626 10.7875 9.34697 10.2937 9.40322C10.4625 9.14072 10.6219 8.87197 10.7781 8.60322ZM11.2281 6.2126C11.0812 5.9376 10.9312 5.6626 10.775 5.39385C10.6219 5.12822 10.4625 4.86572 10.2969 4.60635C10.8 4.66885 11.2812 4.75322 11.7312 4.85635C11.5875 5.31885 11.4187 5.76885 11.2281 6.2126ZM8.00625 2.69697C8.33438 3.05322 8.64375 3.42822 8.93125 3.81572C8.3125 3.7876 7.69063 3.7876 7.07188 3.81572C7.37813 3.4126 7.69375 3.0376 8.00625 2.69697ZM4.38125 0.781348C4.90625 0.475098 6.07188 0.912598 7.3 2.0001C7.37813 2.06885 7.45625 2.14385 7.5375 2.21885C7.05312 2.74072 6.60625 3.29697 6.19688 3.87822C5.49062 3.94072 4.79063 4.0501 4.09688 4.20322C4.05625 4.04385 4.02187 3.88135 3.9875 3.71885C3.69375 2.20635 3.8875 1.06572 4.38125 0.781348ZM3.61562 9.01885C3.48438 8.98135 3.35625 8.94072 3.22813 8.89697C2.5625 8.6876 1.80625 8.35635 1.25937 7.92197C0.94375 7.70322 0.73125 7.36572 0.671875 6.9876C0.671875 6.41572 1.65937 5.68447 3.08437 5.1876C3.2625 5.1251 3.44375 5.06885 3.625 5.01572C3.8375 5.69385 4.09375 6.35947 4.39062 7.00322C4.09062 7.65635 3.83125 8.33135 3.61562 9.01885ZM7.25938 12.0813C6.74375 12.5532 6.14687 12.9282 5.49687 13.1845C5.15 13.3501 4.75 13.3657 4.39375 13.2251C3.89688 12.9376 3.69062 11.8345 3.97187 10.3501C4.00625 10.1751 4.04375 10.0001 4.0875 9.82822C4.7875 9.97822 5.49375 10.0813 6.20937 10.1345C6.62187 10.7188 7.075 11.2782 7.55937 11.8032C7.45937 11.9001 7.35938 11.9938 7.25938 12.0813ZM8.025 11.322C7.70625 10.9782 7.3875 10.597 7.07812 10.1876C7.37813 10.2001 7.6875 10.2063 8 10.2063C8.32187 10.2063 8.6375 10.2001 8.95 10.1845C8.6625 10.5813 8.35312 10.9595 8.025 11.322ZM12.1094 12.2595C12.0813 12.6407 11.8938 12.997 11.5938 13.2376C11.0969 13.5251 10.0375 13.1501 8.89375 12.1688C8.7625 12.0563 8.63125 11.9345 8.49687 11.8095C8.975 11.2813 9.41563 10.722 9.81563 10.1345C10.5312 10.0751 11.2437 9.96572 11.9469 9.80635C11.9781 9.93447 12.0063 10.0626 12.0312 10.1876C12.1844 10.8626 12.2094 11.5657 12.1094 12.2595ZM12.6781 8.9001C12.5906 8.92822 12.5031 8.95635 12.4125 8.98135C12.1938 8.3001 11.925 7.63447 11.6156 6.9876C11.9156 6.3501 12.1688 5.69385 12.3813 5.02197C12.5438 5.06885 12.7 5.11885 12.85 5.16885C14.3063 5.66885 15.3281 6.4126 15.3281 6.98135C15.3281 7.59385 14.2375 8.38447 12.6781 8.9001ZM8 5.56885C8.79062 5.56885 9.43125 6.20947 9.43125 7.0001C9.43125 7.79072 8.79062 8.43135 8 8.43135C7.20937 8.43135 6.56875 7.79072 6.56875 7.0001C6.56875 6.20947 7.20937 5.56885 8 5.56885Z" fill="white"/>
</svg>
