<svg width="95" height="2141" viewBox="0 0 95 2141" fill="none" xmlns="http://www.w3.org/2000/svg">
<path d="M59.6704 2C72.7835 46.4582 56.0004 102.516 45.6158 145.171C33.2239 196.072 7.53582 312.681 4.76991 370.122C4.59946 373.662 4.51332 377.168 4.39372 380.71C3.8494 396.83 2.29531 445.933 2.60877 472.42C3.02197 507.334 10.3793 540.755 17.2255 574.355C24.1925 608.547 40.201 639.647 48.1456 673.651C55.6444 705.747 56.5178 740.87 55.7351 773.937C51.6921 806.297 27.8767 801.774 17.7938 795.688C10.2871 791.158 3.62173 766.81 12.7281 756.123V756.123C28.0011 738.199 62.4667 749.242 72.0667 770.745C79.2895 786.923 81.0334 809.201 81.0334 824.41C81.0334 874.254 65.5765 923.884 57.7028 972.859C46.0596 1045.28 22.8474 1115.3 22.8474 1190.25C22.8474 1200.19 22.8474 1210.76 22.8474 1221.66C22.8474 1286.53 30.2523 1351.21 44.7741 1414.43C50.2767 1438.39 55.178 1459.83 57.1406 1468.68C65.4499 1506.15 88.082 1573.08 93.5 1611.24C93.5 1636.17 53.8994 1748.07 43.0902 1778.15C41.2853 1783.18 39.6816 1788.24 39.093 1793.54C36.5688 1816.29 46.7235 1826.34 57.7474 1825.11C68.2905 1823.93 70.4525 1810.67 67.8002 1800.39L67.6953 1799.99C66.8458 1796.7 64.8797 1793.81 62.1332 1791.81V1791.81C55.4783 1786.96 46.1372 1788.54 41.4507 1795.31L20.6186 1825.4V1825.4C3.16618 1856.98 -1.91823 1893.92 6.35424 1929.03L17.1711 1974.95C26.8644 2016.1 26.6724 2058.96 16.6107 2100.02L7.05932 2139" stroke="#EFB104" stroke-width="3" stroke-linecap="round"/>
</svg>
