<svg width="70" height="989" viewBox="0 0 70 989" fill="none" xmlns="http://www.w3.org/2000/svg">
<path d="M67.5395 987C67.5395 948.003 71.3897 906.212 63.6725 867.879C58.3946 841.663 46.4965 812.048 32.7361 789.621C29.6315 784.561 20.3724 779.071 12.5942 780.134C8.25276 780.728 4.98256 782.387 2.87147 786.516C-9.82347 811.345 31.9748 825.147 44.9173 805.903C73.3639 763.606 57.7697 710.3 37.9566 667.244C19.0319 626.118 1.41306 582.599 1.41306 536.043C1.41306 498.362 20.5108 465.236 28.3857 429.108C37.6987 386.383 41.9414 344.063 41.437 300.218C41.3315 291.052 31.5243 231.155 16.6879 247.275C10.3837 254.125 8.98227 265.92 17.9447 271.33C29.8034 278.489 39.2418 267.382 43.9506 257.149C59.6519 223.028 55.5514 174.688 49.7511 138.449C44.9451 108.422 39.6968 79.8462 39.6968 49.1609C39.6968 34.6907 40.7807 12.4145 48.3977 -1.32309e-05" stroke="#EFB104" stroke-width="3" stroke-linecap="round"/>
</svg>
