<svg width="29" height="20" viewBox="0 0 29 20" fill="none" xmlns="http://www.w3.org/2000/svg">
<path fill-rule="evenodd" clip-rule="evenodd" d="M2.00259 0.874813C1.9437 0.927584 1.71086 1.14259 1.66612 1.51608C1.64232 1.56056 1.62044 1.60798 1.60076 1.65855C1.47665 1.9775 1.5163 2.27206 1.56495 2.45616C1.61471 2.64448 1.69651 2.80527 1.76704 2.92426C2.02917 3.36648 2.47568 3.78415 2.64082 3.92864C3.2841 4.49151 4.03996 4.95715 4.689 5.35699L4.68922 5.35713C4.77434 5.40956 4.85761 5.46086 4.93856 5.5111C5.23457 5.69483 5.51748 5.9244 5.83375 6.19843C5.90404 6.25934 5.97762 6.32396 6.05385 6.3909L6.05401 6.39104L6.05402 6.39105C6.30153 6.60841 6.57689 6.85023 6.85774 7.06867C7.3262 7.43303 7.84218 7.71368 8.27511 7.94917L8.27547 7.94936C8.33888 7.98385 8.40051 8.01737 8.45994 8.05005C8.9559 8.32269 9.34785 8.55947 9.6729 8.8727C10.165 9.34692 10.7265 9.768 11.2736 10.1197C11.4509 10.2337 11.6179 10.3643 11.8279 10.5286L11.9249 10.6043C12.1644 10.7912 12.4584 11.0157 12.7952 11.2028C13.8815 11.8063 14.8855 11.7271 15.7592 11.4023C16.1705 11.2494 16.5536 11.0429 16.8924 10.8487C17.0255 10.7724 17.147 10.7009 17.2633 10.6324C17.4666 10.5129 17.6541 10.4026 17.8601 10.2919C18.3793 10.0131 18.8897 9.59514 19.2812 9.27461L19.2813 9.27452C19.3752 9.19759 19.4623 9.12627 19.5411 9.06385C19.6844 8.95019 19.8319 8.84527 20.0041 8.72285L20.0042 8.72283L20.1039 8.65184C20.3093 8.50531 20.5446 8.33449 20.7727 8.13614C21.191 7.7724 21.6503 7.45225 22.1572 7.10924L22.3316 6.99152L22.3317 6.99147C22.7782 6.69028 23.262 6.36393 23.7229 5.99844C23.8999 5.85804 24.1155 5.73941 24.4192 5.58277L24.494 5.54428C24.7617 5.40676 25.1019 5.23204 25.4168 5.00832C25.6882 4.81548 25.9706 4.63267 26.2729 4.43842L26.3347 4.3987L26.3347 4.39869C26.6134 4.21968 26.9096 4.02943 27.2009 3.82713C27.215 3.81736 27.2347 3.804 27.2592 3.78745C27.4558 3.65452 27.9573 3.31547 28.2705 2.96979C28.3668 2.86355 28.4886 2.71161 28.5783 2.52207C28.6662 2.33632 28.7717 2.00849 28.6584 1.62781C28.5388 1.22574 28.2456 0.994176 28.007 0.875652C27.7807 0.763246 27.5378 0.715417 27.3275 0.692049C26.7563 0.628577 26.2004 0.539631 25.6181 0.446462C25.3703 0.406802 25.1176 0.366378 24.857 0.326827C24.0076 0.197942 23.1098 0.0851502 22.1838 0.0851502C21.5549 0.0851502 20.9286 0.127403 20.3416 0.167007L20.1256 0.181499C19.4627 0.225476 18.8455 0.259729 18.2376 0.237214C17.6565 0.215692 17.0366 0.175317 16.4006 0.133899C15.3927 0.0682601 14.3446 0 13.3471 0C9.96062 0 6.56884 0.17479 3.20883 0.447962C3.02423 0.46297 2.68867 0.540391 2.47452 0.613604C2.41687 0.633314 2.32311 0.667487 2.22786 0.718351C2.18359 0.74199 2.09478 0.792206 2.00259 0.874813ZM2.93412 2.85243C2.93407 2.85237 2.93575 2.85216 2.93934 2.85196C2.93596 2.85238 2.93417 2.85248 2.93412 2.85243ZM5.73746 3.65356C5.22871 3.33934 4.7563 3.04757 4.33497 2.72916C4.46442 2.62964 4.57014 2.49819 4.63888 2.34329C7.54069 2.13053 10.4503 2 13.3471 2C14.3111 2 15.2089 2.0599 16.1431 2.12222C16.788 2.16524 17.4503 2.20942 18.1636 2.23584C18.8853 2.26257 19.5944 2.22113 20.258 2.17711L20.4747 2.16261C21.0703 2.12256 21.6268 2.08515 22.1838 2.08515C22.9559 2.08515 23.7344 2.17937 24.5569 2.30419C24.7826 2.33844 25.0152 2.37564 25.2522 2.41355C25.3767 2.43346 25.5024 2.45357 25.6291 2.47356C25.5047 2.55475 25.3777 2.63635 25.2469 2.72036L25.1916 2.75591C24.8914 2.94887 24.5725 3.15478 24.2584 3.37795C24.0656 3.51496 23.8492 3.62647 23.5534 3.77896L23.5023 3.80532C23.2064 3.95796 22.8283 4.15527 22.4801 4.43144C22.0838 4.74573 21.6673 5.0269 21.2138 5.33298L21.2138 5.33299L21.0364 5.45283C20.5272 5.7974 19.9785 6.17631 19.4603 6.62693C19.3105 6.75722 19.1431 6.8805 18.9426 7.02356L18.8547 7.08606C18.6834 7.20773 18.4866 7.34752 18.2983 7.49685C18.1657 7.60199 18.0422 7.70258 17.9251 7.79799L17.9249 7.79818C17.553 8.10123 17.2452 8.35199 16.9138 8.52996C16.6767 8.6573 16.4269 8.80405 16.2009 8.93678L16.2006 8.93698C16.0928 9.00028 15.9905 9.0604 15.8975 9.1137C15.5826 9.29424 15.3148 9.43377 15.0623 9.52764C14.6083 9.69641 14.2334 9.71394 13.7665 9.45453C13.5782 9.34992 13.3911 9.2115 13.1548 9.02722L13.0674 8.9588C12.8637 8.79914 12.617 8.60567 12.3551 8.43732C11.889 8.13771 11.4371 7.79526 11.0607 7.43254C10.5292 6.92038 9.9318 6.57689 9.42343 6.29742C9.35411 6.25931 9.28677 6.22253 9.22123 6.18673L9.2211 6.18667C8.77709 5.94415 8.41602 5.74694 8.08562 5.48996C7.85611 5.31145 7.64436 5.12558 7.40831 4.91836L7.40828 4.91834C7.32376 4.84414 7.23612 4.76721 7.14343 4.6869C6.80958 4.39763 6.42917 4.08237 5.99328 3.81182C5.90708 3.75832 5.82182 3.70565 5.73755 3.65361L5.73746 3.65356ZM2.86358 0.680265L2.86778 0.680649C2.86489 0.680432 2.86353 0.680284 2.86358 0.680265ZM1.00964 6.25563C1.00962 6.25559 1.01082 6.25594 1.01329 6.2568L1.00964 6.25563ZM3.12767 8.20179C2.74531 7.96812 2.32836 7.57807 2.06941 7.26393L2.08335 7.49688L2.08405 7.5086C2.12613 8.20863 2.1703 8.94343 2.1703 9.69014V9.69632V9.7025V9.70868V9.71486V9.72104V9.72723V9.73341V9.73959V9.74577V9.75195V9.75813V9.76431V9.77049V9.77667V9.78286V9.78904V9.79522V9.8014V9.80758V9.81376V9.81994V9.82612V9.8323V9.83849V9.84467V9.85085V9.85703V9.86321V9.86939V9.87557V9.88175V9.88794V9.89412V9.9003V9.90648V9.91266V9.91884V9.92502V9.9312V9.93738V9.94357V9.94975V9.95593V9.96211V9.96829V9.97447V9.98065V9.98683V9.99302V9.9992V10.0054V10.0116V10.0177V10.0239V10.0301V10.0363V10.0425V10.0486V10.0548V10.061V10.0672V10.0734V10.0796V10.0857V10.0919V10.0981V10.1043V10.1105V10.1166V10.1228V10.129V10.1352V10.1414V10.1475V10.1537V10.1599V10.1661V10.1723V10.1784V10.1846V10.1908V10.197V10.2032V10.2094V10.2155V10.2217V10.2279V10.2341V10.2403V10.2464V10.2526V10.2588V10.265V10.2712V10.2773V10.2835V10.2897V10.2959V10.3021V10.3083V10.3144V10.3206V10.3268V10.333V10.3392V10.3453V10.3515V10.3577V10.3639V10.3701V10.3762V10.3824V10.3886V10.3948V10.401V10.4072V10.4133V10.4195V10.4257V10.4319V10.4381V10.4442V10.4504V10.4566V10.4628V10.469V10.4751V10.4813V10.4875V10.4937V10.4999V10.5061V10.5122V10.5184V10.5246V10.5308V10.537V10.5431V10.5493V10.5555V10.5617V10.5679V10.574V10.5802V10.5864V10.5926V10.5988V10.6049V10.6111V10.6173V10.6235V10.6297V10.6359V10.642V10.6482V10.6544V10.6606V10.6668V10.6729V10.6791V10.6853V10.6915V10.6977V10.7038V10.71V10.7162V10.7224V10.7286V10.7348V10.7409V10.7471V10.7533V10.7595V10.7657V10.7718V10.778V10.7842V10.7904V10.7966V10.8027V10.8089V10.8151V10.8213V10.8275V10.8337V10.8398V10.846V10.8522V10.8584V10.8646V10.8707V10.8769V10.8831V10.8893V10.8955V10.9016V10.9078V10.914V10.9202V10.9264V10.9326V10.9387V10.9449V10.9511V10.9573V10.9635V10.9696V10.9758V10.982V10.9882V10.9944V11.0005V11.0067V11.0129V11.0191V11.0253V11.0314V11.0376V11.0438V11.05V11.0562V11.0624V11.0685V11.0747V11.0809V11.0871V11.0933V11.0994V11.1056V11.1118V11.118V11.1242V11.1303V11.1365V11.1427V11.1489V11.1551V11.1613V11.1674V11.1736V11.1798V11.186V11.1922V11.1983V11.2045V11.2107V11.2169V11.2231V11.2292V11.2354V11.2416V11.2478V11.254V11.2602V11.2663V11.2725V11.2787V11.2849V11.2911V11.2972V11.3034V11.3096V11.3158V11.322V11.3281V11.3343V11.3405V11.3467V11.3529V11.3591V11.3652V11.3714V11.3776V11.3838V11.39V11.3961V11.4023V11.4085V11.4147V11.4209V11.427V11.4332V11.4394V11.4456V11.4518V11.4579V11.4641V11.4703V11.4765V11.4827V11.4889V11.495V11.5012V11.5074V11.5136V11.5198V11.5259V11.5321V11.5383V11.5445V11.5507V11.5568V11.563V11.5692V11.5754V11.5816V11.5878V11.5939V11.6001V11.6063V11.6125V11.6187V11.6248V11.631V11.6372V11.6434V11.6496V11.6557V11.6619V11.6681V11.6743V11.6805V11.6867V11.6928V11.699V11.7052V11.7114V11.7176V11.7237V11.7299V11.7361V11.7423V11.7485V11.7546V11.7608V11.767V11.7732V11.7794V11.7856V11.7917V11.7979V11.8041V11.8103V11.8165V11.8226V11.8288V11.835V11.8412V11.8474V11.8535V11.8597V11.8659V11.8721V11.8783V11.8844V11.8906V11.8968V11.903V11.9092V11.9154V11.9215V11.9277V11.9339V11.9401V11.9463V11.9524V11.9586V11.9648V11.971V11.9772V11.9833V11.9895V11.9957V12.0019V12.0081V12.0143V12.0204V12.0266V12.0328V12.039V12.0452V12.0513V12.0575V12.0637V12.0699V12.0761V12.0822V12.0884V12.0946V12.1008V12.107V12.1132V12.1193V12.1255V12.1317V12.1379V12.1441V12.1502V12.1564V12.1626V12.1688V12.175V12.1811V12.1873V12.1935V12.1997V12.2059V12.212V12.2182V12.2244V12.2306V12.2368V12.243V12.2491V12.2553V12.2615V12.2677V12.2739V12.28V12.2862V12.2924V12.2986V12.3048V12.3109V12.3171V12.3233V12.3295V12.3357V12.3419V12.348V12.3542V12.3604V12.3666V12.3728V12.3789V12.3851V12.3913V12.3975V12.4037V12.4098V12.416V12.4222V12.4284V12.4346V12.4408V12.4469V12.4531V12.4593V12.4655V12.4717V12.4778V12.484V12.4902V12.4964V12.5026V12.5087V12.5149V12.5211V12.5273V12.5335V12.5397V12.5458V12.552V12.5582V12.5644V12.5706V12.5767V12.5829V12.5891V12.5953V12.6015V12.6076V12.6138V12.62V12.6262V12.6324V12.6385V12.6447V12.6509V12.6571V12.6633V12.6695V12.6756V12.6818V12.688V12.6942V12.7004V12.7065V12.7127V12.7189V12.7251V12.7313V12.7374V12.7436V12.7498V12.756V12.7622V12.7684V12.7745V12.7807V12.7869V12.7931V12.7993V12.8054V12.8116V12.8178V12.824V12.8302V12.8363V12.8425V12.8487V12.8549C2.1703 13.0374 2.16485 13.2202 2.15944 13.3899L2.15781 13.4407C2.15284 13.5955 2.14823 13.7393 2.14658 13.8825C2.14291 14.2017 2.15547 14.4637 2.19922 14.6887C2.24404 14.9192 2.29579 15.1424 2.35204 15.3849L2.35204 15.3849L2.38943 15.5466C2.45813 15.8449 2.53014 16.1696 2.58397 16.5128C2.59677 16.5943 2.59931 16.6752 2.59257 16.7539C2.59487 16.7817 2.59605 16.8097 2.59605 16.838C2.59605 16.9045 2.59474 16.9659 2.59344 17.0178L2.59232 17.0613L2.5916 17.0889C2.61145 17.0953 2.63474 17.1026 2.662 17.1106C2.68007 17.1159 2.70273 17.1222 2.72917 17.1295C2.88111 17.1716 3.15798 17.2484 3.40567 17.3722C3.88494 17.6119 4.44595 17.7112 5.11945 17.7373C5.55073 17.754 5.93502 17.7423 6.34989 17.7297H6.34992H6.34999C6.64536 17.7208 6.95622 17.7113 7.31058 17.7113C8.32633 17.7113 9.34204 17.6903 10.3697 17.669L10.3752 17.6689C11.3976 17.6476 12.4321 17.6262 13.4698 17.6262C13.8422 17.6262 14.2083 17.6292 14.5695 17.6322H14.5695C15.9165 17.6433 17.1944 17.6538 18.4728 17.5052C19.2451 17.4153 20.0146 17.3775 20.7526 17.3455L20.9957 17.3351C21.6555 17.3069 22.2879 17.2799 22.9171 17.2234C23.4991 17.1711 24.1244 17.1827 24.6754 17.1929H24.6754L24.6762 17.1929C24.8828 17.1968 25.0789 17.2004 25.2584 17.2004C25.3925 17.2004 25.5418 17.2143 25.6466 17.224L25.7023 17.2293L25.7429 17.2331C25.7408 17.1523 25.7371 17.0696 25.7329 16.9871L25.7286 16.9075C25.7226 16.796 25.7154 16.6644 25.7154 16.5731C25.7154 16.2912 25.7086 15.9886 25.7016 15.6728V15.6728V15.6727C25.6811 14.7549 25.6581 13.725 25.7911 12.765C25.8126 12.6092 25.8343 12.455 25.8558 12.3021C25.9378 11.718 26.0172 11.1519 26.081 10.5779C26.1185 10.2404 26.1867 9.90511 26.2444 9.62122L26.2445 9.62115L26.265 9.52008C26.3304 9.19585 26.3784 8.93341 26.3938 8.68638C26.4132 8.37552 26.4049 8.05808 26.3932 7.69326C26.262 7.7807 26.1325 7.82603 26.0343 7.85042C26.0181 7.8614 26.0039 7.8708 25.9923 7.87842C25.9281 7.92052 25.8637 7.95934 25.8237 7.98342L25.8016 7.9968L25.7808 8.01295C25.4466 8.27269 25.1448 8.50725 24.9106 8.74155C24.7577 8.89439 24.5888 9.02872 24.4717 9.12187L24.4227 9.16094C24.2948 9.26357 24.2213 9.32829 24.1666 9.39022L24.1593 9.40154C24.1517 9.41332 24.1436 9.42655 24.1303 9.44821L24.1288 9.45056C24.1171 9.46964 24.1008 9.49626 24.0833 9.52358C24.0195 9.62365 23.8709 9.85257 23.6071 10.0265C23.6033 10.0298 23.5942 10.0379 23.5794 10.0526C23.5479 10.084 23.5091 10.127 23.4556 10.1895L23.399 10.2563C23.3595 10.303 23.3124 10.3587 23.2775 10.399C23.2128 10.4734 23.1294 10.5662 23.0352 10.6538C22.7807 10.8908 22.5026 11.0628 22.2909 11.1888C22.2368 11.221 22.1875 11.25 22.1421 11.2767C21.9867 11.3681 21.8762 11.4331 21.7688 11.5112C21.4309 11.7569 21.0395 11.9592 20.6953 12.1234C20.5225 12.2058 20.3494 12.2843 20.1913 12.3559L20.1832 12.3596C20.0191 12.434 19.8733 12.5002 19.7411 12.5638C19.0415 12.9007 18.3988 13.2625 17.712 13.6745C16.791 14.2271 15.8961 14.6875 14.5862 14.6875C13.5341 14.6875 12.6493 14.4006 11.8331 14.1235C10.0427 13.5154 8.60324 12.5895 7.19808 11.4966C6.64436 11.0659 6.11065 10.5946 5.60535 10.1485L5.60533 10.1485C5.44065 10.003 5.27899 9.8603 5.12063 9.7225C4.45782 9.14569 3.82093 8.62545 3.12767 8.20179ZM0.440439 15.9954C0.502688 16.2657 0.557434 16.5149 0.598725 16.7644C0.596953 16.7887 0.596052 16.8132 0.596052 16.838C0.596052 16.8978 0.594945 16.9368 0.593608 16.984C0.592582 17.0202 0.59142 17.0612 0.590518 17.12C0.588925 17.2238 0.589003 17.3725 0.612184 17.5327C0.668027 17.9186 0.845311 18.2844 1.20659 18.5855C1.53134 18.8561 1.88691 18.9675 2.09897 19.0297C2.16552 19.0492 2.21955 19.0646 2.26448 19.0775L2.26451 19.0775C2.39665 19.1152 2.45 19.1305 2.51124 19.1611C3.35208 19.5815 4.23538 19.7045 5.04205 19.7358C5.51091 19.7539 6.04911 19.7394 6.53605 19.7262C6.81953 19.7185 7.08563 19.7113 7.31058 19.7113C8.34876 19.7113 9.38344 19.6899 10.406 19.6687L10.4063 19.6686L10.4112 19.6685C11.4389 19.6472 12.4544 19.6262 13.4698 19.6262C13.8036 19.6262 14.1439 19.6291 14.4891 19.6321H14.4892C15.8512 19.6438 17.2894 19.6562 18.7038 19.4918C19.3968 19.4112 20.1017 19.3756 20.8392 19.3436L21.0815 19.3332C21.7355 19.3054 22.4169 19.2764 23.0961 19.2153C23.5645 19.1732 24.0153 19.1818 24.5199 19.1914H24.52C24.7523 19.1958 24.9961 19.2004 25.2584 19.2004C25.2834 19.2004 25.3389 19.204 25.4608 19.2154L25.508 19.2198C25.6061 19.2291 25.7306 19.2409 25.8535 19.2484C25.9966 19.2571 26.1736 19.2627 26.3527 19.2476C26.5152 19.2339 26.777 19.1966 27.0307 19.0557C27.5144 18.787 27.6387 18.2872 27.6755 18.1246C27.7288 17.8893 27.7418 17.6418 27.7443 17.4473C27.747 17.2434 27.7383 17.0419 27.7303 16.8847L27.7229 16.7443C27.7181 16.655 27.7154 16.6052 27.7154 16.5731C27.7154 16.1914 27.7073 15.828 27.6995 15.4775V15.4775V15.4774C27.6804 14.6138 27.6629 13.8283 27.7722 13.0393C27.7925 12.8925 27.8133 12.7445 27.8342 12.5954L27.8343 12.5945C27.9169 12.007 28.0015 11.4044 28.0688 10.7987C28.0957 10.5562 28.1452 10.3119 28.2054 10.015L28.2054 10.015L28.2255 9.91553C28.2905 9.59329 28.365 9.20974 28.3899 8.81113C28.417 8.37838 28.4027 7.94659 28.3903 7.56921L28.3874 7.48109C28.374 7.06577 28.3664 6.7115 28.3969 6.37318C28.3971 6.37265 28.3999 6.35655 28.4126 6.30334L28.4137 6.29933C28.4214 6.26963 28.4665 6.09528 28.4703 5.93089C28.4724 5.83935 28.4701 5.58993 28.312 5.33352C28.1128 5.01033 27.793 4.86845 27.521 4.84155C27.3017 4.81987 27.1235 4.87056 27.0402 4.89744C26.9414 4.92933 26.8516 4.97025 26.7791 5.00652L26.732 5.02955C26.6694 5.06 26.5671 5.10973 26.491 5.15027C26.3788 5.20997 26.2079 5.30742 26.051 5.44684C25.9595 5.52816 25.847 5.61295 25.6988 5.7202L25.6289 5.77061C25.5838 5.803 25.5356 5.83774 25.4859 5.87406L25.48 5.87392C25.4582 5.87344 25.4352 5.87331 25.4129 5.87369C25.4035 5.87386 25.3849 5.87426 25.3629 5.87557C25.3549 5.87604 25.3276 5.87766 25.2934 5.88203C25.2807 5.88366 25.2355 5.88942 25.1792 5.90337C25.1547 5.90943 25.0888 5.92635 25.0097 5.96184C24.97 5.97963 24.8987 6.01457 24.8194 6.07397C24.7481 6.12744 24.6023 6.25091 24.5061 6.46634L24.5033 6.47273C24.1978 6.70977 23.8139 7.00982 23.4963 7.32733C23.4293 7.39437 23.3574 7.45189 23.2342 7.55044L23.171 7.60101C23.0271 7.71654 22.826 7.88097 22.64 8.09796C22.5652 8.18522 22.5093 8.26928 22.4733 8.32565C22.4557 8.35316 22.4393 8.37992 22.4275 8.39913L22.4262 8.40131L22.4138 8.42146C22.2 8.58126 22.0316 8.77749 21.9361 8.88911C21.8934 8.93891 21.8585 8.98022 21.829 9.01503C21.7521 9.10594 21.7127 9.15246 21.6724 9.19004C21.5842 9.27215 21.4635 9.35384 21.2681 9.47008C21.2385 9.48769 21.2057 9.50692 21.1704 9.5276L21.1699 9.52788L21.1699 9.52789C21.0053 9.62432 20.7872 9.75211 20.5924 9.89374C20.4078 10.0281 20.1515 10.1669 19.8342 10.3182C19.6792 10.3922 19.5211 10.4638 19.3577 10.5379L19.3575 10.538L19.3575 10.538L19.3556 10.5389L19.3555 10.5389C19.1964 10.611 19.0296 10.6866 18.8735 10.7618C18.0989 11.1347 17.3992 11.5298 16.683 11.9596C15.8519 12.4582 15.3419 12.6875 14.5862 12.6875C13.8965 12.6875 13.2901 12.5061 12.4763 12.2297C10.9773 11.7206 9.73768 10.9381 8.42596 9.91786C7.92585 9.52888 7.45912 9.11686 6.96637 8.68185L6.96636 8.68184L6.96623 8.68173C6.79277 8.5286 6.61608 8.37262 6.43357 8.21379C5.75115 7.61992 5.01179 7.0093 4.17057 6.49522C4.01222 6.39846 3.75192 6.16323 3.60684 5.98467C3.58492 5.9577 3.56418 5.92327 3.49805 5.8135L3.49805 5.81349L3.4593 5.74922L3.45745 5.74614C3.3871 5.62961 3.25034 5.40302 3.05115 5.2138C2.89497 5.06542 2.47558 4.76274 2.09755 4.55983C1.9272 4.4684 1.62526 4.318 1.30407 4.28166C1.14548 4.26372 0.79699 4.25119 0.468102 4.48795C0.0882401 4.76141 0 5.16545 0 5.42789C0 6.17038 0.0440066 6.90246 0.0860007 7.60106L0.0869519 7.61688C0.129813 8.32996 0.170301 9.00917 0.170301 9.69014V9.69632V9.7025V9.70868V9.71486V9.72104V9.72723V9.73341V9.73959V9.74577V9.75195V9.75813V9.76431V9.77049V9.77667V9.78286V9.78904V9.79522V9.8014V9.80758V9.81376V9.81994V9.82612V9.8323V9.83849V9.84467V9.85085V9.85703V9.86321V9.86939V9.87557V9.88175V9.88794V9.89412V9.9003V9.90648V9.91266V9.91884V9.92502V9.9312V9.93738V9.94357V9.94975V9.95593V9.96211V9.96829V9.97447V9.98065V9.98683V9.99302V9.9992V10.0054V10.0116V10.0177V10.0239V10.0301V10.0363V10.0425V10.0486V10.0548V10.061V10.0672V10.0734V10.0796V10.0857V10.0919V10.0981V10.1043V10.1105V10.1166V10.1228V10.129V10.1352V10.1414V10.1475V10.1537V10.1599V10.1661V10.1723V10.1784V10.1846V10.1908V10.197V10.2032V10.2094V10.2155V10.2217V10.2279V10.2341V10.2403V10.2464V10.2526V10.2588V10.265V10.2712V10.2773V10.2835V10.2897V10.2959V10.3021V10.3083V10.3144V10.3206V10.3268V10.333V10.3392V10.3453V10.3515V10.3577V10.3639V10.3701V10.3762V10.3824V10.3886V10.3948V10.401V10.4072V10.4133V10.4195V10.4257V10.4319V10.4381V10.4442V10.4504V10.4566V10.4628V10.469V10.4751V10.4813V10.4875V10.4937V10.4999V10.5061V10.5122V10.5184V10.5246V10.5308V10.537V10.5431V10.5493V10.5555V10.5617V10.5679V10.574V10.5802V10.5864V10.5926V10.5988V10.6049V10.6111V10.6173V10.6235V10.6297V10.6359V10.642V10.6482V10.6544V10.6606V10.6668V10.6729V10.6791V10.6853V10.6915V10.6977V10.7038V10.71V10.7162V10.7224V10.7286V10.7348V10.7409V10.7471V10.7533V10.7595V10.7657V10.7718V10.778V10.7842V10.7904V10.7966V10.8027V10.8089V10.8151V10.8213V10.8275V10.8337V10.8398V10.846V10.8522V10.8584V10.8646V10.8707V10.8769V10.8831V10.8893V10.8955V10.9016V10.9078V10.914V10.9202V10.9264V10.9326V10.9387V10.9449V10.9511V10.9573V10.9635V10.9696V10.9758V10.982V10.9882V10.9944V11.0005V11.0067V11.0129V11.0191V11.0253V11.0314V11.0376V11.0438V11.05V11.0562V11.0624V11.0685V11.0747V11.0809V11.0871V11.0933V11.0994V11.1056V11.1118V11.118V11.1242V11.1303V11.1365V11.1427V11.1489V11.1551V11.1613V11.1674V11.1736V11.1798V11.186V11.1922V11.1983V11.2045V11.2107V11.2169V11.2231V11.2292V11.2354V11.2416V11.2478V11.254V11.2602V11.2663V11.2725V11.2787V11.2849V11.2911V11.2972V11.3034V11.3096V11.3158V11.322V11.3281V11.3343V11.3405V11.3467V11.3529V11.3591V11.3652V11.3714V11.3776V11.3838V11.39V11.3961V11.4023V11.4085V11.4147V11.4209V11.427V11.4332V11.4394V11.4456V11.4518V11.4579V11.4641V11.4703V11.4765V11.4827V11.4889V11.495V11.5012V11.5074V11.5136V11.5198V11.5259V11.5321V11.5383V11.5445V11.5507V11.5568V11.563V11.5692V11.5754V11.5816V11.5878V11.5939V11.6001V11.6063V11.6125V11.6187V11.6248V11.631V11.6372V11.6434V11.6496V11.6557V11.6619V11.6681V11.6743V11.6805V11.6867V11.6928V11.699V11.7052V11.7114V11.7176V11.7237V11.7299V11.7361V11.7423V11.7485V11.7546V11.7608V11.767V11.7732V11.7794V11.7856V11.7917V11.7979V11.8041V11.8103V11.8165V11.8226V11.8288V11.835V11.8412V11.8474V11.8535V11.8597V11.8659V11.8721V11.8783V11.8844V11.8906V11.8968V11.903V11.9092V11.9154V11.9215V11.9277V11.9339V11.9401V11.9463V11.9524V11.9586V11.9648V11.971V11.9772V11.9833V11.9895V11.9957V12.0019V12.0081V12.0143V12.0204V12.0266V12.0328V12.039V12.0452V12.0513V12.0575V12.0637V12.0699V12.0761V12.0822V12.0884V12.0946V12.1008V12.107V12.1132V12.1193V12.1255V12.1317V12.1379V12.1441V12.1502V12.1564V12.1626V12.1688V12.175V12.1811V12.1873V12.1935V12.1997V12.2059V12.212V12.2182V12.2244V12.2306V12.2368V12.243V12.2491V12.2553V12.2615V12.2677V12.2739V12.28V12.2862V12.2924V12.2986V12.3048V12.3109V12.3171V12.3233V12.3295V12.3357V12.3419V12.348V12.3542V12.3604V12.3666V12.3728V12.3789V12.3851V12.3913V12.3975V12.4037V12.4098V12.416V12.4222V12.4284V12.4346V12.4408V12.4469V12.4531V12.4593V12.4655V12.4717V12.4778V12.484V12.4902V12.4964V12.5026V12.5087V12.5149V12.5211V12.5273V12.5335V12.5397V12.5458V12.552V12.5582V12.5644V12.5706V12.5767V12.5829V12.5891V12.5953V12.6015V12.6076V12.6138V12.62V12.6262V12.6324V12.6385V12.6447V12.6509V12.6571V12.6633V12.6695V12.6756V12.6818V12.688V12.6942V12.7004V12.7065V12.7127V12.7189V12.7251V12.7313V12.7374V12.7436V12.7498V12.756V12.7622V12.7684V12.7745V12.7807V12.7869V12.7931V12.7993V12.8054V12.8116V12.8178V12.824V12.8302V12.8363V12.8425V12.8487V12.8549C0.170301 13.0018 0.165893 13.1557 0.160459 13.3261L0.158806 13.3776C0.15392 13.5294 0.14861 13.6944 0.146711 13.8595C0.142497 14.2257 0.153582 14.6466 0.235991 15.0704C0.28832 15.3396 0.349779 15.6044 0.406341 15.8481L0.440439 15.9954ZM26.2045 17.2522C26.2046 17.2523 26.2017 17.2529 26.1955 17.2536C26.2012 17.2525 26.2043 17.2521 26.2045 17.2522ZM25.7757 8.01254C25.7728 8.01433 25.7715 8.01518 25.7715 8.01518L25.7794 8.0102C25.7779 8.01111 25.7767 8.01188 25.7757 8.01254Z" fill="#EFB104"/>
</svg>
