<?xml version="1.0" encoding="utf-8"?>
<!-- Generator: Adobe Illustrator 24.0.1, SVG Export Plug-In . SVG Version: 6.00 Build 0)  -->
<svg version="1.1" id="Layer_1" xmlns="http://www.w3.org/2000/svg" xmlns:xlink="http://www.w3.org/1999/xlink" x="0px" y="0px"
	 viewBox="0 0 14.11 14.11" style="enable-background:new 0 0 14.11 14.11;" xml:space="preserve">
<style type="text/css">
	.st0{fill:#1B1B1F;}
</style>
<path class="st0" d="M7.89,14.11c-0.02,0-0.06-0.02-0.07-0.04c0.5-0.33,0.96-0.72,1.38-1.19c0.54-0.59,0.96-1.24,1.29-1.93h2.43
	c-0.26,0.41-0.57,0.78-0.9,1.13C10.9,13.22,9.44,13.92,7.89,14.11z M13.15,7.42h0.92c-0.04,0.98-0.29,1.93-0.72,2.8h-2.53
	c0.33-0.89,0.52-1.83,0.55-2.8h1.03H13.15z M12.41,6.7h-1.03c-0.06-0.98-0.26-1.96-0.63-2.89h0.74h0.72h1.09
	c0.46,0.89,0.72,1.87,0.77,2.89h-0.92H12.41z M11.49,3.08h-1.07C10.1,2.45,9.7,1.84,9.22,1.3c-0.42-0.46-0.91-0.85-1.4-1.19
	C7.83,0.1,7.85,0.1,7.85,0.1L7.83,0.04c1.59,0.18,3.04,0.89,4.19,2.02c0.31,0.32,0.59,0.65,0.83,1.02h-0.64L11.49,3.08z M9.9,3.8
	c0.41,0.91,0.63,1.89,0.68,2.87H7.3V3.8H9.9z M9.53,3.06H7.3V0.71c0.48,0.31,0.92,0.68,1.33,1.13C8.98,2.23,9.27,2.63,9.53,3.06z
	 M8,10.22H7.28V7.44h3.28c-0.04,0.94-0.24,1.89-0.61,2.78H8.74H8z M8.74,10.96h0.87c-0.27,0.48-0.61,0.95-1,1.37
	c-0.41,0.44-0.85,0.84-1.33,1.15v-2.52H8H8.74z M4.42,3.08c0.24-0.43,0.55-0.85,0.89-1.22C5.7,1.43,6.1,1.08,6.56,0.78v2.3H4.42z
	 M4.33,10.96h2.23v2.47c-0.46-0.3-0.87-0.67-1.26-1.1C4.92,11.92,4.61,11.44,4.33,10.96z M4.55,6.7h-1.2
	c0.05-0.98,0.28-1.96,0.68-2.87h2.53V6.7H5.29H4.55z M5.29,7.44h1.27v2.78h-2.6C3.59,9.35,3.39,8.38,3.36,7.44h1.2H5.29z M6.06,0.06
	v0.02C6.06,0.1,6.09,0.1,6.1,0.1C5.61,0.43,5.15,0.84,4.72,1.3C4.22,1.84,3.82,2.43,3.5,3.06H1.22c0.26-0.35,0.53-0.68,0.83-1
	C3.15,0.95,4.55,0.26,6.06,0.06z M2.05,12.09c-0.35-0.35-0.65-0.74-0.9-1.15h2.27c0.35,0.71,0.78,1.35,1.31,1.93
	c0.42,0.46,0.89,0.87,1.38,1.2c-0.02,0-0.04,0.02-0.04,0.02C4.55,13.89,3.15,13.2,2.05,12.09z M0.83,6.68H0
	c0.06-1,0.33-1.98,0.77-2.87h2.4C2.8,4.73,2.6,5.69,2.54,6.68h-1H0.83z M1.55,7.42h1c0.04,0.96,0.22,1.91,0.55,2.8H0.72
	C0.29,9.35,0.06,8.4,0,7.42h0.83"/>
</svg>
