<svg width="16" height="14" viewBox="0 0 16 14" fill="none" xmlns="http://www.w3.org/2000/svg">
<path d="M13.0688 4.53748C12.9 4.48123 12.7312 4.4281 12.5625 4.3781C12.5906 4.26248 12.6156 4.14685 12.6406 4.03123C13.025 2.16873 12.7719 0.67185 11.9187 0.1781C11.0969 -0.293775 9.75625 0.19685 8.4 1.3781C8.26562 1.49373 8.13437 1.6156 8.00937 1.73748C7.925 1.65623 7.8375 1.57498 7.75 1.49685C6.32812 0.23435 4.90313 -0.2969 4.05 0.199975C3.23125 0.674975 2.9875 2.08435 3.33125 3.84685C3.36562 4.02185 3.40313 4.19373 3.44688 4.36873C3.24688 4.42498 3.05 4.48747 2.86562 4.5531C1.19687 5.13123 0 6.04373 0 6.98748C0 7.96248 1.275 8.9406 3.00938 9.53435C3.15 9.58123 3.29063 9.6281 3.43438 9.66873C3.3875 9.85623 3.34687 10.0406 3.30938 10.2312C2.98125 11.9656 3.2375 13.3406 4.05625 13.8125C4.9 14.3 6.31875 13.8 7.7 12.5906C7.80937 12.4937 7.91875 12.3937 8.02812 12.2875C8.16562 12.4219 8.30937 12.55 8.45312 12.675C9.79062 13.825 11.1125 14.2906 11.9281 13.8187C12.7719 13.3312 13.0469 11.8531 12.6906 10.0531C12.6625 9.9156 12.6313 9.77498 12.5969 9.63123C12.6969 9.6031 12.7937 9.57185 12.8906 9.5406C14.6938 8.94372 16 7.9781 16 6.98748C16 6.0406 14.7688 5.12185 13.0688 4.53748ZM8.84062 1.88435C10.0031 0.87185 11.0875 0.474975 11.5813 0.75935C12.1094 1.06248 12.3125 2.28748 11.9812 3.89685C11.9594 4.0031 11.9375 4.10623 11.9094 4.20935C11.2156 4.0531 10.5125 3.9406 9.80625 3.8781C9.4 3.29685 8.95625 2.7406 8.475 2.21873C8.59688 2.1031 8.71562 1.99373 8.84062 1.88435ZM4.77812 7.79373C4.92188 8.06872 5.06875 8.3406 5.225 8.60935C5.38438 8.88123 5.54688 9.1531 5.71875 9.41873C5.23125 9.3656 4.74688 9.28747 4.26875 9.18435C4.40625 8.73435 4.57812 8.26873 4.77812 7.79373ZM4.77812 6.21248C4.58125 5.74685 4.41562 5.2906 4.27812 4.84998C4.72812 4.74998 5.20625 4.66873 5.70312 4.60623C5.5375 4.8656 5.375 5.13123 5.22188 5.39998C5.06875 5.6656 4.91875 5.93748 4.77812 6.21248ZM5.13438 7.0031C5.34063 6.57185 5.56562 6.14998 5.80312 5.73435C6.04063 5.31873 6.29688 4.9156 6.56563 4.51873C7.03438 4.48435 7.5125 4.4656 8 4.4656C8.4875 4.4656 8.96875 4.48435 9.43437 4.51873C9.7 4.91248 9.95312 5.3156 10.1938 5.7281C10.4344 6.1406 10.6594 6.56248 10.8719 6.9906C10.6625 7.42185 10.4375 7.84685 10.1969 8.2656C9.95937 8.68122 9.70625 9.08435 9.44063 9.48435C8.975 9.51873 8.49063 9.53435 8 9.53435C7.50938 9.53435 7.03437 9.51873 6.575 9.4906C6.30312 9.09373 6.04688 8.68748 5.80625 8.27185C5.56563 7.85623 5.34375 7.43435 5.13438 7.0031ZM10.7781 8.6031C10.9375 8.3281 11.0875 8.04998 11.2344 7.76873C11.4344 8.22185 11.6094 8.68122 11.7625 9.1531C11.2781 9.26248 10.7875 9.34685 10.2937 9.4031C10.4625 9.1406 10.6219 8.87185 10.7781 8.6031ZM11.2281 6.21248C11.0812 5.93748 10.9312 5.66248 10.775 5.39373C10.6219 5.1281 10.4625 4.8656 10.2969 4.60623C10.8 4.66873 11.2812 4.7531 11.7312 4.85623C11.5875 5.31873 11.4187 5.76873 11.2281 6.21248ZM8.00625 2.69685C8.33438 3.0531 8.64375 3.4281 8.93125 3.8156C8.3125 3.78748 7.69063 3.78748 7.07188 3.8156C7.37813 3.41248 7.69375 3.03748 8.00625 2.69685ZM4.38125 0.781225C4.90625 0.474975 6.07188 0.912475 7.3 1.99998C7.37813 2.06873 7.45625 2.14373 7.5375 2.21873C7.05312 2.7406 6.60625 3.29685 6.19688 3.8781C5.49062 3.9406 4.79063 4.04998 4.09688 4.2031C4.05625 4.04373 4.02187 3.88123 3.9875 3.71873C3.69375 2.20623 3.8875 1.0656 4.38125 0.781225ZM3.61562 9.01873C3.48438 8.98123 3.35625 8.9406 3.22813 8.89685C2.5625 8.68748 1.80625 8.35623 1.25937 7.92185C0.94375 7.7031 0.73125 7.3656 0.671875 6.98748C0.671875 6.4156 1.65937 5.68435 3.08437 5.18748C3.2625 5.12498 3.44375 5.06873 3.625 5.0156C3.8375 5.69373 4.09375 6.35935 4.39062 7.0031C4.09062 7.65623 3.83125 8.33123 3.61562 9.01873ZM7.25938 12.0812C6.74375 12.5531 6.14687 12.9281 5.49687 13.1844C5.15 13.35 4.75 13.3656 4.39375 13.225C3.89688 12.9375 3.69062 11.8344 3.97187 10.35C4.00625 10.175 4.04375 9.99998 4.0875 9.8281C4.7875 9.9781 5.49375 10.0812 6.20937 10.1343C6.62187 10.7187 7.075 11.2781 7.55937 11.8031C7.45937 11.9 7.35938 11.9937 7.25938 12.0812ZM8.025 11.3218C7.70625 10.9781 7.3875 10.5969 7.07812 10.1875C7.37813 10.2 7.6875 10.2062 8 10.2062C8.32187 10.2062 8.6375 10.2 8.95 10.1844C8.6625 10.5812 8.35312 10.9593 8.025 11.3218ZM12.1094 12.2593C12.0813 12.6406 11.8938 12.9969 11.5938 13.2375C11.0969 13.525 10.0375 13.15 8.89375 12.1687C8.7625 12.0562 8.63125 11.9344 8.49687 11.8094C8.975 11.2812 9.41563 10.7218 9.81563 10.1343C10.5312 10.075 11.2437 9.9656 11.9469 9.80622C11.9781 9.93435 12.0063 10.0625 12.0312 10.1875C12.1844 10.8625 12.2094 11.5656 12.1094 12.2593ZM12.6781 8.89997C12.5906 8.9281 12.5031 8.95623 12.4125 8.98123C12.1938 8.29998 11.925 7.63435 11.6156 6.98748C11.9156 6.34998 12.1688 5.69373 12.3813 5.02185C12.5438 5.06873 12.7 5.11872 12.85 5.16873C14.3063 5.66873 15.3281 6.41248 15.3281 6.98123C15.3281 7.59373 14.2375 8.38435 12.6781 8.89997ZM8 5.56873C8.79062 5.56873 9.43125 6.20935 9.43125 6.99998C9.43125 7.7906 8.79062 8.43122 8 8.43122C7.20937 8.43122 6.56875 7.7906 6.56875 6.99998C6.56875 6.20935 7.20937 5.56873 8 5.56873Z" fill="#1B1B1F"/>
</svg>
