<svg width="27" height="33" viewBox="0 0 27 33" fill="none" xmlns="http://www.w3.org/2000/svg">
<path d="M7.14029 12.3587C7.59308 11.7961 7.9143 11.7288 8.62094 11.6483C9.255 11.5761 9.92117 11.4794 10.5295 11.2803C12.0295 10.7894 12.5081 9.57143 12.6692 8.12213C12.7453 7.43734 12.4843 6.75337 12.3012 6.10229C12.1161 5.44417 11.9361 4.65696 11.6079 4.05677C10.9807 2.90988 10.6435 1.90151 9.3741 1.3822C8.60245 1.06652 7.66537 0.831376 6.83218 1.15539C6.42888 1.31223 6.09949 1.58786 5.71528 1.77162C5.2529 1.99275 5.00612 2.48186 4.63689 2.80293C4.22468 3.16137 4.03403 3.63539 3.67404 4.03538C3.30698 4.44322 2.98918 4.8618 2.67696 5.31062C1.9111 6.41154 1.50725 7.56699 1.20915 8.87529C0.871853 10.3557 0.956344 11.6652 1.36321 13.1118C1.76807 14.5513 1.84265 16.0685 2.21051 17.5195C2.3783 18.1813 2.67576 18.8097 2.92088 19.4452C3.1284 19.9832 3.46772 20.7114 3.86233 21.1398C4.77864 22.1347 5.54122 23.1318 6.29299 24.2595C7.37858 25.8879 9.25811 26.5466 10.5295 27.9996C11.0189 28.5589 11.5819 29.1006 12.2241 29.4931C12.8304 29.8636 13.5061 30.148 14.0899 30.5372C14.4388 30.7698 14.8892 30.9395 15.271 31.1192C15.6001 31.2741 15.9624 31.5121 16.3237 31.5985C17.5163 31.8837 18.7016 31.9237 19.9269 31.9237C21.2504 31.9237 22.8137 31.507 23.9324 30.7683C24.8925 30.1343 25.1648 28.8687 25.1648 27.8027C25.1648 26.813 24.3665 25.8836 23.6242 25.2651C22.8421 24.6133 22.0688 23.829 21.2321 23.2538C20.4381 22.7079 19.6459 22.267 18.7672 21.8716C17.9241 21.4922 17.3142 21.6939 16.4435 21.7561C15.7513 21.8055 14.9352 22.2224 14.3638 22.6034C13.7668 23.0014 13.4885 23.1581 12.9944 22.4664C12.1571 21.2942 11.2589 20.1498 10.4525 18.9403C9.60533 17.6695 8.89143 16.3801 8.25292 15.0118C8.02351 14.5203 7.52543 13.9616 7.52543 13.3985C7.52543 13.0275 7.46299 12.494 7.37138 12.1276" stroke="currentColor" stroke-width="2" stroke-linecap="round"/>
</svg>
