<svg width="22" height="26" viewBox="0 0 22 26" fill="none" xmlns="http://www.w3.org/2000/svg">
<path fill-rule="evenodd" clip-rule="evenodd" d="M6.99878 2.15273L7.12026 2.14558C10.3728 1.95404 13.736 1.75599 16.4248 2.96593C17.924 3.64057 18.4662 5.01159 18.9016 7.14061C19.3348 9.25854 19.3194 11.0187 18.8448 12.5724C18.3721 14.1196 17.4171 15.5502 15.8232 16.967C15.2646 17.4635 14.4791 18.1788 13.7294 18.93C12.9946 19.6663 12.2385 20.4918 11.7824 21.2012C11.6013 21.4829 11.3717 21.713 11.0612 22.0242L11.0612 22.0242C10.9812 22.1044 10.8959 22.1899 10.8046 22.2831C10.6251 22.4664 10.4255 22.678 10.237 22.9244C7.82053 20.5921 5.72192 17.8942 3.67467 15.1354C3.56509 14.9877 3.4597 14.8475 3.3589 14.7135L3.35885 14.7134C2.55929 13.6499 2.04895 12.9711 2.03147 11.9926C2.0282 11.8094 2.02447 11.6279 2.02076 11.4479C1.98518 9.71873 1.95254 8.13296 2.36403 6.63221C3.06438 4.078 4.56311 2.29601 6.99878 2.15273ZM10.2834 25.2666C10.0961 25.2042 9.93968 25.0918 9.82384 24.9492C9.59135 24.94 9.36098 24.8501 9.17824 24.6781C6.49084 22.1488 4.2112 19.2145 2.06858 16.3272C1.97461 16.2006 1.87478 16.0703 1.77175 15.9358C1.0054 14.9355 0.0617114 13.7038 0.0317914 12.0283C0.0285193 11.845 0.024432 11.6589 0.0202891 11.4702C-0.0166642 9.78698 -0.0580407 7.90232 0.435227 6.10334C1.25178 3.12533 3.23587 0.370623 6.88134 0.156184L7.21644 0.136314C10.3021 -0.0473704 14.0999 -0.273446 17.2455 1.14209C19.728 2.25919 20.4205 4.58608 20.8611 6.73982C21.3391 9.07678 21.3576 11.1926 20.7575 13.1568C20.1555 15.1275 18.958 16.8565 17.1519 18.4618C16.6068 18.9464 15.8545 19.6319 15.1451 20.3427C14.4209 21.0684 13.7968 21.7661 13.4648 22.2827C13.1555 22.7638 12.7364 23.1807 12.4152 23.5003C12.35 23.5651 12.2888 23.626 12.2334 23.6825C11.8596 24.0643 11.6474 24.3367 11.5483 24.6342C11.3736 25.1581 10.8073 25.4413 10.2834 25.2666ZM10.9675 7.56794L10.9676 7.56794C11.1121 7.56608 11.2368 7.56448 11.375 7.56649C11.5997 7.56975 11.7399 7.58378 11.8423 7.60743C11.9654 7.63586 12.1025 7.6815 12.3249 8.0151C12.9351 8.93039 13.2737 9.44508 13.2737 10.2108C13.2737 10.8464 13.1842 11.1304 13.0762 11.2956C12.9767 11.4477 12.764 11.6465 12.1565 11.8652C10.9351 12.3049 9.87313 12.6213 8.82833 12.4975C8.74476 12.3812 8.64368 12.2119 8.54119 12.0107C8.43225 11.797 8.33678 11.577 8.27118 11.3968C8.2383 11.3064 8.21681 11.2366 8.20477 11.1896L8.20123 11.1753V11.1721V11.1681V11.1641V11.1601V11.1561V11.1521V11.1481V11.1441V11.1401V11.1361V11.1321V11.1281V11.1241V11.1201V11.1161V11.1121V11.1081V11.1041V11.1001V11.0961V11.0921V11.0881V11.0841V11.0801V11.0761V11.0721V11.0681V11.0641V11.0601V11.0561V11.0522V11.0482V11.0442V11.0402V11.0362V11.0322V11.0282V11.0242V11.0202V11.0162V11.0122V11.0082V11.0042V11.0002V10.9962V10.9922V10.9882V10.9842V10.9802V10.9762V10.9722V10.9682V10.9642V10.9602V10.9562V10.9522V10.9482V10.9442V10.9402V10.9362V10.9322V10.9282V10.9242V10.9202V10.9162V10.9122V10.9082V10.9042V10.9002V10.8962V10.8922V10.8882V10.8842V10.8802V10.8762V10.8722V10.8682V10.8642V10.8602V10.8562V10.8522V10.8482V10.8442V10.8402V10.8362V10.8322V10.8282V10.8242V10.8202V10.8162V10.8122V10.8082V10.8042V10.8002V10.7962V10.7922V10.7882V10.7842V10.7802V10.7762V10.7722V10.7682V10.7643V10.7603V10.7563V10.7523V10.7483V10.7443V10.7403V10.7363V10.7323V10.7283V10.7243V10.7203V10.7163V10.7123V10.7083V10.7043V10.7003V10.6963V10.6923V10.6883V10.6843V10.6803V10.6763V10.6723V10.6683V10.6643V10.6603V10.6563V10.6523V10.6483V10.6443V10.6403V10.6363V10.6323V10.6283V10.6243V10.6203V10.6163V10.6123V10.6083V10.6043V10.6003V10.5963V10.5923V10.5883V10.5843V10.5803V10.5763V10.5723V10.5683V10.5643V10.5603V10.5563V10.5523V10.5483V10.5443V10.5403V10.5363V10.5323V10.5283V10.5243V10.5203V10.5163V10.5123V10.5083V10.5043V10.5003V10.4963V10.4923V10.4883V10.4843V10.4804V10.4764V10.4724V10.4684V10.4644V10.4604V10.4564V10.4524V10.4484V10.4444V10.4404V10.4364V10.4324V10.4284V10.4244V10.4204V10.4164V10.4124V10.4084V10.4044V10.4004V10.3964V10.3924V10.3884V10.3844V10.3804V10.3764V10.3724V10.3684V10.3644V10.3604V10.3564V10.3524V10.3484V10.3444V10.3404V10.3364V10.3324V10.3284V10.3244V10.3204V10.3164V10.3124V10.3084V10.3044V10.3004V10.2964V10.2924V10.2884V10.2844V10.2804V10.2764V10.2724V10.2684V10.2644V10.2604V10.2564V10.2524V10.2484V10.2444V10.2404V10.2364V10.2324V10.2284V10.2244V10.2204V10.2164V10.2124V10.2084V10.2044V10.2004V10.1964V10.1925V10.1885V10.1845V10.1805V10.1765V10.1725V10.1685V10.1645V10.1605V10.1565V10.1525V10.1485V10.1445V10.1405V10.1365V10.1325V10.1285V10.1245V10.1205V10.1165V10.1125V10.1085V10.1045V10.1005V10.0965V10.0925V10.0885V10.0845V10.0805V10.0765V10.0725V10.0685V10.0645V10.0605V10.0565V10.0525V10.0485V10.0445V10.0405V10.0365V10.0325V10.0285V10.0245V10.0205V10.0165V10.0125V10.0085V10.0045V10.0005V9.99652V9.99252V9.98852V9.98452V9.98053V9.97653V9.97253V9.96853V9.96453V9.96053V9.95653V9.95253V9.94854V9.94454V9.94054V9.93654V9.93254V9.92854V9.92454V9.92055V9.91655V9.91255V9.90855V9.90455V9.90055V9.89655V9.89256V9.88856V9.88456V9.88056V9.87656V9.87256V9.86856V9.86456V9.86057V9.85657V9.85257V9.84857V9.84457V9.84057V9.83658V9.83258V9.82858V9.82458V9.82058V9.81658V9.81258V9.80859V9.80459V9.80059V9.79659V9.79259V9.78859V9.78459V9.78059V9.7766V9.7726V9.7686V9.7646V9.7606V9.7566V9.7526V9.74861V9.74461V9.74061V9.73661V9.73261V9.72861V9.72461V9.72062V9.71662V9.71262V9.70862V9.70462V9.70062V9.69662V9.69263V9.68863V9.68463V9.68063V9.67663V9.67263V9.66863V9.66464V9.66064V9.65664V9.65264V9.64864V9.64464V9.64064V9.63665V9.63265V9.62865V9.62465V9.62065V9.61665V9.61265V9.60865V9.60466V9.60066V9.59666V9.59266V9.58866V9.58466V9.58066V9.57667V9.57267V9.56867V9.56467V9.56067V9.55667V9.55267V9.54868V9.54468V9.54068V9.53668V9.53268V9.52868V9.52468V9.52069V9.51669V9.51269V9.50869V9.50469V9.50069V9.49669V9.4927V9.4887V9.4847V9.4807V9.4767V9.4727V9.4687V9.46471V9.46071V9.45671V9.45271V9.44871V9.44471V9.44071V9.43672V9.43272V9.42872V9.42472V9.42072V9.41672V9.41272V9.40872V9.40473V9.40073V9.39673V9.39273V9.38873V9.38473V9.38073V9.37674V9.37274V9.36874V9.36474V9.36074V9.35674V9.35274V9.34875V9.34475V9.34075V9.33675V9.33275V9.32875V9.32475V9.32076V9.31676V9.31276V9.30876V9.30476V9.30076V9.29676V9.29277V9.28877V9.28477V9.28077V9.27677V9.27277V9.26877V9.26478V9.26078V9.25678V9.25278V9.24878V9.24478V9.24078V9.23678V9.23279V9.22879V9.22479V9.22079V9.21679V9.21279V9.20879V9.2048V9.2008V9.1968V9.1928V9.1888V9.1848V9.1808V9.17681C8.20123 8.79182 7.98367 8.45764 7.66479 8.29051C7.76963 8.17835 7.89932 8.0805 8.05868 7.99436C8.62032 7.69076 9.47473 7.57117 10.5513 7.57117C10.7159 7.57117 10.8485 7.56947 10.9675 7.56794ZM8.19656 11.1533L8.19705 11.1562C8.19668 11.1542 8.19654 11.1533 8.19656 11.1533ZM6.20123 10.5483V10.5467C5.68132 10.511 5.27064 10.078 5.27064 9.54904C5.27064 8.78024 5.42958 8.0991 5.76251 7.52104C6.09729 6.93975 6.57275 6.52408 7.10763 6.23495C8.13444 5.67991 9.42038 5.57117 10.5513 5.57117C10.6469 5.57117 10.7483 5.56973 10.8535 5.56823C11.3098 5.56173 11.8396 5.55418 12.2922 5.6587C12.9896 5.81972 13.531 6.2187 13.989 6.9057L14.0791 7.04031C14.6163 7.84154 15.2737 8.82191 15.2737 10.2108C15.2737 10.9745 15.1788 11.7343 14.7501 12.3901C14.3128 13.0589 13.6362 13.4581 12.8339 13.747C11.5417 14.2122 9.94788 14.7411 8.24244 14.431C7.923 14.3729 7.69733 14.1965 7.58361 14.0961C7.45183 13.9797 7.34004 13.8468 7.24997 13.7269C7.06822 13.485 6.89948 13.194 6.75925 12.9189C6.61685 12.6395 6.48782 12.3447 6.39176 12.0807C6.31391 11.8668 6.20123 11.5272 6.20123 11.2241V11.2201V11.2161V11.2121V11.2081V11.2041V11.2001V11.1961V11.1921V11.1881V11.1841V11.1801V11.1761V11.1721V11.1681V11.1641V11.1601V11.1561V11.1521V11.1481V11.1441V11.1401V11.1361V11.1321V11.1281V11.1241V11.1201V11.1161V11.1121V11.1081V11.1041V11.1001V11.0961V11.0921V11.0881V11.0841V11.0801V11.0761V11.0721V11.0681V11.0641V11.0601V11.0561V11.0522V11.0482V11.0442V11.0402V11.0362V11.0322V11.0282V11.0242V11.0202V11.0162V11.0122V11.0082V11.0042V11.0002V10.9962V10.9922V10.9882V10.9842V10.9802V10.9762V10.9722V10.9682V10.9642V10.9602V10.9562V10.9522V10.9482V10.9442V10.9402V10.9362V10.9322V10.9282V10.9242V10.9202V10.9162V10.9122V10.9082V10.9042V10.9002V10.8962V10.8922V10.8882V10.8842V10.8802V10.8762V10.8722V10.8682V10.8642V10.8602V10.8562V10.8522V10.8482V10.8442V10.8402V10.8362V10.8322V10.8282V10.8242V10.8202V10.8162V10.8122V10.8082V10.8042V10.8002V10.7962V10.7922V10.7882V10.7842V10.7802V10.7762V10.7722V10.7682V10.7643V10.7603V10.7563V10.7523V10.7483V10.7443V10.7403V10.7363V10.7323V10.7283V10.7243V10.7203V10.7163V10.7123V10.7083V10.7043V10.7003V10.6963V10.6923V10.6883V10.6843V10.6803V10.6763V10.6723V10.6683V10.6643V10.6603V10.6563V10.6523V10.6483V10.6443V10.6403V10.6363V10.6323V10.6283V10.6243V10.6203V10.6163V10.6123V10.6083V10.6043V10.6003V10.5963V10.5923V10.5883V10.5843V10.5803V10.5763V10.5723V10.5683V10.5643V10.5603V10.5563V10.5523V10.5483Z" fill="currentColor"/>
</svg>
