<svg width="20" height="13" viewBox="0 0 20 13" fill="none" xmlns="http://www.w3.org/2000/svg">
    <path d="M1.60016 0.26001C1.41152 0.26001 1.23246 0.299634 1.06766 0.36501L9.42266 7.47501C9.78834 7.78651 10.1961 7.78672 10.5627 7.47501L18.9252 0.357495C18.7627 0.294303 18.5855 0.26001 18.4002 0.26001H1.60016ZM0.175156 1.49001C0.165393 1.55798 0.160156 1.62926 0.160156 1.70001V11.3C0.160156 12.0977 0.802411 12.74 1.60016 12.74H18.4002C19.1979 12.74 19.8402 12.0977 19.8402 11.3V1.70001C19.8402 1.62926 19.8349 1.55798 19.8252 1.49001L11.5002 8.57001C10.6372 9.30388 9.3481 9.30506 8.48516 8.57001L0.175156 1.49001Z" fill="currentColor"/>
</svg>
