<svg width="16" height="16" viewBox="0 0 16 16" fill="none" xmlns="http://www.w3.org/2000/svg">
<path d="M8.9752 16C8.95648 16 8.91155 15.9812 8.89285 15.9586C9.45626 15.5786 9.9841 15.1364 10.4633 14.6096C11.0735 13.9342 11.5545 13.1985 11.9345 12.4177H14.6991C14.409 12.8806 14.0496 13.302 13.6734 13.7027C12.3949 14.9897 10.7384 15.7912 8.9752 16ZM14.9537 8.38944H16C15.9588 9.50891 15.6668 10.5833 15.1839 11.5729H12.3107C12.6888 10.5607 12.8966 9.48635 12.9396 8.38944H14.1151H14.9537ZM14.1151 7.56917H12.9396C12.876 6.45154 12.6439 5.33584 12.2265 4.27843H13.065H13.8849H15.1221C15.6444 5.29254 15.9382 6.40829 16 7.56917H14.9537H14.1151ZM13.065 3.45816H11.8503C11.4909 2.7413 11.0304 2.04517 10.4857 1.43366C10.0028 0.906848 9.45626 0.462848 8.89285 0.084688C8.91157 0.062064 8.93403 0.062064 8.93403 0.062064L8.91155 0C10.716 0.208832 12.3725 1.01032 13.6734 2.2973C14.0309 2.65662 14.3472 3.03483 14.6168 3.45818H13.8849L13.065 3.45816ZM11.2606 4.27843C11.723 5.31328 11.9738 6.42896 12.0374 7.54654H8.3051V4.27843H11.2606ZM10.8432 3.43554H8.3051V0.758208C8.84979 1.1157 9.35517 1.53714 9.81563 2.04517C10.2143 2.48728 10.5475 2.95013 10.8432 3.43554ZM9.10248 11.5729H8.28264V8.41206H12.0168C11.9738 9.48635 11.7436 10.5607 11.3243 11.5729H9.93917H9.10248ZM9.93917 12.4177H10.9256C10.613 12.9671 10.233 13.4939 9.79317 13.9774C9.33083 14.4835 8.82733 14.9275 8.28264 15.2831V12.4177H9.10248H9.93917ZM5.03134 3.45816C5.3065 2.97269 5.66026 2.48728 6.03837 2.06584C6.48011 1.58232 6.94243 1.17971 7.46654 0.842896V3.45816H5.03134ZM4.92653 12.4177H7.46654V15.223C6.94245 14.8843 6.48011 14.4629 6.03837 13.9774C5.60037 13.5146 5.24099 12.9671 4.92653 12.4177ZM5.17922 7.56917H3.81843C3.88021 6.45154 4.1329 5.33584 4.59336 4.30106H7.46654V7.56917H6.01779H5.17922ZM6.01778 8.41206H7.46653V11.5729H4.50912C4.08797 10.5833 3.85774 9.48635 3.81843 8.41206H5.17922H6.01778ZM6.89752 0.020672V0.041392C6.89752 0.062064 6.92186 0.062064 6.94245 0.062064C6.37717 0.440272 5.85307 0.906848 5.37014 1.43366C4.80112 2.04517 4.34067 2.71874 3.98502 3.43554H1.38325C1.67712 3.03482 1.99157 2.65661 2.3285 2.29728C3.58634 1.03294 5.17922 0.252128 6.89752 0.020672ZM2.3285 13.7027C1.92981 13.302 1.59288 12.8598 1.30088 12.3951H3.88019C4.27888 13.1985 4.76179 13.9341 5.37013 14.5889C5.85304 15.1157 6.37715 15.5785 6.94243 15.9586C6.92184 15.9586 6.8975 15.9811 6.8975 15.9811C5.17922 15.7498 3.58634 14.9671 2.3285 13.7027ZM0.943376 7.54654H0C0.063648 6.40829 0.378096 5.29254 0.879744 4.27843H3.60693C3.18952 5.33584 2.95742 6.42896 2.8919 7.54654H1.75947H0.943376ZM1.75947 8.38944H2.8919C2.93683 9.48635 3.14459 10.5607 3.52082 11.5729H0.817968C0.335056 10.5833 0.063648 9.50891 0 8.38944H0.943376" fill="#1B1B1F"/>
</svg>
