<svg width="251" height="87" viewBox="0 0 251 87" fill="none" xmlns="http://www.w3.org/2000/svg">
<path d="M4 21.2173C15.7214 16.554 28.3917 15.4367 40.6364 12.6542C64.209 7.29746 86.7362 4 110.978 4C129.311 4 147.843 4.34467 165.017 11.561C173.903 15.2947 181.574 20.3199 181.916 30.6913C182.642 52.716 156.666 69.9647 138.547 76.6041C127.042 80.8199 108.716 85.0745 96.9677 81.8877C92.8195 80.7625 84.0868 76.191 83.2085 70.5755C82.264 64.5368 96.5297 59.1395 100.354 57.9293C118.994 52.0304 139.1 50.0442 158.422 47.4987C176.962 45.0564 195.574 43.4858 214.293 44.3558C222.353 44.7305 230.4 46.0094 237.694 49.5028C248.999 54.9166 248.188 71.4844 244.701 81.8877" stroke="#EFB104" stroke-width="8" stroke-linecap="round"/>
</svg>
