<svg width="auto" height="auto" viewBox="0 0 14 26" fill="none" xmlns="http://www.w3.org/2000/svg">
    <path fill-rule="evenodd" clip-rule="evenodd" d="M11.1256 4.90185H13.6923V1.00185C13.2923 1.00185 12.8589 0.901848 12.4423 0.885182C11.6756 0.885182 10.9089 0.801848 10.1423 0.885182C8.95257 0.869994 7.78763 1.2253 6.80892 1.90185C6.27504 2.29639 5.82689 2.79531 5.49169 3.36831C5.15648 3.94131 4.9412 4.57645 4.85892 5.23518C4.77313 5.78665 4.72857 6.34375 4.72559 6.90185C4.72559 7.78518 4.72559 8.56851 4.72559 9.53518V9.86851H0.975586V14.2185H4.67559V25.1518H9.20892V14.0852H12.9089C13.0923 12.6352 13.2756 11.2018 13.4756 9.70185H9.17559C9.17559 9.70185 9.17559 7.55185 9.17559 6.61852C9.25892 5.28518 10.0089 4.93518 11.1256 4.90185Z" fill="currentColor"/>
</svg>
