<svg width="auto" height="auto" viewBox="0 0 21 22" fill="none" xmlns="http://www.w3.org/2000/svg">
    <path fill-rule="evenodd" clip-rule="evenodd" d="M5.14171 7.60862H0.958385V21.042H5.14171V7.60862ZM4.39983 1.34509C3.99712 1.07898 3.52439 0.938656 3.04172 0.941951C2.40078 0.941951 1.7861 1.19656 1.33289 1.64978C0.879674 2.10299 0.625057 2.71768 0.625057 3.35862C0.621762 3.84129 0.762088 4.31404 1.02819 4.71674C1.2943 5.11944 1.67414 5.43391 2.11945 5.62014C2.56476 5.80638 3.05541 5.85597 3.52898 5.76261C4.00255 5.66925 4.43765 5.43716 4.77896 5.09586C5.12027 4.75455 5.35236 4.31944 5.44572 3.84587C5.53907 3.37231 5.48948 2.88167 5.30325 2.43636C5.11701 1.99106 4.80253 1.6112 4.39983 1.34509ZM11.7584 7.60837H7.75836V21.0584H11.925V14.3917C11.925 12.6084 12.2417 10.9417 14.425 10.9417C16.6084 10.9417 16.6084 12.9417 16.6084 14.5084V14.5084V21.0417H20.7084V13.675C20.7084 10.0584 19.9417 7.27503 15.7084 7.27503C14.9164 7.25026 14.1323 7.43817 13.4376 7.81922C12.743 8.20027 12.1631 8.76053 11.7584 9.4417V7.60837Z" fill="currentColor"/>
</svg>
