<svg width="auto" height="auto" viewBox="0 0 22 22" fill="none" xmlns="http://www.w3.org/2000/svg">
    <path d="M21.7317 5.57737C21.6169 4.16419 20.9884 2.84201 19.9651 1.8607C18.8824 0.831661 17.4581 0.238217 15.9651 0.194034C12.3706 0.0105214 8.76786 0.0717742 5.18174 0.377368C4.05276 0.509396 2.99212 0.986937 2.14488 1.74469C1.29763 2.50244 0.705132 3.5034 0.448404 4.6107C-0.00139274 8.68001 -0.0349018 12.7846 0.348402 16.8607C0.480857 18.0168 0.976545 19.101 1.76418 19.9575C2.55182 20.814 3.59081 21.3987 4.73173 21.6274C8.74519 22.0029 12.7849 22.0029 16.7984 21.6274C17.9529 21.5002 19.0375 21.0109 19.8968 20.2294C20.756 19.448 21.3459 18.4146 21.5817 17.2774C21.9692 13.389 22.0194 9.47439 21.7317 5.57737ZM19.7317 16.494C19.6454 17.3743 19.2465 18.1944 18.6075 18.8059C17.9685 19.4174 17.1316 19.7798 16.2484 19.8274C12.5011 20.1032 8.73699 20.053 4.9984 19.6774C4.28399 19.5041 3.64013 19.1154 3.15416 18.5638C2.66818 18.0123 2.36361 17.3246 2.28173 16.594C2.00639 12.927 2.00639 9.24443 2.28173 5.57737C2.36711 4.7025 2.76116 3.88661 3.39332 3.27582C4.02548 2.66504 4.85445 2.29927 5.73174 2.24403C9.31071 1.99386 12.9028 1.99386 16.4817 2.24403C17.362 2.3304 18.1821 2.72923 18.7936 3.36825C19.4051 4.00726 19.7675 4.84419 19.8151 5.72737C20.031 9.31401 20.0032 12.9112 19.7317 16.494ZM10.9984 5.37737C9.89083 5.37737 8.80812 5.7058 7.88721 6.32114C6.96629 6.93647 6.24853 7.81107 5.82468 8.83434C5.40083 9.85761 5.28992 10.9836 5.506 12.0699C5.72208 13.1562 6.25543 14.154 7.0386 14.9372C7.82178 15.7203 8.8196 16.2537 9.9059 16.4698C10.9922 16.6858 12.1182 16.5749 13.1414 16.1511C14.1647 15.7272 15.0393 15.0095 15.6546 14.0886C16.27 13.1676 16.5984 12.0849 16.5984 10.9774C16.5984 9.49216 16.0084 8.06777 14.9582 7.01757C13.908 5.96737 12.4836 5.37737 10.9984 5.37737ZM10.9984 14.5774C10.2831 14.5707 9.58589 14.3522 8.99485 13.9493C8.4038 13.5464 7.9455 12.9773 7.67788 12.314C7.41027 11.6506 7.34536 10.9228 7.49137 10.2226C7.63739 9.52235 7.98777 8.88113 8.4982 8.38003C9.00863 7.87892 9.65619 7.54042 10.359 7.40734C11.0618 7.27426 11.7883 7.35256 12.4466 7.63236C13.1049 7.91216 13.6655 8.38088 14.0574 8.97925C14.4493 9.57762 14.655 10.2788 14.6484 10.994C14.6507 11.476 14.5566 11.9537 14.3717 12.3988C14.1868 12.8439 13.9148 13.2476 13.5716 13.5861C13.2284 13.9246 12.8211 14.1911 12.3735 14.3699C11.9259 14.5487 11.447 14.6363 10.9651 14.6274L10.9984 14.5774ZM18.1651 5.1607C18.1651 5.5099 18.0263 5.8448 17.7794 6.09173C17.5325 6.33865 17.1976 6.47737 16.8484 6.47737C16.4992 6.47737 16.1643 6.33865 15.9174 6.09173C15.6705 5.8448 15.5317 5.5099 15.5317 5.1607C15.5317 4.8115 15.6705 4.4766 15.9174 4.22968C16.1643 3.98276 16.4992 3.84403 16.8484 3.84403C17.0228 3.84832 17.1946 3.88721 17.3538 3.95845C17.513 4.02969 17.6565 4.13185 17.7759 4.259C17.8953 4.38615 17.9882 4.53577 18.0493 4.69914C18.1104 4.86252 18.1384 5.0364 18.1317 5.2107L18.1651 5.1607Z" fill="currentColor"/>
</svg>
