<svg width="48" height="48" viewBox="0 0 48 48" fill="none" xmlns="http://www.w3.org/2000/svg">
<path d="M15.0588 3.76465C11.0417 3.76465 7.39752 4.50954 4.67647 5.77933C1.95543 7.04916 0 8.92978 0 11.2941V36.7058C0 39.0701 1.95543 40.936 4.67647 42.2058C7.39752 43.4757 11.0417 44.2352 15.0588 44.2352C19.076 44.2352 22.7201 43.4757 25.4412 42.2058C28.1622 40.936 30.1176 39.0701 30.1176 36.7058V11.2941C30.1176 8.92978 28.1622 7.04916 25.4412 5.77933C22.7201 4.50954 19.076 3.76465 15.0588 3.76465ZM15.0588 5.647C18.8386 5.647 22.2585 6.37057 24.6471 7.48521C27.0356 8.59989 28.2353 10.0198 28.2353 11.2941C28.2353 12.5684 27.0356 13.9735 24.6471 15.0882C22.2585 16.2028 18.8386 16.9411 15.0588 16.9411C11.2791 16.9411 7.85914 16.2028 5.47059 15.0882C3.08203 13.9735 1.88235 12.5684 1.88235 11.2941C1.88235 10.0198 3.08203 8.59989 5.47059 7.48521C7.85914 6.37057 11.2791 5.647 15.0588 5.647ZM1.88235 15.0146C2.64531 15.6971 3.60057 16.292 4.67647 16.7941C7.39752 18.0639 11.0417 18.8235 15.0588 18.8235C19.076 18.8235 22.7201 18.0639 25.4412 16.7941C26.5171 16.292 27.4723 15.6971 28.2353 15.0146V19.7647C28.2353 21.039 27.0356 22.4441 24.6471 23.5588C22.2585 24.6734 18.8386 25.4117 15.0588 25.4117C12.8133 25.4117 10.6947 25.1511 8.84398 24.7058C8.48561 24.6196 8.13727 24.5265 7.8 24.4269C6.94729 24.1753 6.16532 23.883 5.47059 23.5588C3.08203 22.4441 1.88235 21.039 1.88235 19.7647V15.0146ZM1.88235 23.4705C2.64522 24.1574 3.59533 24.7601 4.67647 25.2646C5.51028 25.6538 6.43077 25.995 7.4221 26.2811C7.80886 26.3927 8.2064 26.4959 8.61378 26.5904C10.5699 27.0438 12.7529 27.2941 15.0588 27.2941C19.076 27.2941 22.7201 26.5345 25.4412 25.2646C26.5223 24.7601 27.4724 24.1574 28.2353 23.4705V28.2352C28.2353 29.5095 27.0356 30.9147 24.6471 32.0294C22.2585 33.144 18.8386 33.8823 15.0588 33.8823C11.2791 33.8823 7.85914 33.144 5.47059 32.0294C3.08203 30.9147 1.88235 29.5095 1.88235 28.2352V23.4705ZM1.88235 31.9411C2.64522 32.6279 3.59533 33.2307 4.67647 33.7352C7.39752 35.0051 11.0417 35.7647 15.0588 35.7647C19.076 35.7647 22.7201 35.0051 25.4412 33.7352C26.5223 33.2307 27.4724 32.6279 28.2353 31.9411V36.7058C28.2353 37.9801 27.0356 39.3853 24.6471 40.4999C22.2585 41.6146 18.8386 42.3529 15.0588 42.3529C11.2791 42.3529 7.85914 41.6146 5.47059 40.4999C3.08203 39.3853 1.88235 37.9801 1.88235 36.7058V31.9411Z" fill="white"/>
<rect x="10.1616" y="22.8676" width="10.7353" height="10.7353" rx="1.25" fill="#121213" stroke="white" stroke-width="1.5"/>
<rect x="13.2058" y="25.9116" width="4.64706" height="4.64706" rx="0.5" fill="#121213" stroke="white"/>
<rect x="23.3381" y="22.8676" width="10.7353" height="10.7353" rx="1.25" fill="#121213" stroke="white" stroke-width="1.5"/>
<rect x="26.3823" y="25.9116" width="4.64706" height="4.64706" rx="0.5" fill="#121213" stroke="white"/>
<rect x="21.647" y="26.3528" width="1.41177" height="4.2353" fill="white"/>
<rect x="34.8235" y="26.3528" width="1.41176" height="4.2353" fill="white"/>
<rect x="36.5146" y="22.8676" width="10.7353" height="10.7353" rx="1.25" fill="#121213" stroke="white" stroke-width="1.5"/>
<rect x="39.5588" y="25.9116" width="4.64706" height="4.64706" rx="0.5" fill="#121213" stroke="white"/>
<line x1="19.2939" y1="28.2058" x2="25.8822" y2="28.2058" stroke="#121213"/>
<line x1="31.9998" y1="28.2058" x2="38.588" y2="28.2058" stroke="#121213"/>
</svg>
