<svg width="44" height="16" viewBox="0 0 44 16" fill="none" xmlns="http://www.w3.org/2000/svg">
<path d="M11.6421 11.1157C11.6421 11.6999 11.7053 12.1736 11.8158 12.521C11.9421 12.8683 12.1 13.2473 12.3211 13.6578C12.4 13.7841 12.4316 13.9104 12.4316 14.021C12.4316 14.1789 12.3368 14.3368 12.1316 14.4946L11.1368 15.1578C10.9947 15.2525 10.8526 15.2999 10.7263 15.2999C10.5684 15.2999 10.4105 15.221 10.2526 15.0789C10.0316 14.842 9.84211 14.5894 9.68421 14.3368C9.52632 14.0683 9.36842 13.7683 9.19474 13.4052C7.96316 14.8578 6.41579 15.5841 4.55263 15.5841C3.22632 15.5841 2.16842 15.2052 1.39474 14.4473C0.621055 13.6894 0.226318 12.6789 0.226318 11.4157C0.226318 10.0736 0.700003 8.98412 1.66316 8.16307C2.62632 7.34202 3.90527 6.93149 5.53158 6.93149C6.06842 6.93149 6.62106 6.97886 7.20527 7.05781C7.78948 7.13675 8.38948 7.26307 9.02106 7.40518V6.25254C9.02106 5.05254 8.76842 4.2157 8.27895 3.72623C7.77369 3.23675 6.92105 2.99991 5.70527 2.99991C5.15263 2.99991 4.58421 3.06307 4 3.20518C3.41579 3.34728 2.84737 3.52096 2.29474 3.74202C2.04211 3.85254 1.85263 3.9157 1.74211 3.94728C1.63158 3.97886 1.55263 3.99465 1.48948 3.99465C1.26842 3.99465 1.1579 3.83675 1.1579 3.50518V2.73149C1.1579 2.47886 1.18948 2.28939 1.26842 2.17886C1.34737 2.06833 1.48948 1.95781 1.71053 1.84728C2.26316 1.56307 2.92632 1.32623 3.7 1.13675C4.47369 0.931492 5.29474 0.836755 6.16316 0.836755C8.04211 0.836755 9.41579 1.26307 10.3 2.1157C11.1684 2.96833 11.6105 4.26307 11.6105 5.99991V11.1157H11.6421ZM5.23158 13.5157C5.75263 13.5157 6.28948 13.421 6.8579 13.2315C7.42632 13.042 7.93158 12.6946 8.3579 12.221C8.61053 11.921 8.8 11.5894 8.89474 11.2104C8.98948 10.8315 9.05264 10.3736 9.05264 9.83675V9.1736C8.59474 9.06307 8.10527 8.96833 7.6 8.90518C7.09474 8.84202 6.60527 8.81044 6.11579 8.81044C5.0579 8.81044 4.28421 9.0157 3.76316 9.44202C3.24211 9.86833 2.98948 10.4683 2.98948 11.2578C2.98948 11.9999 3.17895 12.5525 3.57369 12.9315C3.95263 13.3262 4.50527 13.5157 5.23158 13.5157ZM17.9105 15.221C17.6263 15.221 17.4368 15.1736 17.3105 15.0631C17.1842 14.9683 17.0737 14.7473 16.979 14.4473L13.2684 2.24202C13.1737 1.92623 13.1263 1.72097 13.1263 1.61044C13.1263 1.35781 13.2526 1.2157 13.5053 1.2157H15.0526C15.3526 1.2157 15.5579 1.26307 15.6684 1.3736C15.7947 1.46833 15.8895 1.68939 15.9842 1.98939L18.6368 12.442L21.1 1.98939C21.179 1.6736 21.2737 1.46833 21.4 1.3736C21.5263 1.27886 21.7474 1.2157 22.0316 1.2157H23.2947C23.5947 1.2157 23.8 1.26307 23.9263 1.3736C24.0526 1.46833 24.1632 1.68939 24.2263 1.98939L26.7211 12.5683L29.4526 1.98939C29.5474 1.6736 29.6579 1.46833 29.7684 1.3736C29.8947 1.27886 30.1 1.2157 30.3842 1.2157H31.8526C32.1053 1.2157 32.2474 1.34202 32.2474 1.61044C32.2474 1.68939 32.2316 1.76833 32.2158 1.86307C32.2 1.95781 32.1684 2.08412 32.1053 2.25781L28.3 14.4631C28.2053 14.7789 28.0947 14.9841 27.9684 15.0789C27.8421 15.1736 27.6368 15.2368 27.3684 15.2368H26.0105C25.7105 15.2368 25.5053 15.1894 25.379 15.0789C25.2526 14.9683 25.1421 14.7631 25.079 14.4473L22.6316 4.26307L20.2 14.4315C20.1211 14.7473 20.0263 14.9525 19.9 15.0631C19.7737 15.1736 19.5526 15.221 19.2684 15.221H17.9105ZM38.2 15.6473C37.379 15.6473 36.5579 15.5525 35.7684 15.3631C34.979 15.1736 34.3632 14.9683 33.9526 14.7315C33.7 14.5894 33.5263 14.4315 33.4632 14.2894C33.4 14.1473 33.3684 13.9894 33.3684 13.8473V13.042C33.3684 12.7104 33.4947 12.5525 33.7316 12.5525C33.8263 12.5525 33.9211 12.5683 34.0158 12.5999C34.1105 12.6315 34.2526 12.6946 34.4105 12.7578C34.9474 12.9946 35.5316 13.1841 36.1474 13.3104C36.779 13.4368 37.3947 13.4999 38.0263 13.4999C39.0211 13.4999 39.7947 13.3262 40.3316 12.9789C40.8684 12.6315 41.1526 12.1262 41.1526 11.4789C41.1526 11.0368 41.0105 10.6736 40.7263 10.3736C40.4421 10.0736 39.9053 9.80517 39.1316 9.55254L36.8421 8.84202C35.6895 8.47886 34.8368 7.94202 34.3158 7.23149C33.7947 6.53675 33.5263 5.76307 33.5263 4.94202C33.5263 4.27886 33.6684 3.69465 33.9526 3.18939C34.2368 2.68412 34.6158 2.24202 35.0895 1.89465C35.5632 1.53149 36.1 1.26307 36.7316 1.0736C37.3632 0.884123 38.0263 0.805176 38.7211 0.805176C39.0684 0.805176 39.4316 0.820965 39.779 0.868334C40.1421 0.915702 40.4737 0.97886 40.8053 1.04202C41.1211 1.12097 41.4211 1.19991 41.7053 1.29465C41.9895 1.38939 42.2105 1.48412 42.3684 1.57886C42.5895 1.70518 42.7474 1.83149 42.8421 1.9736C42.9368 2.09991 42.9842 2.2736 42.9842 2.49465V3.23675C42.9842 3.56833 42.8579 3.74202 42.6211 3.74202C42.4947 3.74202 42.2895 3.67886 42.0211 3.55254C41.1211 3.14202 40.1105 2.93675 38.9895 2.93675C38.0895 2.93675 37.379 3.07886 36.8895 3.37886C36.4 3.67886 36.1474 4.13675 36.1474 4.78412C36.1474 5.22623 36.3053 5.60518 36.6211 5.90518C36.9368 6.20518 37.5211 6.50518 38.3579 6.7736L40.6 7.48412C41.7368 7.84728 42.5579 8.35254 43.0474 8.99991C43.5368 9.64728 43.7737 10.3894 43.7737 11.2104C43.7737 11.8894 43.6316 12.5052 43.3632 13.042C43.0789 13.5789 42.7 14.0525 42.2105 14.4315C41.7211 14.8262 41.1368 15.1104 40.4579 15.3157C39.7474 15.5368 39.0053 15.6473 38.2 15.6473Z" fill="white"/>
</svg>
