<svg width="48" height="30" viewBox="0 0 48 30" fill="none" xmlns="http://www.w3.org/2000/svg">
<path d="M13.6421 11.1157C13.6421 11.6999 13.7053 12.1736 13.8158 12.521C13.9421 12.8683 14.1 13.2473 14.3211 13.6578C14.4 13.7841 14.4316 13.9104 14.4316 14.021C14.4316 14.1789 14.3368 14.3368 14.1316 14.4946L13.1368 15.1578C12.9947 15.2525 12.8526 15.2999 12.7263 15.2999C12.5684 15.2999 12.4105 15.221 12.2526 15.0789C12.0316 14.842 11.8421 14.5894 11.6842 14.3368C11.5263 14.0683 11.3684 13.7683 11.1947 13.4052C9.96316 14.8578 8.41579 15.5841 6.55263 15.5841C5.22632 15.5841 4.16842 15.2052 3.39474 14.4473C2.62106 13.6894 2.22632 12.6789 2.22632 11.4157C2.22632 10.0736 2.7 8.98412 3.66316 8.16307C4.62632 7.34202 5.90527 6.93149 7.53158 6.93149C8.06842 6.93149 8.62106 6.97886 9.20527 7.05781C9.78948 7.13675 10.3895 7.26307 11.0211 7.40518V6.25254C11.0211 5.05254 10.7684 4.2157 10.279 3.72623C9.77369 3.23675 8.92105 2.99991 7.70527 2.99991C7.15263 2.99991 6.58421 3.06307 6 3.20518C5.41579 3.34728 4.84737 3.52096 4.29474 3.74202C4.04211 3.85254 3.85263 3.9157 3.74211 3.94728C3.63158 3.97886 3.55263 3.99465 3.48948 3.99465C3.26842 3.99465 3.1579 3.83675 3.1579 3.50518V2.73149C3.1579 2.47886 3.18948 2.28939 3.26842 2.17886C3.34737 2.06833 3.48948 1.95781 3.71053 1.84728C4.26316 1.56307 4.92632 1.32623 5.7 1.13675C6.47369 0.931492 7.29474 0.836755 8.16316 0.836755C10.0421 0.836755 11.4158 1.26307 12.3 2.1157C13.1684 2.96833 13.6105 4.26307 13.6105 5.99991V11.1157H13.6421ZM7.23158 13.5157C7.75263 13.5157 8.28948 13.421 8.8579 13.2315C9.42632 13.042 9.93158 12.6946 10.3579 12.221C10.6105 11.921 10.8 11.5894 10.8947 11.2104C10.9895 10.8315 11.0526 10.3736 11.0526 9.83675V9.1736C10.5947 9.06307 10.1053 8.96833 9.6 8.90518C9.09474 8.84202 8.60527 8.81044 8.11579 8.81044C7.0579 8.81044 6.28421 9.0157 5.76316 9.44202C5.24211 9.86833 4.98948 10.4683 4.98948 11.2578C4.98948 11.9999 5.17895 12.5525 5.57369 12.9315C5.95263 13.3262 6.50527 13.5157 7.23158 13.5157ZM19.9105 15.221C19.6263 15.221 19.4368 15.1736 19.3105 15.0631C19.1842 14.9683 19.0737 14.7473 18.979 14.4473L15.2684 2.24202C15.1737 1.92623 15.1263 1.72097 15.1263 1.61044C15.1263 1.35781 15.2526 1.2157 15.5053 1.2157H17.0526C17.3526 1.2157 17.5579 1.26307 17.6684 1.3736C17.7947 1.46833 17.8895 1.68939 17.9842 1.98939L20.6368 12.442L23.1 1.98939C23.179 1.6736 23.2737 1.46833 23.4 1.3736C23.5263 1.27886 23.7474 1.2157 24.0316 1.2157H25.2947C25.5947 1.2157 25.8 1.26307 25.9263 1.3736C26.0526 1.46833 26.1632 1.68939 26.2263 1.98939L28.7211 12.5683L31.4526 1.98939C31.5474 1.6736 31.6579 1.46833 31.7684 1.3736C31.8947 1.27886 32.1 1.2157 32.3842 1.2157H33.8526C34.1053 1.2157 34.2474 1.34202 34.2474 1.61044C34.2474 1.68939 34.2316 1.76833 34.2158 1.86307C34.2 1.95781 34.1684 2.08412 34.1053 2.25781L30.3 14.4631C30.2053 14.7789 30.0947 14.9841 29.9684 15.0789C29.8421 15.1736 29.6368 15.2368 29.3684 15.2368H28.0105C27.7105 15.2368 27.5053 15.1894 27.379 15.0789C27.2526 14.9683 27.1421 14.7631 27.079 14.4473L24.6316 4.26307L22.2 14.4315C22.1211 14.7473 22.0263 14.9525 21.9 15.0631C21.7737 15.1736 21.5526 15.221 21.2684 15.221H19.9105ZM40.2 15.6473C39.379 15.6473 38.5579 15.5525 37.7684 15.3631C36.979 15.1736 36.3632 14.9683 35.9526 14.7315C35.7 14.5894 35.5263 14.4315 35.4632 14.2894C35.4 14.1473 35.3684 13.9894 35.3684 13.8473V13.042C35.3684 12.7104 35.4947 12.5525 35.7316 12.5525C35.8263 12.5525 35.9211 12.5683 36.0158 12.5999C36.1105 12.6315 36.2526 12.6946 36.4105 12.7578C36.9474 12.9946 37.5316 13.1841 38.1474 13.3104C38.779 13.4368 39.3947 13.4999 40.0263 13.4999C41.0211 13.4999 41.7947 13.3262 42.3316 12.9789C42.8684 12.6315 43.1526 12.1262 43.1526 11.4789C43.1526 11.0368 43.0105 10.6736 42.7263 10.3736C42.4421 10.0736 41.9053 9.80517 41.1316 9.55254L38.8421 8.84202C37.6895 8.47886 36.8368 7.94202 36.3158 7.23149C35.7947 6.53675 35.5263 5.76307 35.5263 4.94202C35.5263 4.27886 35.6684 3.69465 35.9526 3.18939C36.2368 2.68412 36.6158 2.24202 37.0895 1.89465C37.5632 1.53149 38.1 1.26307 38.7316 1.0736C39.3632 0.884123 40.0263 0.805176 40.7211 0.805176C41.0684 0.805176 41.4316 0.820965 41.779 0.868334C42.1421 0.915702 42.4737 0.97886 42.8053 1.04202C43.1211 1.12097 43.4211 1.19991 43.7053 1.29465C43.9895 1.38939 44.2105 1.48412 44.3684 1.57886C44.5895 1.70518 44.7474 1.83149 44.8421 1.9736C44.9368 2.09991 44.9842 2.2736 44.9842 2.49465V3.23675C44.9842 3.56833 44.8579 3.74202 44.6211 3.74202C44.4947 3.74202 44.2895 3.67886 44.0211 3.55254C43.1211 3.14202 42.1105 2.93675 40.9895 2.93675C40.0895 2.93675 39.379 3.07886 38.8895 3.37886C38.4 3.67886 38.1474 4.13675 38.1474 4.78412C38.1474 5.22623 38.3053 5.60518 38.6211 5.90518C38.9368 6.20518 39.5211 6.50518 40.3579 6.7736L42.6 7.48412C43.7368 7.84728 44.5579 8.35254 45.0474 8.99991C45.5368 9.64728 45.7737 10.3894 45.7737 11.2104C45.7737 11.8894 45.6316 12.5052 45.3632 13.042C45.0789 13.5789 44.7 14.0525 44.2105 14.4315C43.7211 14.8262 43.1368 15.1104 42.4579 15.3157C41.7474 15.5368 41.0053 15.6473 40.2 15.6473Z" fill="white"/>
<path fill-rule="evenodd" clip-rule="evenodd" d="M43.1843 23.321C37.9895 27.1579 30.4422 29.1947 23.9527 29.1947C14.858 29.1947 6.66322 25.8316 0.473746 20.2421C-0.0157275 19.8 0.426378 19.2 1.01059 19.5473C7.70533 23.4316 15.9632 25.7842 24.5053 25.7842C30.2685 25.7842 36.6001 24.5842 42.4264 22.121C43.2948 21.7263 44.0369 22.6895 43.1843 23.321Z" fill="white"/>
<path fill-rule="evenodd" clip-rule="evenodd" d="M45.3475 20.8578C44.6843 20.0051 40.958 20.4472 39.2685 20.6525C38.7633 20.7157 38.6843 20.2735 39.1422 19.942C42.1106 17.8578 46.9896 18.4578 47.558 19.1525C48.1264 19.863 47.4001 24.742 44.6211 27.0788C44.1948 27.442 43.7843 27.2525 43.9738 26.7788C44.6054 25.2156 46.0106 21.6946 45.3475 20.8578Z" fill="white"/>
</svg>
