<svg width="48" height="49" viewBox="0 0 48 49" fill="none" xmlns="http://www.w3.org/2000/svg">
<path fill-rule="evenodd" clip-rule="evenodd" d="M11.1939 12.8059L10.7664 12.3861L11.1856 12.0903L40.7087 41.6975L40.9159 41.6456L40.7666 41.8451L40.3585 41.4444L11.1939 12.8059ZM37.52 12.4951C38.443 12.8934 39.2916 13.4659 40.0152 14.1916L47.9998 22.199V39.8695L40.9159 41.6456L41.1092 41.3871L44.7548 36.5124L44.9074 36.3083L44.8319 36.0648L37.52 12.4951ZM36.3485 12.0939C36.7492 12.1973 37.1409 12.3315 37.52 12.4951L36.3256 8.64506L36.2891 8.5274L36.2021 8.44016L29.4945 1.71342C28.6344 0.850903 27.2779 0.733771 26.2827 1.43609L11.5397 11.8404H10.9365L11.1856 12.0903L11.2559 12.0407L11.5397 11.8404H13.274L12.322 12.5122L40.651 40.3301L43.8013 36.1177L36.3485 12.0939ZM36.3485 12.0939C35.7012 11.927 35.0302 11.8404 34.3503 11.8404L13.274 11.8404L26.8593 2.25312C27.4564 1.83173 28.2703 1.90201 28.7864 2.41952L35.407 9.05903L36.3485 12.0939Z" fill="white"/>
<path d="M39.8134 40.8359L10.9367 13.0588L0.945616 27.5316C0.397673 28.3253 0.49426 29.397 1.17529 30.08L7.89874 36.8226L35.2405 45.3532L39.6759 42.3879C40.2067 42.033 40.2735 41.2785 39.8134 40.8359Z" stroke="white"/>
<path fill-rule="evenodd" clip-rule="evenodd" d="M10.8869 13.1098C10.8765 12.6585 11.4221 12.4256 11.7408 12.7452L40.1558 41.2412L38.4958 47.9001H21.4322L14.4448 42.684C12.9185 41.5447 11.8952 39.8777 11.5553 38.033L11.3561 29.5143L11.1333 19.6107L10.9917 12.9947L10.8877 13.1452L10.8869 13.1098ZM9.91965 14.5461L9.88712 13.1328C9.85596 11.779 11.4928 11.0802 12.4489 12.0391L41.0633 40.7351L41.2627 40.9351L41.1944 41.2091L39.3716 48.521L39.2771 48.9001H38.8864H21.2662H21.1001L20.9671 48.8008L13.8466 43.4854C11.9713 42.0855 10.766 39.9828 10.4913 37.6826L11.5554 38.0354L11.5553 38.033C11.4837 37.6443 11.4425 37.2477 11.4332 36.8465L10.8877 13.1452L9.91965 14.5461ZM9.91965 14.5461L0.946678 27.5317C0.398191 28.3254 0.494578 29.3976 1.17584 30.0808L7.89877 36.8229L10.4913 37.6826C10.4592 37.414 10.4398 37.1427 10.4335 36.8695L9.91965 14.5461Z" fill="white"/>
</svg>
