<svg width="48" height="48" viewBox="0 0 48 48" fill="none" xmlns="http://www.w3.org/2000/svg">
<g clip-path="url(#clip0_3051_593)">
<path fill-rule="evenodd" clip-rule="evenodd" d="M17.475 10.317C11.2027 9.17478 6.24299 10.3695 4.26599 13.794C2.79074 16.3485 3.21224 19.7363 5.28824 23.3565C5.37349 23.5042 5.51373 23.6121 5.67831 23.6566C5.84288 23.7012 6.0184 23.6788 6.16649 23.5943C6.31416 23.509 6.42206 23.3688 6.46661 23.2042C6.51116 23.0396 6.48874 22.8641 6.40424 22.716C4.53449 19.4535 4.17074 16.5308 5.37974 14.436C7.02974 11.592 11.4457 10.5255 17.2447 11.5815C17.4125 11.6115 17.5852 11.5739 17.7253 11.477C17.8654 11.38 17.9615 11.2316 17.9925 11.064C18.0225 10.8963 17.9849 10.7235 17.8879 10.5834C17.791 10.4433 17.6425 10.3473 17.475 10.3163V10.317ZM8.54999 27.75C11.0865 30.537 14.3812 33.1515 18.1395 35.3213C27.246 40.575 36.9322 41.985 41.7 38.73C41.8406 38.6336 41.9372 38.4854 41.9688 38.3179C42.0005 38.1503 41.9645 37.9771 41.8687 37.836C41.7723 37.6955 41.6241 37.5988 41.4566 37.5672C41.289 37.5356 41.1158 37.5715 40.9747 37.6673C36.702 40.5803 27.5002 39.2468 18.7747 34.2135C15.1297 32.109 11.9385 29.577 9.49349 26.8905C9.37841 26.7647 9.21817 26.6895 9.04782 26.6815C8.87747 26.6735 8.71088 26.7333 8.58449 26.8478C8.45865 26.9629 8.3835 27.1231 8.37549 27.2935C8.36748 27.4638 8.42725 27.6304 8.54174 27.7568L8.54999 27.75ZM40.1835 26.9753C44.2905 22.1228 45.7245 17.2433 43.752 13.8278C42.3007 11.3138 39.2325 9.98628 35.154 9.93378C34.9836 9.93197 34.8194 9.99769 34.6972 10.1166C34.5751 10.2355 34.505 10.3979 34.5022 10.5683C34.5004 10.7387 34.5662 10.9029 34.685 11.025C34.8039 11.1472 34.9663 11.2173 35.1367 11.22C38.8117 11.268 41.448 12.411 42.6367 14.4713C44.2755 17.3093 42.9967 21.6608 39.2002 26.1458C39.0904 26.2761 39.0366 26.4447 39.0506 26.6146C39.0647 26.7845 39.1454 26.942 39.2752 27.0525C39.4056 27.1624 39.5742 27.2162 39.7441 27.2021C39.914 27.1881 40.0715 27.1073 40.182 26.9775L40.1835 26.9753ZM29.628 10.53C25.9155 11.325 21.9615 12.8813 18.1657 15.0728C8.77274 20.4953 2.64524 28.5 3.49499 34.29C3.52021 34.4586 3.61112 34.6103 3.74786 34.7121C3.88459 34.8138 4.05604 34.8573 4.22474 34.833C4.39331 34.8078 4.54504 34.7169 4.64678 34.5802C4.74853 34.4434 4.79201 34.272 4.76774 34.1033C4.01249 28.9553 9.82049 21.3758 18.8077 16.1783C22.4827 14.052 26.3175 12.546 29.8965 11.7788C30.063 11.7426 30.2085 11.642 30.3011 11.499C30.3937 11.3559 30.4259 11.182 30.3907 11.0153C30.3546 10.8487 30.254 10.7033 30.1109 10.6107C29.9679 10.5181 29.794 10.4858 29.6272 10.521L29.628 10.53Z" fill="white"/>
<path fill-rule="evenodd" clip-rule="evenodd" d="M14.4113 38.3116C16.5586 44.3078 20.0716 48.0001 24.0226 48.0001C26.9041 48.0001 29.5696 46.0351 31.6478 42.5776C31.7353 42.4312 31.7612 42.2563 31.7201 42.0909C31.6789 41.9254 31.5739 41.7831 31.4281 41.6948C31.2817 41.6074 31.1068 41.5814 30.9414 41.6226C30.7759 41.6637 30.6336 41.7687 30.5453 41.9146C28.6703 45.0218 26.3828 46.7123 24.0226 46.7123C20.7413 46.7123 17.6078 43.4123 15.6226 37.8773C15.5646 37.717 15.4455 37.5861 15.2914 37.5133C15.1372 37.4405 14.9605 37.4317 14.7998 37.4888C14.6395 37.5468 14.5086 37.6658 14.4358 37.82C14.363 37.9742 14.3542 38.1509 14.4113 38.3116ZM34.0261 37.1386C35.1376 33.5858 35.7346 29.4886 35.7346 25.2173C35.7346 14.5613 32.0048 5.37531 26.6926 3.01731C26.5366 2.94855 26.3597 2.94435 26.2006 3.00563C26.0415 3.0669 25.9131 3.18867 25.8436 3.34431C25.7748 3.50032 25.7706 3.6772 25.8319 3.83629C25.8932 3.99538 26.0149 4.12374 26.1706 4.19331C30.9091 6.29631 34.4476 15.0151 34.4476 25.2181C34.4476 29.3611 33.8701 33.3301 32.7976 36.7553C32.747 36.9181 32.763 37.0943 32.842 37.2454C32.9209 37.3965 33.0565 37.5102 33.2191 37.5616C33.3819 37.6121 33.5581 37.5962 33.7092 37.5172C33.8602 37.4382 33.9739 37.3026 34.0253 37.1401L34.0261 37.1386ZM46.1401 36.5086C46.1401 34.8083 44.7616 33.4298 43.0613 33.4298C41.3611 33.4298 39.9751 34.8001 39.9751 36.5086C39.9751 38.2171 41.3536 39.5873 43.0538 39.5873C44.7541 39.5873 46.1326 38.2088 46.1326 36.5086H46.1401ZM44.8538 36.5086C44.8536 36.9837 44.6648 37.4393 44.3288 37.7753C43.9928 38.1113 43.5372 38.3001 43.0621 38.3003C42.5869 38.3001 42.1313 38.1113 41.7953 37.7753C41.4594 37.4393 41.2705 36.9837 41.2703 36.5086C41.2705 36.0334 41.4594 35.5778 41.7953 35.2418C42.1313 34.9058 42.5869 34.717 43.0621 34.7168C43.5372 34.717 43.9928 34.9058 44.3288 35.2418C44.6648 35.5778 44.8536 36.0334 44.8538 36.5086Z" fill="white"/>
<path fill-rule="evenodd" clip-rule="evenodd" d="M4.93799 39.5872C6.63824 39.5872 8.01674 38.2088 8.01674 36.5085C8.01674 34.8083 6.63824 33.4298 4.93799 33.4298C4.12146 33.4299 3.33841 33.7543 2.7611 34.3318C2.18379 34.9092 1.85952 35.6923 1.85962 36.5089C1.85972 37.3254 2.18418 38.1085 2.76163 38.6858C3.33908 39.2631 4.12221 39.5873 4.93874 39.5872H4.93799ZM4.93799 38.301C4.46285 38.3008 4.00723 38.112 3.67126 37.776C3.33528 37.44 3.14644 36.9844 3.14624 36.5093C3.14644 36.0341 3.33528 35.5785 3.67126 35.2425C4.00723 34.9065 4.46285 34.7177 4.93799 34.7175C5.41314 34.7177 5.86876 34.9065 6.20473 35.2425C6.54071 35.5785 6.72955 36.0341 6.72974 36.5093C6.72955 36.9844 6.54071 37.44 6.20473 37.776C5.86876 38.112 5.41314 38.3008 4.93799 38.301ZM24.0225 6.15C25.7227 6.15 27.1012 4.7715 27.1012 3.07125C27.1012 1.371 25.722 0 24.0225 0C22.323 0 20.9437 1.3785 20.9437 3.07875C20.9437 4.779 22.3222 6.15 24.0225 6.15ZM24.0225 4.86375C23.5474 4.86355 23.0917 4.67471 22.7558 4.33874C22.4198 4.00276 22.2309 3.54714 22.2307 3.072C22.2309 2.59686 22.4198 2.14124 22.7558 1.80526C23.0917 1.46929 23.5474 1.28045 24.0225 1.28025C24.4976 1.28045 24.9533 1.46929 25.2892 1.80526C25.6252 2.14124 25.814 2.59686 25.8142 3.072C25.814 3.54714 25.6252 4.00276 25.2892 4.33874C24.9533 4.67471 24.4976 4.86355 24.0225 4.86375ZM24.492 27.3938C24.2053 27.4576 23.9088 27.4641 23.6196 27.4129C23.3304 27.3617 23.0541 27.2538 22.8067 27.0955C22.5594 26.9371 22.3458 26.7314 22.1782 26.4901C22.0107 26.2489 21.8925 25.9769 21.8305 25.6898C21.7685 25.4027 21.7639 25.1061 21.8169 24.8173C21.87 24.5284 21.9796 24.2528 22.1396 24.0065C22.2995 23.7601 22.5066 23.5478 22.7489 23.3818C22.9912 23.2159 23.264 23.0994 23.5515 23.0392C23.8382 22.9754 24.1347 22.9689 24.4239 23.0201C24.7131 23.0713 24.9894 23.1792 25.2367 23.3375C25.4841 23.4959 25.6977 23.7016 25.8653 23.9429C26.0328 24.1841 26.151 24.4561 26.213 24.7432C26.275 25.0303 26.2796 25.3269 26.2266 25.6157C26.1735 25.9046 26.0639 26.1802 25.9039 26.4265C25.744 26.6729 25.5369 26.8852 25.2946 27.0512C25.0522 27.2171 24.7795 27.3336 24.492 27.3938Z" fill="white"/>
</g>
<defs>
<clipPath id="clip0_3051_593">
<rect width="48" height="48" fill="white"/>
</clipPath>
</defs>
</svg>
