<svg width="48" height="28" viewBox="0 0 48 28" fill="none" xmlns="http://www.w3.org/2000/svg">
<path d="M48 27.1924C46.254 27.6364 45.174 27.2119 44.205 25.7569L37.314 16.223L36.318 14.9029L28.2705 25.7884C27.351 27.0979 26.3865 27.6679 24.6705 27.2044L34.9755 13.3715L25.3815 0.876452C27.0315 0.555452 28.1715 0.718951 29.184 2.19645L36.3315 11.849L43.5315 2.24895C44.454 0.939452 45.4455 0.441452 47.1015 0.924452L43.3815 5.85645L38.3415 12.419C37.7415 13.169 37.824 13.682 38.376 14.4065L48 27.1924ZM0.012 13.1405L0.855 8.99445C3.15 0.789452 12.555 -2.62005 19.041 2.44995C22.8315 5.43195 23.7735 9.64995 23.586 14.375H2.22C1.899 22.8799 8.0205 28.0129 15.825 25.3939C18.5625 24.4744 20.175 22.331 20.982 19.649C21.3915 18.305 22.0695 18.0949 23.3325 18.479C22.6875 21.833 21.2325 24.6349 18.1575 26.3884C13.563 29.0134 7.005 28.1644 3.555 24.5164C1.5 22.3999 0.651 19.7179 0.27 16.85C0.21 16.3759 0.09 15.9244 0 15.4699C0.008 14.6939 0.012 13.918 0.012 13.142V13.1405ZM2.259 12.5705H21.567C21.441 6.42045 17.6115 2.05245 12.378 2.01495C6.633 1.96995 2.508 6.23445 2.259 12.5705Z" fill="white"/>
</svg>
