<svg width="40" height="36" viewBox="0 0 40 36" fill="none" xmlns="http://www.w3.org/2000/svg">
<path d="M10.1094 0L9.6875 0.796875L0.6875 17.2969L0.3125 18L0.6875 18.7031L9.6875 35.2031L10.1094 36H29.8906L30.3125 35.2031L39.3125 18.7031L39.6875 18L39.3125 17.2969L30.3125 0.796875L29.8906 0H10.1094ZM11.8906 3H28.1094L29.75 6H13.1094L12.6875 6.75L8.23438 14.5312L6.92188 12.0469L11.8906 3ZM14.8906 9H25.1094L30.2656 18.0469L25.3906 27H14.8906L9.92188 17.6719L14.8906 9ZM28.5781 9H31.3906L36.3125 18L28.1094 33H25.5312L33.3125 18.7031L33.7344 18L33.3125 17.25L28.5781 9ZM20 12C16.7012 12 14 14.7012 14 18C14 21.2988 16.7012 24 20 24C23.2988 24 26 21.2988 26 18C26 14.7012 23.2988 12 20 12ZM20 15C21.6758 15 23 16.3242 23 18C23 19.6758 21.6758 21 20 21C18.3242 21 17 19.6758 17 18C17 16.3242 18.3242 15 20 15ZM5.1875 15.2344L12.6875 29.2031L13.1094 30H23.75L22.1094 33H11.8906L3.6875 18L5.1875 15.2344Z" fill="white"/>
</svg>
