<svg width="41" height="41" viewBox="0 0 41 41" fill="none" xmlns="http://www.w3.org/2000/svg">
<path d="M37.6883 0.600098H3.11561C1.72711 0.600098 0.600098 1.72711 0.600098 3.11561V37.6846C0.600098 39.0731 1.72711 40.2001 3.11561 40.2001H37.6846C39.0731 40.2001 40.2001 39.0731 40.2001 37.6883V3.11561C40.2001 1.72711 39.0731 0.600098 37.6883 0.600098ZM22.2858 30.9446C22.2858 34.7124 20.076 36.4287 16.8496 36.4287C13.9327 36.4287 11.8297 34.473 10.9715 32.6572L13.9364 30.8636C14.5072 31.8764 15.3764 32.6572 16.6287 32.6572C17.8257 32.6572 18.5144 32.1895 18.5144 30.3701V18.5144H22.2858V30.9446ZM30.4658 36.4287C27.1253 36.4287 25.2286 34.7455 24.1715 32.6572L27.0001 30.7715C27.7698 32.0311 28.6096 33.2355 30.3848 33.2355C31.8764 33.2355 32.6572 32.4915 32.6572 31.4603C32.6572 30.2301 31.847 29.7918 30.208 29.0736L29.3094 28.6869C26.7128 27.582 24.9855 26.1972 24.9855 23.2655C24.9855 20.5695 27.0443 18.5144 30.2559 18.5144C32.5431 18.5144 34.1857 19.3099 35.3716 21.3945L32.5725 23.1955C31.9538 22.0869 31.2908 21.6523 30.2559 21.6523C29.2026 21.6523 28.5359 22.3226 28.5359 23.1955C28.5359 24.2746 29.2026 24.7092 30.7457 25.3796L31.6444 25.7663C34.705 27.0738 36.4287 28.4107 36.4287 31.4161C36.4287 34.6534 33.8837 36.4287 30.4658 36.4287Z" fill="white"/>
</svg>
