<svg width="46" height="42" viewBox="0 0 46 42" fill="none" xmlns="http://www.w3.org/2000/svg">
<path d="M32.1725 0.82509C31.424 0.799922 30.6406 0.930419 29.855 1.18509C28.284 1.69443 26.6377 2.68702 24.9481 4.06134C24.286 4.59994 23.6179 5.21561 22.9475 5.86884C22.2919 5.23219 21.6375 4.63117 20.99 4.10447C19.3019 2.73125 17.66 1.74015 16.0925 1.23197C14.525 0.723775 12.9654 0.708028 11.6844 1.44759C10.4034 2.18715 9.63742 3.54475 9.29377 5.15634C8.95013 6.76793 8.98611 8.68712 9.33127 10.8357C9.45116 11.582 9.62403 12.365 9.81877 13.1626C9.08683 13.3844 8.37603 13.6176 7.7169 13.8751C5.72768 14.652 4.08173 15.5815 2.88314 16.6876C1.68456 17.7937 0.910645 19.1361 0.910645 20.6101C0.910645 22.0841 1.68456 23.4247 2.88314 24.5307C4.08173 25.6368 5.72768 26.5682 7.7169 27.3451C8.4217 27.6204 9.18477 27.8682 9.97252 28.1026C9.68917 29.1613 9.4596 30.1887 9.30315 31.1626C8.9577 33.3129 8.92123 35.2323 9.26565 36.8476C9.61007 38.4628 10.3765 39.8281 11.6638 40.5713C12.9511 41.3146 14.5177 41.2963 16.0888 40.787C17.6598 40.2776 19.3043 39.2869 20.9938 37.9126C21.6498 37.379 22.3134 36.7702 22.9775 36.1238C23.6448 36.7737 24.3117 37.386 24.9706 37.922C26.6588 39.2952 28.3025 40.2863 29.87 40.7945C31.4375 41.3027 32.9953 41.3184 34.2763 40.5788C35.5572 39.8393 36.3233 38.4817 36.6669 36.8701C37.0105 35.2585 36.9727 33.3393 36.6275 31.1907C36.4706 30.2142 36.2409 29.1853 35.9563 28.1232C36.77 27.8832 37.5572 27.6286 38.2831 27.3451C40.2724 26.5682 41.9183 25.6368 43.1169 24.5307C44.3155 23.4247 45.0894 22.0841 45.0894 20.6101C45.0894 19.1361 44.3155 17.7937 43.1169 16.6876C41.9183 15.5815 40.2724 14.652 38.2831 13.8751C37.6146 13.614 36.8928 13.3777 36.1494 13.1532C36.3457 12.3507 36.52 11.5621 36.6407 10.8113C36.9861 8.66102 37.0226 6.73971 36.6782 5.12447C36.3337 3.50922 35.5654 2.14581 34.2781 1.40259C33.6345 1.03098 32.921 0.850258 32.1725 0.82509ZM32.0844 2.77884C32.5541 2.79168 32.9548 2.90346 33.2975 3.10134C33.983 3.49711 34.4897 4.26738 34.76 5.53509C35.0303 6.8028 35.021 8.51561 34.7019 10.502C34.5926 11.1821 34.434 11.9028 34.2538 12.6413C32.2906 12.1689 30.1395 11.8181 27.8469 11.612C26.6952 10.0162 25.5113 8.56461 24.3181 7.27509C24.949 6.65929 25.5758 6.08335 26.1875 5.58572C27.7482 4.31619 29.2257 3.45234 30.4588 3.05259C31.0753 2.85271 31.6147 2.766 32.0844 2.77884ZM13.8669 2.78447C14.3393 2.77128 14.8799 2.85776 15.4981 3.05822C16.7347 3.45912 18.2149 4.32258 19.7769 5.59322C20.3762 6.08074 20.9893 6.64413 21.6069 7.24509C20.4051 8.54484 19.213 10.0116 18.0538 11.6213C15.7693 11.8313 13.6259 12.1854 11.6713 12.6601C11.4922 11.9251 11.3357 11.2072 11.2269 10.5301C10.9075 8.54201 10.8995 6.82708 11.1706 5.55572C11.4417 4.28435 11.9526 3.51014 12.6444 3.11072C12.9903 2.911 13.3945 2.79765 13.8669 2.78447ZM22.9775 8.65697C23.7594 9.50791 24.5418 10.4394 25.3175 11.4413C24.5553 11.4096 23.7837 11.3907 23 11.3907C22.2008 11.3907 21.4145 11.4102 20.6375 11.4432C21.4135 10.4404 22.1953 9.50864 22.9775 8.65697ZM23 13.3295C24.3055 13.3295 25.578 13.3831 26.8156 13.4738C27.6673 14.697 28.4995 15.9947 29.2925 17.3682C29.9893 18.5751 30.6199 19.7801 31.1938 20.9701C30.6138 22.1759 29.9727 23.3972 29.2663 24.6207C28.6444 25.6978 27.9951 26.7207 27.335 27.707C25.937 27.8238 24.4883 27.8888 23 27.8888C21.4759 27.8888 19.9947 27.82 18.5656 27.6976C17.9166 26.7255 17.2782 25.7162 16.6663 24.6563C15.9615 23.4356 15.3235 22.2184 14.7444 21.0151C15.3259 19.805 15.9668 18.5791 16.6756 17.3513C17.4645 15.985 18.2943 14.6949 19.1413 13.4776C20.3923 13.3848 21.6795 13.3295 23 13.3295ZM29.2888 13.7138C30.8706 13.9113 32.3559 14.1856 33.7382 14.5145C33.3278 15.8596 32.8224 17.2645 32.21 18.7145C31.8124 17.948 31.4006 17.1789 30.9557 16.4082C30.4167 15.4748 29.8564 14.5834 29.2888 13.7138ZM16.61 13.7288C16.0541 14.5826 15.5071 15.4557 14.9788 16.3707C14.5281 17.1513 14.1078 17.9307 13.7056 18.707C13.0985 17.2658 12.5962 15.8688 12.1888 14.5313C13.5613 14.2017 15.0385 13.9286 16.61 13.7288ZM35.6375 15.0245C36.3181 15.2304 36.9753 15.4453 37.5782 15.6807C39.4119 16.3969 40.8624 17.245 41.8025 18.1126C42.7426 18.9801 43.1507 19.8075 43.1507 20.6101C43.1507 21.4127 42.7426 22.24 41.8025 23.1076C40.8624 23.9751 39.4119 24.8232 37.5782 25.5395C36.9082 25.8011 36.1721 26.0384 35.4069 26.2632C34.861 24.5748 34.1643 22.8133 33.335 21.0151C34.2885 18.9506 35.0587 16.9376 35.6375 15.0245ZM10.3306 15.0338C10.9029 16.9279 11.6632 18.9209 12.6031 20.9645C11.7685 22.7732 11.0683 24.5447 10.52 26.2426C9.78174 26.0237 9.07062 25.7928 8.4219 25.5395C6.58815 24.8232 5.13764 23.9751 4.19752 23.1076C3.2574 22.24 2.84939 21.4127 2.84939 20.6101C2.84939 19.8075 3.2574 18.9801 4.19752 18.1126C5.13764 17.245 6.58815 16.3969 8.4219 15.6807C9.01548 15.4489 9.6617 15.2371 10.3306 15.0338ZM23 16.2001C20.3604 16.2001 18.2 18.3605 18.2 21.0001C18.2 23.6397 20.3604 25.8001 23 25.8001C25.6396 25.8001 27.8 23.6397 27.8 21.0001C27.8 18.3605 25.6396 16.2001 23 16.2001ZM23 18.1201C24.602 18.1201 25.88 19.3981 25.88 21.0001C25.88 22.602 24.602 23.8801 23 23.8801C21.3981 23.8801 20.12 22.602 20.12 21.0001C20.12 19.3981 21.3981 18.1201 23 18.1201ZM32.2344 23.2688C32.7379 24.4604 33.1755 25.6264 33.5431 26.7507C32.3886 27.0184 31.1593 27.244 29.8663 27.422C30.2385 26.828 30.6061 26.223 30.965 25.6013C31.415 24.822 31.8328 24.0438 32.2344 23.2688ZM13.7281 23.2707C14.1318 24.0504 14.5523 24.8322 15.005 25.6163C15.3594 26.2302 15.7214 26.8296 16.0888 27.4163C14.7995 27.2376 13.574 27.0112 12.4231 26.7432C12.7891 25.6223 13.227 24.4588 13.7281 23.2707ZM11.87 28.607C13.6075 29.0186 15.4906 29.3347 17.4875 29.5407C18.8208 31.4691 20.209 33.201 21.6069 34.7157C20.9819 35.3251 20.3625 35.897 19.7563 36.3901C18.1956 37.6596 16.7162 38.5216 15.4831 38.9213C14.2501 39.3211 13.3299 39.2684 12.6444 38.8726C11.9589 38.4768 11.4541 37.7066 11.1838 36.4388C10.9135 35.1711 10.9209 33.4602 11.24 31.4738C11.3848 30.5727 11.6011 29.6078 11.87 28.607ZM34.0981 28.6145C34.3691 29.6209 34.5863 30.5903 34.7319 31.4963C35.0513 33.4844 35.0592 35.1975 34.7882 36.4688C34.5171 37.7402 34.0081 38.5163 33.3163 38.9157C32.6244 39.3151 31.6972 39.3691 30.4606 38.9682C29.2241 38.5673 27.7439 37.702 26.1819 36.4313C25.5713 35.9347 24.9476 35.36 24.3181 34.7457C25.7251 33.2253 27.1237 31.484 28.4656 29.5445C30.4676 29.3399 32.356 29.0256 34.0981 28.6145ZM19.9925 29.7376C20.9782 29.7913 21.9769 29.8276 23 29.8276C23.9893 29.8276 24.9556 29.7935 25.91 29.7432C24.9344 31.0595 23.9399 32.2562 22.9494 33.3338C21.9595 32.2539 20.9669 31.0551 19.9925 29.7376Z" fill="white"/>
</svg>
