<svg width="46" height="48" viewBox="0 0 46 48" fill="none" xmlns="http://www.w3.org/2000/svg">
<path d="M22.9892 0C22.314 0 21.6389 0.165289 21.0561 0.497596L2.72231 11.0589C1.53831 11.742 0.800049 13.0353 0.800049 14.4014V33.5625C0.800049 34.9471 1.53831 36.222 2.72231 36.905L7.5352 39.6743C9.8662 40.8189 10.6974 40.8173 11.7519 40.8173C15.2114 40.8173 17.1899 38.7314 17.1899 35.113V15.3425C17.1899 15.0472 16.9511 14.8053 16.6551 14.8053H14.3426C14.0281 14.8053 13.8042 15.0472 13.8042 15.3425V35.095C13.8042 36.7196 12.1228 38.3068 9.40327 36.9591L4.36997 34.0601C4.18497 33.9678 4.07368 33.7656 4.07368 33.5625V14.4195C4.07368 14.1979 4.18497 14.011 4.36997 13.9002L22.7038 3.34255C22.8703 3.23178 23.0933 3.23178 23.2783 3.34255L41.6121 13.9002C41.7971 14.011 41.9083 14.1984 41.9083 14.4014V33.5625C41.9083 33.7656 41.7966 33.9678 41.6301 34.0601L23.2783 44.6394C23.1118 44.7317 22.8703 44.7317 22.7038 44.6394L17.9848 41.8522C17.8553 41.7599 17.6735 41.7423 17.544 41.8161C16.2305 42.5546 15.99 42.6463 14.769 43.0709C14.473 43.1632 14.0102 43.3473 14.9352 43.8642L21.0561 47.4844C21.6481 47.8167 22.316 48 22.982 48C23.6665 48 24.3303 47.8167 24.9223 47.4844L43.2778 36.905C44.4618 36.222 45.2 34.9471 45.2 33.5625V14.4195C45.2 13.0349 44.4618 11.76 43.2778 11.0769L24.9223 0.497596C24.3396 0.165289 23.6645 0 22.9892 0ZM27.9213 14.78C22.6858 14.78 19.5602 16.994 19.5602 20.6863C19.5602 24.6925 22.6653 25.7984 27.6973 26.2969C33.7098 26.8876 34.1723 27.7764 34.1723 28.9579C34.1723 30.9887 32.5286 31.857 28.6621 31.857C23.7966 31.857 22.7228 30.6368 22.3713 28.2368C22.3343 27.9783 22.1136 27.7933 21.8546 27.7933H19.4663C19.1703 27.7933 18.9496 28.0356 18.9496 28.3125C18.9496 31.3956 20.6331 35.0661 28.6621 35.0661C34.4711 35.0661 37.8 32.7798 37.8 28.7921C37.8 24.8413 35.1171 23.787 29.4931 23.03C23.7766 22.2916 23.2024 21.9037 23.2024 20.5745C23.2024 19.4668 23.7033 18.0108 27.9213 18.0108C31.6768 18.0108 33.0821 18.8205 33.6556 21.3498C33.7111 21.5898 33.9133 21.7752 34.1723 21.7752H36.5607C36.7087 21.7752 36.8363 21.7021 36.9473 21.5913C37.0398 21.499 37.0959 21.35 37.0774 21.1839C36.7074 16.827 33.8043 14.78 27.9213 14.78Z" fill="white"/>
</svg>
