<svg width="47" height="48" viewBox="0 0 47 48" fill="none" xmlns="http://www.w3.org/2000/svg">
<path d="M35.4423 34.9423C35.7476 32.3988 35.6561 32.0258 37.5507 32.4378L38.0317 32.48C39.4884 32.5463 41.3941 32.2457 42.5136 31.7256C44.9236 30.6074 46.3527 28.7403 43.9763 29.2309C38.5557 30.3491 38.183 28.5137 38.183 28.5137C43.9069 20.0209 46.2996 9.24008 44.2343 6.60116C38.601 -0.596848 28.85 2.80693 28.6868 2.8953L28.6349 2.90489C27.5638 2.68267 26.3652 2.54989 25.0187 2.52812C22.5657 2.48781 20.7043 3.1712 19.2924 4.24213C19.2924 4.24213 1.89708 -2.92452 2.70634 13.2549C2.87845 16.6967 7.63984 39.2987 13.3187 32.4718C15.3943 29.9755 17.4001 27.8648 17.4001 27.8648C18.3962 28.5265 19.5887 28.864 20.8394 28.7428L20.936 28.6603C20.9058 28.9703 20.9191 29.2735 20.9747 29.6323C19.512 31.2669 19.9418 31.5539 17.017 32.1559C14.0579 32.7658 15.7964 33.8516 16.9311 34.1354C18.3072 34.4795 21.4904 34.967 23.6419 31.9558L23.5562 32.2994C24.1301 32.7585 24.0913 35.5993 24.1727 37.629C24.2541 39.6587 24.39 41.5528 24.8038 42.6696C25.2175 43.7861 25.7057 46.6625 29.5497 45.8387C32.7622 45.1503 35.2185 44.1594 35.4423 34.9422" fill="black"/>
<path d="M35.4423 34.9423C35.7476 32.3988 35.6561 32.0258 37.5507 32.4378L38.0317 32.48C39.4884 32.5463 41.3941 32.2457 42.5136 31.7256C44.9236 30.6074 46.3527 28.7403 43.9763 29.2309C38.5557 30.3491 38.183 28.5137 38.183 28.5137C43.9069 20.0209 46.2996 9.24008 44.2343 6.60116C38.601 -0.596848 28.85 2.80693 28.6868 2.8953L28.6349 2.90489C27.5638 2.68267 26.3652 2.54989 25.0187 2.52812C22.5657 2.48781 20.7043 3.1712 19.2924 4.24213C19.2924 4.24213 1.89708 -2.92452 2.70634 13.2549C2.87845 16.6967 7.63984 39.2987 13.3187 32.4718C15.3943 29.9755 17.4001 27.8648 17.4001 27.8648C18.3962 28.5265 19.5887 28.864 20.8394 28.7428L20.936 28.6603C20.9058 28.9703 20.9191 29.2735 20.9747 29.6323C19.512 31.2669 19.9418 31.5539 17.017 32.1559C14.0579 32.7658 15.7964 33.8516 16.9311 34.1354C18.3072 34.4795 21.4904 34.967 23.6419 31.9558L23.5562 32.2994C24.1301 32.7585 24.0913 35.5993 24.1727 37.629C24.2541 39.6587 24.39 41.5528 24.8038 42.6696C25.2175 43.7861 25.7057 46.6625 29.5496 45.8387C32.7622 45.1503 35.2185 44.1594 35.4423 34.9422" stroke="black" stroke-width="3.37541"/>
<path d="M43.9771 29.2308C38.5559 30.3491 38.1833 28.5136 38.1833 28.5136C43.9072 20.0203 46.2999 9.23926 44.235 6.60067C38.6017 -0.596909 28.8503 2.80708 28.6875 2.89546L28.6352 2.90483C27.5641 2.6825 26.3655 2.55005 25.0183 2.52806C22.5653 2.48786 20.7046 3.17114 19.2927 4.24186C19.2927 4.24186 1.89703 -2.92447 2.70608 13.2549C2.87819 16.6969 7.63947 39.2988 13.3185 32.472C15.3942 29.9756 17.3998 27.8649 17.3998 27.8649C18.3959 28.5266 19.5884 28.8642 20.8386 28.7429L20.9357 28.6605C20.9055 28.9705 20.9193 29.2736 20.9746 29.6325C19.5116 31.2671 19.9415 31.5541 17.0169 32.1561C14.0575 32.766 15.796 33.8518 16.9311 34.1356C18.3071 34.4797 21.4906 34.9671 23.6416 31.956L23.5558 32.2995C24.1291 32.7587 24.5316 35.286 24.4641 37.577C24.3967 39.8682 24.3516 41.4411 24.8033 42.6697C25.255 43.8983 25.7051 46.6627 29.5498 45.8389C32.7624 45.1504 34.4272 43.3664 34.6588 40.3904C34.8231 38.2748 35.195 38.5875 35.2185 36.696L35.5169 35.8005C35.8609 32.9326 35.5715 32.0074 37.5507 32.4377L38.0317 32.48C39.4885 32.5462 41.3951 32.2457 42.5141 31.7255C44.9237 30.6073 46.3527 28.7403 43.9769 29.2308H43.9771Z" fill="#121213"/>
<path d="M23.8742 30.875C23.7249 36.2115 23.9117 41.5851 24.4339 42.8911C24.9563 44.1971 26.0745 46.7373 29.9195 45.9136C33.1317 45.2249 34.3005 43.8922 34.8077 40.9505C35.1812 38.7862 35.9014 32.7756 35.9937 31.544" stroke="white" stroke-width="1.12514" stroke-linecap="round" stroke-linejoin="round"/>
<path d="M19.2657 4.12306C19.2657 4.12306 1.85824 -2.99164 2.6675 13.1877C2.83962 16.6297 7.60122 39.2324 13.2802 32.4052C15.3554 29.9086 17.2323 27.9505 17.2323 27.9505" stroke="white" stroke-width="1.12514" stroke-linecap="round" stroke-linejoin="round"/>
<path d="M28.6684 2.8245C28.0659 3.01343 38.3515 -0.935568 44.197 6.53371C46.2618 9.17241 43.8691 19.9534 38.1453 28.447" stroke="white" stroke-width="1.12514" stroke-linecap="round" stroke-linejoin="round"/>
<path d="M38.1452 28.4468C38.1452 28.4468 38.5182 30.2828 43.9394 29.1638C46.3147 28.6732 44.8852 30.5404 42.4762 31.6592C40.4991 32.5768 36.0666 32.812 35.9941 31.544C35.8078 28.2726 38.3271 29.2665 38.1453 28.4468C37.9809 27.7085 36.8543 26.984 36.109 25.1772C35.4584 23.6001 27.1859 11.5063 38.4032 13.3025C38.8141 13.2174 35.4776 2.63278 24.9798 2.46067C14.4844 2.28856 14.8287 15.3677 14.8287 15.3677" stroke="white" stroke-width="1.12514" stroke-linecap="round" stroke-linejoin="bevel"/>
<path d="M20.9362 29.5654C19.473 31.1999 19.9033 31.4869 16.9785 32.0892C14.0191 32.6991 15.7578 33.7847 16.8926 34.0684C18.2686 34.4127 21.4521 34.9002 23.6031 31.8883C24.2582 30.9712 23.5992 29.508 22.6995 29.135C22.2647 28.9549 21.6834 28.7292 20.9362 29.5654V29.5654Z" stroke="white" stroke-width="1.12514" stroke-linecap="round" stroke-linejoin="round"/>
<path d="M20.8405 29.5371C20.6931 28.5761 21.1563 27.4325 21.6527 26.0946C22.3987 24.0872 24.1199 22.0796 22.743 15.7119C21.7167 10.9668 14.8329 14.7244 14.8286 15.3678C14.8244 16.011 15.14 18.629 14.7136 21.6777C14.1573 25.6559 17.245 29.0204 20.8005 28.6762" stroke="white" stroke-width="1.12514" stroke-linecap="round" stroke-linejoin="round"/>
<path d="M19.2025 15.2712C19.1715 15.4909 19.6048 16.0773 20.1699 16.1557C20.7339 16.2343 21.2168 15.7761 21.2474 15.5566C21.278 15.3368 20.8452 15.0948 20.2799 15.0161C19.7155 14.9373 19.2325 15.052 19.2026 15.2712H19.2025Z" fill="white" stroke="white" stroke-width="0.375043"/>
<path d="M36.384 14.8234C36.4146 15.0431 35.9818 15.6295 35.4166 15.7079C34.8521 15.7865 34.3693 15.3283 34.3384 15.1088C34.3085 14.889 34.7414 14.647 35.3061 14.5683C35.8707 14.4896 36.3534 14.6042 36.384 14.8235V14.8234Z" fill="white" stroke="white" stroke-width="0.187521"/>
<path d="M38.4033 13.3027C38.4963 15.0264 38.032 16.2005 37.9735 18.0355C37.8868 20.7026 39.2451 23.7554 37.1985 26.8119" stroke="white" stroke-width="1.12514" stroke-linecap="round" stroke-linejoin="round"/>
</svg>
