<svg width="48" height="48" viewBox="0 0 48 48" fill="none" xmlns="http://www.w3.org/2000/svg">
<path d="M48 24C48 37.2548 37.2547 48 24 48C10.7452 48 0 37.2548 0 24C0 10.7452 10.7452 0 24 0C37.2547 0 48 10.7452 48 24Z" fill="white"/>
<path d="M8.55075 20.9829C8.55075 20.9829 7.58044 16.1633 17.3711 15.0703C17.7724 8.63223 40.5268 8.48898 34.8499 16.6828C39.0536 18.134 38.3711 21.0545 38.3711 21.0545C38.3711 21.0545 38.5387 22.703 37.0777 24.208C35.6166 25.7128 34.0562 26.6484 29.1735 26.6445C27.2147 26.643 24.4311 26.7399 21.1734 25.2588C16.7663 26.1669 11.9874 25.2616 10.5388 24.1601C8.11969 22.3207 8.55075 20.9829 8.55075 20.9829Z" fill="black"/>
<path d="M8.55097 20.983V28.4364C8.55097 28.4364 9.05403 35.1731 21.3415 32.5215C26.2275 36.1045 37.509 33.8115 38.3713 29.5831V21.0547C38.4432 23.133 28.7427 28.7947 21.4133 23.9215C10.491 26.3582 8.55078 20.983 8.55078 20.983" fill="#404147"/>
</svg>
