<svg width="42" height="42" viewBox="0 0 42 42" fill="none" xmlns="http://www.w3.org/2000/svg">
<path d="M40.2001 0.840088H1.80009C1.26921 0.840088 0.840088 1.27017 0.840088 1.80009V40.2001C0.840088 40.73 1.26921 41.1601 1.80009 41.1601H40.2001C40.731 41.1601 41.1601 40.73 41.1601 40.2001V1.80009C41.1601 1.27017 40.731 0.840088 40.2001 0.840088ZM24.8401 22.3873H20.0401V37.3201H16.2001V22.3873H11.4001V19.0801H24.8401V22.3873ZM25.9162 36.4676V32.4759C25.9162 32.4759 28.0964 34.1194 30.7124 34.1194C33.3284 34.1194 33.2276 32.4087 33.2276 32.1745C33.2276 29.6919 25.8154 29.6919 25.8154 24.1921C25.8154 16.7127 36.6154 19.6638 36.6154 19.6638L36.481 23.2196C36.481 23.2196 34.6695 22.0119 32.6238 22.0119C30.578 22.0119 29.8398 22.9844 29.8398 24.0241C29.8398 26.7073 37.3191 26.4394 37.3191 31.8394C37.3201 40.1569 25.9162 36.4676 25.9162 36.4676Z" fill="white"/>
</svg>
