<svg width="593" height="504" viewBox="0 0 593 504" fill="none" xmlns="http://www.w3.org/2000/svg">
    <path fill-rule="evenodd" clip-rule="evenodd" d="M512.01 0.871411L431.9 140.301L483.599 140.176C477.283 186.557 463.112 231.603 441.623 273.357C415.373 324.361 378.781 369.334 334.179 405.405C287.523 442.191 233.698 468.825 176.152 483.601C118.605 498.378 58.6067 500.971 1.91552e-05 491.214C59.6167 505.527 121.565 507.235 181.88 496.226C242.194 485.218 299.546 461.737 350.262 427.286C402.25 391.253 446.142 344.763 479.129 290.791C507.495 244.379 527.259 193.313 537.552 140.047L592.729 139.914L512.01 0.871411Z" fill="url(#paint0_linear_2003_5293)"/>
    <path fill-rule="evenodd" clip-rule="evenodd" d="M273.78 186.881L230.944 261.436L258.588 261.37C255.211 286.17 247.634 310.257 236.143 332.584C222.107 359.856 202.54 383.904 178.691 403.192C153.744 422.861 124.962 437.103 94.1915 445.004C63.4205 452.906 31.3384 454.292 0.000481671 449.075C31.8785 456.729 65.0034 457.641 97.2545 451.755C129.506 445.869 160.172 433.313 187.291 414.892C215.09 395.624 238.56 370.765 256.198 341.906C271.366 317.088 281.934 289.783 287.438 261.3L316.942 261.229L273.78 186.881Z" fill="url(#paint1_linear_2003_5293)"/>
    <path fill-rule="evenodd" clip-rule="evenodd" d="M553.552 309.307L531.405 347.854L545.698 347.82C543.952 360.643 540.034 373.096 534.093 384.64C526.836 398.741 516.72 411.174 504.389 421.146C491.49 431.316 476.61 438.68 460.7 442.765C444.79 446.85 428.203 447.567 412 444.87C428.482 448.827 445.609 449.299 462.284 446.255C478.958 443.212 494.814 436.72 508.835 427.196C523.208 417.234 535.343 404.381 544.462 389.46C552.305 376.628 557.769 362.51 560.614 347.784L575.868 347.747L553.552 309.307Z" fill="url(#paint2_linear_2003_5293)"/>
    <defs>
        <linearGradient id="paint0_linear_2003_5293" x1="461.499" y1="283" x2="34.499" y2="500.5" gradientUnits="userSpaceOnUse">
            <stop stop-color="white"/>
            <stop offset="1" stop-color="white" stop-opacity="0"/>
        </linearGradient>
        <linearGradient id="paint1_linear_2003_5293" x1="333" y1="72.5" x2="18.4469" y2="454.04" gradientUnits="userSpaceOnUse">
            <stop stop-color="white"/>
            <stop offset="1" stop-color="white" stop-opacity="0"/>
        </linearGradient>
        <linearGradient id="paint2_linear_2003_5293" x1="584" y1="231.5" x2="469.499" y2="444.5" gradientUnits="userSpaceOnUse">
            <stop stop-color="white"/>
            <stop offset="1" stop-color="white" stop-opacity="0"/>
        </linearGradient>
    </defs>
</svg>
